<svg xmlns="http://www.w3.org/2000/svg" xmlns:xlink="http://www.w3.org/1999/xlink" width="400" zoomAndPan="magnify" viewBox="0 0 300 112.499997" height="150" preserveAspectRatio="xMidYMid meet" version="1.0"><defs><g/><clipPath id="5ac643bec7"><path d="M 60.574219 35.332031 L 239.59375 35.332031 L 239.59375 89.058594 L 60.574219 89.058594 Z M 60.574219 35.332031 " clip-rule="nonzero"/></clipPath><clipPath id="3a39d568b9"><path d="M 200.324219 35.332031 C 221.921875 35.332031 239.425781 47.359375 239.425781 62.195312 C 239.425781 77.03125 221.921875 89.058594 200.324219 89.058594 L 99.675781 89.058594 C 78.078125 89.058594 60.574219 77.03125 60.574219 62.195312 C 60.574219 47.359375 78.078125 35.332031 99.675781 35.332031 Z M 200.324219 35.332031 " clip-rule="nonzero"/></clipPath><clipPath id="fd90dca18f"><path d="M 60.574219 22.945312 L 239.488281 22.945312 L 239.488281 81.214844 L 60.574219 81.214844 Z M 60.574219 22.945312 " clip-rule="nonzero"/></clipPath><clipPath id="a280b08085"><path d="M 200.324219 22.945312 C 221.921875 22.945312 239.425781 35.988281 239.425781 52.078125 C 239.425781 68.171875 221.921875 81.214844 200.324219 81.214844 L 99.675781 81.214844 C 78.078125 81.214844 60.574219 68.171875 60.574219 52.078125 C 60.574219 35.988281 78.078125 22.945312 99.675781 22.945312 Z M 200.324219 22.945312 " clip-rule="nonzero"/></clipPath><clipPath id="ee0b61e2c6"><path d="M 182.855469 39.382812 L 208.320312 39.382812 L 208.320312 64.847656 L 182.855469 64.847656 Z M 182.855469 39.382812 " clip-rule="nonzero"/></clipPath></defs><g clip-path="url(#5ac643bec7)"><g clip-path="url(#3a39d568b9)"><path fill="#4c7dee" d="M 60.574219 35.332031 L 239.382812 35.332031 L 239.382812 89.058594 L 60.574219 89.058594 Z M 60.574219 35.332031 " fill-opacity="1" fill-rule="nonzero"/></g></g><g fill="#000000" fill-opacity="1"><g transform="translate(123.729711, 62.53292)"><g><path d="M 0.25 -1.03125 L 0.421875 -1.03125 C 0.441406 -0.894531 0.476562 -0.773438 0.53125 -0.671875 C 0.582031 -0.566406 0.648438 -0.476562 0.734375 -0.40625 C 0.828125 -0.332031 0.929688 -0.273438 1.046875 -0.234375 C 1.160156 -0.191406 1.28125 -0.171875 1.40625 -0.171875 C 1.625 -0.171875 1.796875 -0.222656 1.921875 -0.328125 C 2.046875 -0.429688 2.109375 -0.570312 2.109375 -0.75 C 2.109375 -0.820312 2.09375 -0.890625 2.0625 -0.953125 C 2.039062 -1.015625 2 -1.070312 1.9375 -1.125 C 1.882812 -1.1875 1.804688 -1.242188 1.703125 -1.296875 C 1.609375 -1.347656 1.488281 -1.40625 1.34375 -1.46875 C 1.164062 -1.550781 1.015625 -1.628906 0.890625 -1.703125 C 0.765625 -1.773438 0.664062 -1.847656 0.59375 -1.921875 C 0.519531 -2.003906 0.46875 -2.085938 0.4375 -2.171875 C 0.40625 -2.265625 0.390625 -2.367188 0.390625 -2.484375 C 0.390625 -2.617188 0.410156 -2.742188 0.453125 -2.859375 C 0.503906 -2.972656 0.570312 -3.070312 0.65625 -3.15625 C 0.75 -3.238281 0.851562 -3.300781 0.96875 -3.34375 C 1.09375 -3.382812 1.226562 -3.40625 1.375 -3.40625 C 1.5 -3.40625 1.617188 -3.382812 1.734375 -3.34375 C 1.847656 -3.3125 1.957031 -3.25 2.0625 -3.15625 L 2.1875 -3.34375 L 2.28125 -3.34375 L 2.328125 -2.484375 L 2.171875 -2.484375 C 2.097656 -2.722656 1.992188 -2.898438 1.859375 -3.015625 C 1.734375 -3.128906 1.578125 -3.1875 1.390625 -3.1875 C 1.210938 -3.1875 1.070312 -3.140625 0.96875 -3.046875 C 0.863281 -2.960938 0.8125 -2.847656 0.8125 -2.703125 C 0.8125 -2.628906 0.820312 -2.5625 0.84375 -2.5 C 0.863281 -2.445312 0.898438 -2.394531 0.953125 -2.34375 C 1.003906 -2.300781 1.070312 -2.253906 1.15625 -2.203125 C 1.238281 -2.148438 1.34375 -2.09375 1.46875 -2.03125 C 1.6875 -1.9375 1.867188 -1.847656 2.015625 -1.765625 C 2.160156 -1.679688 2.273438 -1.597656 2.359375 -1.515625 C 2.441406 -1.429688 2.5 -1.34375 2.53125 -1.25 C 2.5625 -1.164062 2.578125 -1.066406 2.578125 -0.953125 C 2.578125 -0.804688 2.546875 -0.671875 2.484375 -0.546875 C 2.429688 -0.421875 2.351562 -0.3125 2.25 -0.21875 C 2.144531 -0.132812 2.019531 -0.0664062 1.875 -0.015625 C 1.726562 0.0234375 1.566406 0.046875 1.390625 0.046875 C 1.222656 0.046875 1.070312 0.0234375 0.9375 -0.015625 C 0.8125 -0.0664062 0.679688 -0.148438 0.546875 -0.265625 L 0.421875 -0.046875 L 0.3125 -0.046875 Z M 0.25 -1.03125 "/></g></g></g><g fill="#000000" fill-opacity="1"><g transform="translate(126.546917, 62.53292)"><g><path d="M 0.90625 -0.703125 C 0.90625 -0.578125 0.90625 -0.476562 0.90625 -0.40625 C 0.914062 -0.34375 0.929688 -0.289062 0.953125 -0.25 C 0.984375 -0.21875 1.019531 -0.191406 1.0625 -0.171875 C 1.113281 -0.160156 1.179688 -0.15625 1.265625 -0.15625 L 1.265625 0 L 0.109375 0 L 0.109375 -0.15625 C 0.191406 -0.15625 0.253906 -0.160156 0.296875 -0.171875 C 0.347656 -0.191406 0.382812 -0.21875 0.40625 -0.25 C 0.4375 -0.28125 0.457031 -0.328125 0.46875 -0.390625 C 0.476562 -0.460938 0.484375 -0.554688 0.484375 -0.671875 L 0.484375 -2.5 C 0.484375 -2.664062 0.476562 -2.800781 0.46875 -2.90625 C 0.46875 -3.007812 0.460938 -3.085938 0.453125 -3.140625 C 0.441406 -3.171875 0.429688 -3.195312 0.421875 -3.21875 C 0.410156 -3.25 0.390625 -3.269531 0.359375 -3.28125 C 0.335938 -3.289062 0.300781 -3.296875 0.25 -3.296875 C 0.207031 -3.304688 0.15625 -3.3125 0.09375 -3.3125 L 0.09375 -3.46875 L 0.90625 -3.625 L 0.90625 -1.96875 L 0.921875 -1.96875 C 0.960938 -2.019531 1.015625 -2.070312 1.078125 -2.125 C 1.148438 -2.175781 1.222656 -2.21875 1.296875 -2.25 C 1.367188 -2.28125 1.445312 -2.304688 1.53125 -2.328125 C 1.613281 -2.347656 1.695312 -2.359375 1.78125 -2.359375 C 1.914062 -2.359375 2.035156 -2.332031 2.140625 -2.28125 C 2.253906 -2.238281 2.34375 -2.179688 2.40625 -2.109375 C 2.457031 -2.035156 2.492188 -1.941406 2.515625 -1.828125 C 2.535156 -1.722656 2.546875 -1.578125 2.546875 -1.390625 L 2.546875 -0.703125 C 2.546875 -0.578125 2.546875 -0.476562 2.546875 -0.40625 C 2.554688 -0.34375 2.570312 -0.289062 2.59375 -0.25 C 2.625 -0.21875 2.660156 -0.191406 2.703125 -0.171875 C 2.753906 -0.160156 2.820312 -0.15625 2.90625 -0.15625 L 2.90625 0 L 1.75 0 L 1.75 -0.15625 C 1.832031 -0.15625 1.894531 -0.160156 1.9375 -0.171875 C 1.988281 -0.191406 2.023438 -0.21875 2.046875 -0.25 C 2.078125 -0.28125 2.097656 -0.328125 2.109375 -0.390625 C 2.117188 -0.460938 2.125 -0.554688 2.125 -0.671875 L 2.125 -1.21875 C 2.125 -1.539062 2.082031 -1.769531 2 -1.90625 C 1.925781 -2.050781 1.800781 -2.125 1.625 -2.125 C 1.488281 -2.125 1.363281 -2.085938 1.25 -2.015625 C 1.132812 -1.941406 1.046875 -1.847656 0.984375 -1.734375 C 0.972656 -1.703125 0.960938 -1.671875 0.953125 -1.640625 C 0.941406 -1.609375 0.929688 -1.570312 0.921875 -1.53125 C 0.921875 -1.5 0.914062 -1.460938 0.90625 -1.421875 C 0.90625 -1.378906 0.90625 -1.320312 0.90625 -1.25 Z M 0.90625 -0.703125 "/></g></g></g><g fill="#000000" fill-opacity="1"><g transform="translate(129.551941, 62.53292)"><g><path d="M 1.421875 -2.359375 C 1.585938 -2.359375 1.742188 -2.328125 1.890625 -2.265625 C 2.046875 -2.210938 2.175781 -2.132812 2.28125 -2.03125 C 2.394531 -1.925781 2.484375 -1.800781 2.546875 -1.65625 C 2.617188 -1.507812 2.65625 -1.347656 2.65625 -1.171875 C 2.65625 -0.992188 2.617188 -0.832031 2.546875 -0.6875 C 2.484375 -0.539062 2.394531 -0.410156 2.28125 -0.296875 C 2.175781 -0.191406 2.046875 -0.109375 1.890625 -0.046875 C 1.742188 0.015625 1.585938 0.046875 1.421875 0.046875 C 1.253906 0.046875 1.097656 0.015625 0.953125 -0.046875 C 0.804688 -0.109375 0.675781 -0.191406 0.5625 -0.296875 C 0.457031 -0.398438 0.367188 -0.523438 0.296875 -0.671875 C 0.234375 -0.828125 0.203125 -0.992188 0.203125 -1.171875 C 0.203125 -1.347656 0.234375 -1.507812 0.296875 -1.65625 C 0.367188 -1.800781 0.457031 -1.925781 0.5625 -2.03125 C 0.675781 -2.132812 0.804688 -2.210938 0.953125 -2.265625 C 1.097656 -2.328125 1.253906 -2.359375 1.421875 -2.359375 Z M 1.421875 -2.15625 C 1.316406 -2.15625 1.21875 -2.128906 1.125 -2.078125 C 1.039062 -2.035156 0.96875 -1.96875 0.90625 -1.875 C 0.84375 -1.789062 0.789062 -1.6875 0.75 -1.5625 C 0.71875 -1.445312 0.703125 -1.316406 0.703125 -1.171875 C 0.703125 -1.015625 0.71875 -0.875 0.75 -0.75 C 0.789062 -0.632812 0.84375 -0.53125 0.90625 -0.4375 C 0.96875 -0.351562 1.039062 -0.285156 1.125 -0.234375 C 1.207031 -0.191406 1.304688 -0.171875 1.421875 -0.171875 C 1.535156 -0.171875 1.632812 -0.191406 1.71875 -0.234375 C 1.8125 -0.285156 1.890625 -0.351562 1.953125 -0.4375 C 2.015625 -0.53125 2.0625 -0.640625 2.09375 -0.765625 C 2.132812 -0.890625 2.15625 -1.023438 2.15625 -1.171875 C 2.15625 -1.316406 2.132812 -1.445312 2.09375 -1.5625 C 2.0625 -1.6875 2.015625 -1.789062 1.953125 -1.875 C 1.890625 -1.96875 1.8125 -2.035156 1.71875 -2.078125 C 1.632812 -2.128906 1.535156 -2.15625 1.421875 -2.15625 Z M 1.421875 -2.15625 "/></g></g></g><g fill="#000000" fill-opacity="1"><g transform="translate(132.408454, 62.53292)"><g><path d="M 1.21875 0.046875 L 1.046875 0.046875 L 0.484375 -1.78125 C 0.460938 -1.863281 0.4375 -1.925781 0.40625 -1.96875 C 0.382812 -2.019531 0.359375 -2.0625 0.328125 -2.09375 C 0.296875 -2.125 0.257812 -2.144531 0.21875 -2.15625 C 0.175781 -2.164062 0.117188 -2.171875 0.046875 -2.171875 L 0.046875 -2.3125 L 1.21875 -2.3125 L 1.21875 -2.171875 C 1.101562 -2.171875 1.019531 -2.15625 0.96875 -2.125 C 0.925781 -2.101562 0.90625 -2.054688 0.90625 -1.984375 C 0.90625 -1.960938 0.90625 -1.929688 0.90625 -1.890625 C 0.914062 -1.847656 0.929688 -1.796875 0.953125 -1.734375 L 1.25 -0.703125 L 1.265625 -0.703125 L 1.90625 -2.3125 L 2.046875 -2.3125 L 2.625 -0.703125 L 2.640625 -0.703125 L 2.90625 -1.40625 C 2.9375 -1.5 2.960938 -1.578125 2.984375 -1.640625 C 3.015625 -1.710938 3.035156 -1.769531 3.046875 -1.8125 C 3.054688 -1.851562 3.0625 -1.890625 3.0625 -1.921875 C 3.070312 -1.953125 3.078125 -1.984375 3.078125 -2.015625 C 3.078125 -2.078125 3.054688 -2.117188 3.015625 -2.140625 C 2.984375 -2.160156 2.910156 -2.171875 2.796875 -2.171875 L 2.796875 -2.3125 L 3.671875 -2.3125 L 3.671875 -2.171875 C 3.617188 -2.171875 3.578125 -2.160156 3.546875 -2.140625 C 3.523438 -2.128906 3.5 -2.101562 3.46875 -2.0625 C 3.4375 -2.03125 3.40625 -1.976562 3.375 -1.90625 C 3.34375 -1.832031 3.300781 -1.738281 3.25 -1.625 L 2.578125 0.046875 L 2.40625 0.046875 L 1.875 -1.578125 L 1.859375 -1.578125 Z M 1.21875 0.046875 "/></g></g></g><g fill="#000000" fill-opacity="1"><g transform="translate(136.129787, 62.53292)"><g/></g></g><g fill="#000000" fill-opacity="1"><g transform="translate(137.383331, 62.53292)"><g><path d="M 3.015625 -3.375 L 3.140625 -3.375 L 3.171875 -2.359375 L 3.015625 -2.359375 C 2.953125 -2.617188 2.828125 -2.820312 2.640625 -2.96875 C 2.453125 -3.113281 2.234375 -3.1875 1.984375 -3.1875 C 1.796875 -3.1875 1.632812 -3.148438 1.5 -3.078125 C 1.363281 -3.003906 1.242188 -2.898438 1.140625 -2.765625 C 1.046875 -2.640625 0.972656 -2.484375 0.921875 -2.296875 C 0.867188 -2.109375 0.84375 -1.894531 0.84375 -1.65625 C 0.84375 -1.1875 0.941406 -0.820312 1.140625 -0.5625 C 1.335938 -0.3125 1.617188 -0.1875 1.984375 -0.1875 C 2.546875 -0.1875 2.910156 -0.488281 3.078125 -1.09375 L 3.25 -1.09375 L 3.25 0 L 3.109375 0 L 3 -0.34375 C 2.695312 -0.0820312 2.328125 0.046875 1.890625 0.046875 C 1.640625 0.046875 1.414062 0.0078125 1.21875 -0.0625 C 1.019531 -0.144531 0.847656 -0.257812 0.703125 -0.40625 C 0.566406 -0.550781 0.457031 -0.726562 0.375 -0.9375 C 0.300781 -1.144531 0.265625 -1.375 0.265625 -1.625 C 0.265625 -1.894531 0.300781 -2.140625 0.375 -2.359375 C 0.457031 -2.578125 0.570312 -2.765625 0.71875 -2.921875 C 0.875 -3.078125 1.050781 -3.195312 1.25 -3.28125 C 1.457031 -3.363281 1.6875 -3.40625 1.9375 -3.40625 C 2.113281 -3.40625 2.28125 -3.378906 2.4375 -3.328125 C 2.59375 -3.285156 2.757812 -3.207031 2.9375 -3.09375 Z M 3.015625 -3.375 "/></g></g></g><g fill="#000000" fill-opacity="1"><g transform="translate(140.886274, 62.53292)"><g><path d="M 1.421875 -2.359375 C 1.585938 -2.359375 1.742188 -2.328125 1.890625 -2.265625 C 2.046875 -2.210938 2.175781 -2.132812 2.28125 -2.03125 C 2.394531 -1.925781 2.484375 -1.800781 2.546875 -1.65625 C 2.617188 -1.507812 2.65625 -1.347656 2.65625 -1.171875 C 2.65625 -0.992188 2.617188 -0.832031 2.546875 -0.6875 C 2.484375 -0.539062 2.394531 -0.410156 2.28125 -0.296875 C 2.175781 -0.191406 2.046875 -0.109375 1.890625 -0.046875 C 1.742188 0.015625 1.585938 0.046875 1.421875 0.046875 C 1.253906 0.046875 1.097656 0.015625 0.953125 -0.046875 C 0.804688 -0.109375 0.675781 -0.191406 0.5625 -0.296875 C 0.457031 -0.398438 0.367188 -0.523438 0.296875 -0.671875 C 0.234375 -0.828125 0.203125 -0.992188 0.203125 -1.171875 C 0.203125 -1.347656 0.234375 -1.507812 0.296875 -1.65625 C 0.367188 -1.800781 0.457031 -1.925781 0.5625 -2.03125 C 0.675781 -2.132812 0.804688 -2.210938 0.953125 -2.265625 C 1.097656 -2.328125 1.253906 -2.359375 1.421875 -2.359375 Z M 1.421875 -2.15625 C 1.316406 -2.15625 1.21875 -2.128906 1.125 -2.078125 C 1.039062 -2.035156 0.96875 -1.96875 0.90625 -1.875 C 0.84375 -1.789062 0.789062 -1.6875 0.75 -1.5625 C 0.71875 -1.445312 0.703125 -1.316406 0.703125 -1.171875 C 0.703125 -1.015625 0.71875 -0.875 0.75 -0.75 C 0.789062 -0.632812 0.84375 -0.53125 0.90625 -0.4375 C 0.96875 -0.351562 1.039062 -0.285156 1.125 -0.234375 C 1.207031 -0.191406 1.304688 -0.171875 1.421875 -0.171875 C 1.535156 -0.171875 1.632812 -0.191406 1.71875 -0.234375 C 1.8125 -0.285156 1.890625 -0.351562 1.953125 -0.4375 C 2.015625 -0.53125 2.0625 -0.640625 2.09375 -0.765625 C 2.132812 -0.890625 2.15625 -1.023438 2.15625 -1.171875 C 2.15625 -1.316406 2.132812 -1.445312 2.09375 -1.5625 C 2.0625 -1.6875 2.015625 -1.789062 1.953125 -1.875 C 1.890625 -1.96875 1.8125 -2.035156 1.71875 -2.078125 C 1.632812 -2.128906 1.535156 -2.15625 1.421875 -2.15625 Z M 1.421875 -2.15625 "/></g></g></g><g fill="#000000" fill-opacity="1"><g transform="translate(143.742786, 62.53292)"><g><path d="M 0.96875 -0.703125 C 0.96875 -0.578125 0.96875 -0.476562 0.96875 -0.40625 C 0.976562 -0.34375 0.992188 -0.289062 1.015625 -0.25 C 1.046875 -0.21875 1.082031 -0.191406 1.125 -0.171875 C 1.175781 -0.160156 1.242188 -0.15625 1.328125 -0.15625 L 1.328125 0 L 0.15625 0 L 0.15625 -0.15625 C 0.238281 -0.15625 0.304688 -0.160156 0.359375 -0.171875 C 0.410156 -0.191406 0.445312 -0.21875 0.46875 -0.25 C 0.5 -0.28125 0.515625 -0.328125 0.515625 -0.390625 C 0.523438 -0.460938 0.53125 -0.554688 0.53125 -0.671875 L 0.53125 -1.21875 C 0.53125 -1.382812 0.53125 -1.523438 0.53125 -1.640625 C 0.53125 -1.753906 0.519531 -1.832031 0.5 -1.875 C 0.5 -1.90625 0.488281 -1.929688 0.46875 -1.953125 C 0.457031 -1.972656 0.4375 -1.988281 0.40625 -2 C 0.382812 -2.019531 0.351562 -2.03125 0.3125 -2.03125 C 0.269531 -2.039062 0.21875 -2.046875 0.15625 -2.046875 L 0.15625 -2.203125 L 0.859375 -2.359375 L 0.921875 -1.921875 L 0.9375 -1.921875 C 1.070312 -2.066406 1.210938 -2.175781 1.359375 -2.25 C 1.503906 -2.320312 1.664062 -2.359375 1.84375 -2.359375 C 2.019531 -2.359375 2.171875 -2.320312 2.296875 -2.25 C 2.421875 -2.175781 2.507812 -2.066406 2.5625 -1.921875 L 2.578125 -1.921875 C 2.691406 -2.066406 2.820312 -2.175781 2.96875 -2.25 C 3.125 -2.320312 3.289062 -2.359375 3.46875 -2.359375 C 3.601562 -2.359375 3.726562 -2.335938 3.84375 -2.296875 C 3.957031 -2.253906 4.039062 -2.191406 4.09375 -2.109375 C 4.144531 -2.046875 4.179688 -1.957031 4.203125 -1.84375 C 4.234375 -1.738281 4.25 -1.585938 4.25 -1.390625 L 4.25 -0.703125 C 4.25 -0.578125 4.25 -0.476562 4.25 -0.40625 C 4.257812 -0.34375 4.273438 -0.289062 4.296875 -0.25 C 4.316406 -0.21875 4.351562 -0.191406 4.40625 -0.171875 C 4.457031 -0.160156 4.523438 -0.15625 4.609375 -0.15625 L 4.609375 0 L 3.4375 0 L 3.4375 -0.15625 C 3.519531 -0.15625 3.585938 -0.160156 3.640625 -0.171875 C 3.691406 -0.191406 3.726562 -0.21875 3.75 -0.25 C 3.78125 -0.289062 3.796875 -0.34375 3.796875 -0.40625 C 3.804688 -0.46875 3.8125 -0.554688 3.8125 -0.671875 L 3.8125 -1.21875 C 3.8125 -1.382812 3.800781 -1.523438 3.78125 -1.640625 C 3.769531 -1.753906 3.742188 -1.847656 3.703125 -1.921875 C 3.660156 -1.992188 3.601562 -2.046875 3.53125 -2.078125 C 3.46875 -2.109375 3.390625 -2.125 3.296875 -2.125 C 3.171875 -2.125 3.050781 -2.085938 2.9375 -2.015625 C 2.832031 -1.941406 2.742188 -1.847656 2.671875 -1.734375 C 2.660156 -1.703125 2.648438 -1.671875 2.640625 -1.640625 C 2.628906 -1.609375 2.617188 -1.578125 2.609375 -1.546875 C 2.609375 -1.515625 2.609375 -1.472656 2.609375 -1.421875 C 2.609375 -1.378906 2.609375 -1.320312 2.609375 -1.25 L 2.609375 -0.703125 C 2.609375 -0.578125 2.609375 -0.476562 2.609375 -0.40625 C 2.617188 -0.34375 2.632812 -0.289062 2.65625 -0.25 C 2.675781 -0.21875 2.710938 -0.191406 2.765625 -0.171875 C 2.816406 -0.160156 2.882812 -0.15625 2.96875 -0.15625 L 2.96875 0 L 1.8125 0 L 1.8125 -0.15625 C 1.882812 -0.15625 1.945312 -0.160156 2 -0.171875 C 2.050781 -0.191406 2.085938 -0.21875 2.109375 -0.25 C 2.140625 -0.28125 2.15625 -0.328125 2.15625 -0.390625 C 2.164062 -0.460938 2.171875 -0.554688 2.171875 -0.671875 L 2.171875 -1.21875 C 2.171875 -1.382812 2.160156 -1.523438 2.140625 -1.640625 C 2.128906 -1.753906 2.101562 -1.847656 2.0625 -1.921875 C 2.019531 -1.992188 1.96875 -2.046875 1.90625 -2.078125 C 1.84375 -2.109375 1.765625 -2.125 1.671875 -2.125 C 1.535156 -2.125 1.410156 -2.085938 1.296875 -2.015625 C 1.179688 -1.941406 1.097656 -1.847656 1.046875 -1.734375 C 1.023438 -1.703125 1.007812 -1.671875 1 -1.640625 C 0.988281 -1.609375 0.976562 -1.578125 0.96875 -1.546875 C 0.96875 -1.515625 0.96875 -1.472656 0.96875 -1.421875 C 0.96875 -1.378906 0.96875 -1.320312 0.96875 -1.25 Z M 0.96875 -0.703125 "/></g></g></g><g fill="#000000" fill-opacity="1"><g transform="translate(148.429393, 62.53292)"><g><path d="M 0.921875 -2 L 0.9375 -2 C 1.03125 -2.113281 1.128906 -2.203125 1.234375 -2.265625 C 1.347656 -2.328125 1.472656 -2.359375 1.609375 -2.359375 C 1.773438 -2.359375 1.925781 -2.328125 2.0625 -2.265625 C 2.207031 -2.210938 2.328125 -2.128906 2.421875 -2.015625 C 2.523438 -1.910156 2.601562 -1.785156 2.65625 -1.640625 C 2.71875 -1.492188 2.75 -1.332031 2.75 -1.15625 C 2.75 -0.976562 2.71875 -0.816406 2.65625 -0.671875 C 2.601562 -0.523438 2.523438 -0.394531 2.421875 -0.28125 C 2.328125 -0.175781 2.207031 -0.09375 2.0625 -0.03125 C 1.925781 0.0195312 1.773438 0.046875 1.609375 0.046875 C 1.472656 0.046875 1.347656 0.0234375 1.234375 -0.015625 C 1.128906 -0.0664062 1.03125 -0.144531 0.9375 -0.25 L 0.9375 0.390625 C 0.9375 0.503906 0.941406 0.597656 0.953125 0.671875 C 0.960938 0.742188 0.984375 0.796875 1.015625 0.828125 C 1.054688 0.867188 1.109375 0.894531 1.171875 0.90625 C 1.234375 0.925781 1.320312 0.9375 1.4375 0.9375 L 1.4375 1.09375 L 0.09375 1.09375 L 0.09375 0.9375 C 0.175781 0.9375 0.242188 0.925781 0.296875 0.90625 C 0.347656 0.894531 0.390625 0.867188 0.421875 0.828125 C 0.453125 0.796875 0.472656 0.742188 0.484375 0.671875 C 0.492188 0.609375 0.5 0.523438 0.5 0.421875 L 0.5 -1.21875 C 0.5 -1.382812 0.5 -1.519531 0.5 -1.625 C 0.5 -1.738281 0.492188 -1.8125 0.484375 -1.84375 C 0.460938 -1.914062 0.425781 -1.960938 0.375 -1.984375 C 0.320312 -2.015625 0.222656 -2.03125 0.078125 -2.03125 L 0.078125 -2.171875 L 0.921875 -2.34375 Z M 1.046875 -1.875 C 1.015625 -1.820312 0.988281 -1.753906 0.96875 -1.671875 C 0.945312 -1.585938 0.9375 -1.484375 0.9375 -1.359375 L 0.9375 -1.015625 C 0.9375 -0.929688 0.9375 -0.859375 0.9375 -0.796875 C 0.945312 -0.742188 0.953125 -0.695312 0.953125 -0.65625 C 0.960938 -0.625 0.972656 -0.585938 0.984375 -0.546875 C 1.003906 -0.515625 1.023438 -0.488281 1.046875 -0.46875 C 1.117188 -0.375 1.203125 -0.300781 1.296875 -0.25 C 1.390625 -0.195312 1.488281 -0.171875 1.59375 -0.171875 C 1.789062 -0.171875 1.953125 -0.253906 2.078125 -0.421875 C 2.203125 -0.585938 2.265625 -0.828125 2.265625 -1.140625 C 2.265625 -1.285156 2.242188 -1.421875 2.203125 -1.546875 C 2.171875 -1.671875 2.125 -1.773438 2.0625 -1.859375 C 2.007812 -1.953125 1.9375 -2.023438 1.84375 -2.078125 C 1.757812 -2.128906 1.664062 -2.15625 1.5625 -2.15625 C 1.457031 -2.15625 1.359375 -2.128906 1.265625 -2.078125 C 1.179688 -2.035156 1.109375 -1.96875 1.046875 -1.875 Z M 1.046875 -1.875 "/></g></g></g><g fill="#000000" fill-opacity="1"><g transform="translate(151.395101, 62.53292)"><g><path d="M 0.921875 -0.6875 C 0.921875 -0.570312 0.921875 -0.476562 0.921875 -0.40625 C 0.929688 -0.34375 0.953125 -0.289062 0.984375 -0.25 C 1.015625 -0.21875 1.050781 -0.191406 1.09375 -0.171875 C 1.144531 -0.160156 1.210938 -0.15625 1.296875 -0.15625 L 1.296875 0 L 0.09375 0 L 0.09375 -0.15625 C 0.1875 -0.15625 0.257812 -0.160156 0.3125 -0.171875 C 0.363281 -0.191406 0.40625 -0.21875 0.4375 -0.25 C 0.46875 -0.289062 0.484375 -0.34375 0.484375 -0.40625 C 0.492188 -0.46875 0.5 -0.550781 0.5 -0.65625 L 0.5 -2.53125 C 0.5 -2.695312 0.5 -2.832031 0.5 -2.9375 C 0.5 -3.039062 0.492188 -3.113281 0.484375 -3.15625 C 0.460938 -3.21875 0.425781 -3.257812 0.375 -3.28125 C 0.320312 -3.3125 0.226562 -3.328125 0.09375 -3.328125 L 0.09375 -3.46875 L 0.921875 -3.625 Z M 0.921875 -0.6875 "/></g></g></g><g fill="#000000" fill-opacity="1"><g transform="translate(152.814624, 62.53292)"><g><path d="M 2.28125 -0.40625 C 2.03125 -0.101562 1.722656 0.046875 1.359375 0.046875 C 1.191406 0.046875 1.035156 0.0195312 0.890625 -0.03125 C 0.753906 -0.09375 0.632812 -0.175781 0.53125 -0.28125 C 0.425781 -0.382812 0.347656 -0.507812 0.296875 -0.65625 C 0.242188 -0.800781 0.21875 -0.960938 0.21875 -1.140625 C 0.21875 -1.316406 0.242188 -1.476562 0.296875 -1.625 C 0.359375 -1.78125 0.441406 -1.910156 0.546875 -2.015625 C 0.648438 -2.117188 0.773438 -2.203125 0.921875 -2.265625 C 1.078125 -2.328125 1.238281 -2.359375 1.40625 -2.359375 C 1.695312 -2.359375 1.914062 -2.28125 2.0625 -2.125 C 2.21875 -1.976562 2.296875 -1.757812 2.296875 -1.46875 C 2.296875 -1.425781 2.285156 -1.398438 2.265625 -1.390625 C 2.253906 -1.390625 2.222656 -1.390625 2.171875 -1.390625 L 0.71875 -1.390625 C 0.71875 -1.367188 0.710938 -1.335938 0.703125 -1.296875 C 0.703125 -1.265625 0.703125 -1.226562 0.703125 -1.1875 C 0.703125 -1.039062 0.71875 -0.90625 0.75 -0.78125 C 0.789062 -0.65625 0.847656 -0.546875 0.921875 -0.453125 C 0.992188 -0.367188 1.078125 -0.300781 1.171875 -0.25 C 1.265625 -0.207031 1.367188 -0.1875 1.484375 -0.1875 C 1.609375 -0.1875 1.722656 -0.210938 1.828125 -0.265625 C 1.929688 -0.316406 2.035156 -0.40625 2.140625 -0.53125 Z M 1.5625 -1.59375 C 1.625 -1.59375 1.671875 -1.59375 1.703125 -1.59375 C 1.734375 -1.59375 1.757812 -1.597656 1.78125 -1.609375 C 1.800781 -1.617188 1.8125 -1.628906 1.8125 -1.640625 C 1.820312 -1.660156 1.828125 -1.679688 1.828125 -1.703125 C 1.828125 -1.835938 1.78125 -1.945312 1.6875 -2.03125 C 1.601562 -2.113281 1.488281 -2.15625 1.34375 -2.15625 C 1.03125 -2.15625 0.832031 -1.96875 0.75 -1.59375 Z M 1.5625 -1.59375 "/></g></g></g><g fill="#000000" fill-opacity="1"><g transform="translate(155.317349, 62.53292)"><g><path d="M 0.171875 -2.046875 L 0.171875 -2.203125 C 0.328125 -2.296875 0.445312 -2.382812 0.53125 -2.46875 C 0.625 -2.5625 0.691406 -2.671875 0.734375 -2.796875 L 0.859375 -2.796875 L 0.859375 -2.25 L 1.453125 -2.25 L 1.453125 -2.046875 L 0.859375 -2.046875 L 0.859375 -0.71875 C 0.859375 -0.613281 0.863281 -0.523438 0.875 -0.453125 C 0.882812 -0.378906 0.898438 -0.320312 0.921875 -0.28125 C 0.953125 -0.238281 0.984375 -0.207031 1.015625 -0.1875 C 1.054688 -0.175781 1.109375 -0.171875 1.171875 -0.171875 C 1.242188 -0.171875 1.304688 -0.1875 1.359375 -0.21875 C 1.410156 -0.25 1.457031 -0.300781 1.5 -0.375 L 1.609375 -0.28125 C 1.566406 -0.175781 1.492188 -0.09375 1.390625 -0.03125 C 1.296875 0.0195312 1.175781 0.046875 1.03125 0.046875 C 0.832031 0.046875 0.679688 0 0.578125 -0.09375 C 0.484375 -0.1875 0.4375 -0.316406 0.4375 -0.484375 L 0.4375 -2.046875 Z M 0.171875 -2.046875 "/></g></g></g><g fill="#000000" fill-opacity="1"><g transform="translate(156.968359, 62.53292)"><g><path d="M 2.28125 -0.40625 C 2.03125 -0.101562 1.722656 0.046875 1.359375 0.046875 C 1.191406 0.046875 1.035156 0.0195312 0.890625 -0.03125 C 0.753906 -0.09375 0.632812 -0.175781 0.53125 -0.28125 C 0.425781 -0.382812 0.347656 -0.507812 0.296875 -0.65625 C 0.242188 -0.800781 0.21875 -0.960938 0.21875 -1.140625 C 0.21875 -1.316406 0.242188 -1.476562 0.296875 -1.625 C 0.359375 -1.78125 0.441406 -1.910156 0.546875 -2.015625 C 0.648438 -2.117188 0.773438 -2.203125 0.921875 -2.265625 C 1.078125 -2.328125 1.238281 -2.359375 1.40625 -2.359375 C 1.695312 -2.359375 1.914062 -2.28125 2.0625 -2.125 C 2.21875 -1.976562 2.296875 -1.757812 2.296875 -1.46875 C 2.296875 -1.425781 2.285156 -1.398438 2.265625 -1.390625 C 2.253906 -1.390625 2.222656 -1.390625 2.171875 -1.390625 L 0.71875 -1.390625 C 0.71875 -1.367188 0.710938 -1.335938 0.703125 -1.296875 C 0.703125 -1.265625 0.703125 -1.226562 0.703125 -1.1875 C 0.703125 -1.039062 0.71875 -0.90625 0.75 -0.78125 C 0.789062 -0.65625 0.847656 -0.546875 0.921875 -0.453125 C 0.992188 -0.367188 1.078125 -0.300781 1.171875 -0.25 C 1.265625 -0.207031 1.367188 -0.1875 1.484375 -0.1875 C 1.609375 -0.1875 1.722656 -0.210938 1.828125 -0.265625 C 1.929688 -0.316406 2.035156 -0.40625 2.140625 -0.53125 Z M 1.5625 -1.59375 C 1.625 -1.59375 1.671875 -1.59375 1.703125 -1.59375 C 1.734375 -1.59375 1.757812 -1.597656 1.78125 -1.609375 C 1.800781 -1.617188 1.8125 -1.628906 1.8125 -1.640625 C 1.820312 -1.660156 1.828125 -1.679688 1.828125 -1.703125 C 1.828125 -1.835938 1.78125 -1.945312 1.6875 -2.03125 C 1.601562 -2.113281 1.488281 -2.15625 1.34375 -2.15625 C 1.03125 -2.15625 0.832031 -1.96875 0.75 -1.59375 Z M 1.5625 -1.59375 "/></g></g></g><g fill="#000000" fill-opacity="1"><g transform="translate(159.471084, 62.53292)"><g><path d="M 2.125 -0.375 L 2.09375 -0.375 C 1.988281 -0.21875 1.878906 -0.109375 1.765625 -0.046875 C 1.648438 0.015625 1.507812 0.046875 1.34375 0.046875 C 1.175781 0.046875 1.023438 0.015625 0.890625 -0.046875 C 0.753906 -0.109375 0.632812 -0.191406 0.53125 -0.296875 C 0.425781 -0.398438 0.34375 -0.523438 0.28125 -0.671875 C 0.226562 -0.828125 0.203125 -0.988281 0.203125 -1.15625 C 0.203125 -1.332031 0.226562 -1.492188 0.28125 -1.640625 C 0.34375 -1.785156 0.425781 -1.910156 0.53125 -2.015625 C 0.632812 -2.128906 0.753906 -2.210938 0.890625 -2.265625 C 1.035156 -2.328125 1.1875 -2.359375 1.34375 -2.359375 C 1.488281 -2.359375 1.613281 -2.332031 1.71875 -2.28125 C 1.832031 -2.238281 1.9375 -2.164062 2.03125 -2.0625 L 2.03125 -2.515625 C 2.03125 -2.679688 2.03125 -2.816406 2.03125 -2.921875 C 2.03125 -3.035156 2.023438 -3.113281 2.015625 -3.15625 C 1.992188 -3.21875 1.953125 -3.257812 1.890625 -3.28125 C 1.828125 -3.3125 1.71875 -3.328125 1.5625 -3.328125 L 1.5625 -3.46875 L 2.453125 -3.625 L 2.453125 -1.109375 C 2.453125 -0.910156 2.453125 -0.742188 2.453125 -0.609375 C 2.460938 -0.484375 2.472656 -0.390625 2.484375 -0.328125 C 2.492188 -0.296875 2.503906 -0.265625 2.515625 -0.234375 C 2.535156 -0.210938 2.554688 -0.195312 2.578125 -0.1875 C 2.597656 -0.175781 2.628906 -0.164062 2.671875 -0.15625 C 2.722656 -0.15625 2.78125 -0.15625 2.84375 -0.15625 L 2.84375 0 L 2.125 0.046875 Z M 2.03125 -1.328125 C 2.03125 -1.484375 2.019531 -1.597656 2 -1.671875 C 1.988281 -1.753906 1.957031 -1.828125 1.90625 -1.890625 C 1.84375 -1.972656 1.757812 -2.035156 1.65625 -2.078125 C 1.550781 -2.128906 1.445312 -2.15625 1.34375 -2.15625 C 1.132812 -2.15625 0.972656 -2.066406 0.859375 -1.890625 C 0.753906 -1.710938 0.703125 -1.476562 0.703125 -1.1875 C 0.703125 -1.03125 0.710938 -0.890625 0.734375 -0.765625 C 0.765625 -0.640625 0.804688 -0.53125 0.859375 -0.4375 C 0.921875 -0.351562 0.988281 -0.285156 1.0625 -0.234375 C 1.144531 -0.191406 1.238281 -0.171875 1.34375 -0.171875 C 1.394531 -0.171875 1.445312 -0.175781 1.5 -0.1875 C 1.5625 -0.195312 1.613281 -0.210938 1.65625 -0.234375 C 1.707031 -0.265625 1.753906 -0.296875 1.796875 -0.328125 C 1.847656 -0.359375 1.890625 -0.394531 1.921875 -0.4375 C 1.960938 -0.5 1.988281 -0.578125 2 -0.671875 C 2.019531 -0.765625 2.03125 -0.890625 2.03125 -1.046875 Z M 2.03125 -1.328125 "/></g></g></g><g fill="#000000" fill-opacity="1"><g transform="translate(162.419324, 62.53292)"><g/></g></g><g fill="#000000" fill-opacity="1"><g transform="translate(163.672868, 62.53292)"><g><path d="M 3.4375 -2.53125 L 3.265625 -2.53125 C 3.253906 -2.65625 3.234375 -2.757812 3.203125 -2.84375 C 3.171875 -2.925781 3.125 -2.992188 3.0625 -3.046875 C 3 -3.097656 2.921875 -3.132812 2.828125 -3.15625 C 2.742188 -3.175781 2.640625 -3.1875 2.515625 -3.1875 C 2.398438 -3.1875 2.3125 -3.179688 2.25 -3.171875 C 2.1875 -3.171875 2.132812 -3.160156 2.09375 -3.140625 C 2.0625 -3.128906 2.039062 -3.113281 2.03125 -3.09375 C 2.019531 -3.082031 2.015625 -3.066406 2.015625 -3.046875 L 2.015625 -0.703125 C 2.015625 -0.609375 2.019531 -0.523438 2.03125 -0.453125 C 2.050781 -0.390625 2.078125 -0.335938 2.109375 -0.296875 C 2.148438 -0.253906 2.207031 -0.222656 2.28125 -0.203125 C 2.351562 -0.179688 2.453125 -0.171875 2.578125 -0.171875 L 2.578125 0 L 0.921875 0 L 0.921875 -0.171875 C 1.046875 -0.171875 1.144531 -0.179688 1.21875 -0.203125 C 1.300781 -0.222656 1.359375 -0.253906 1.390625 -0.296875 C 1.429688 -0.335938 1.457031 -0.390625 1.46875 -0.453125 C 1.488281 -0.523438 1.5 -0.609375 1.5 -0.703125 L 1.5 -3.046875 C 1.5 -3.066406 1.492188 -3.082031 1.484375 -3.09375 C 1.472656 -3.113281 1.453125 -3.128906 1.421875 -3.140625 C 1.390625 -3.160156 1.34375 -3.171875 1.28125 -3.171875 C 1.226562 -3.179688 1.15625 -3.1875 1.0625 -3.1875 C 0.945312 -3.1875 0.84375 -3.179688 0.75 -3.171875 C 0.65625 -3.160156 0.570312 -3.132812 0.5 -3.09375 C 0.425781 -3.050781 0.367188 -2.984375 0.328125 -2.890625 C 0.285156 -2.804688 0.257812 -2.6875 0.25 -2.53125 L 0.09375 -2.53125 L 0.09375 -3.375 L 3.390625 -3.375 Z M 3.4375 -2.53125 "/></g></g></g><g fill="#000000" fill-opacity="1"><g transform="translate(167.180182, 62.53292)"><g><path d="M 1.53125 -1.296875 C 1.363281 -1.234375 1.222656 -1.171875 1.109375 -1.109375 C 0.992188 -1.046875 0.898438 -0.984375 0.828125 -0.921875 C 0.753906 -0.859375 0.703125 -0.796875 0.671875 -0.734375 C 0.640625 -0.671875 0.625 -0.609375 0.625 -0.546875 C 0.625 -0.453125 0.65625 -0.375 0.71875 -0.3125 C 0.789062 -0.25 0.878906 -0.21875 0.984375 -0.21875 C 1.054688 -0.21875 1.125 -0.238281 1.1875 -0.28125 C 1.257812 -0.320312 1.316406 -0.375 1.359375 -0.4375 C 1.410156 -0.5 1.453125 -0.570312 1.484375 -0.65625 C 1.515625 -0.75 1.53125 -0.847656 1.53125 -0.953125 Z M 1.53125 -1.484375 L 1.53125 -1.65625 C 1.53125 -2.019531 1.378906 -2.203125 1.078125 -2.203125 C 1.023438 -2.203125 0.976562 -2.195312 0.9375 -2.1875 C 0.90625 -2.175781 0.878906 -2.160156 0.859375 -2.140625 C 0.835938 -2.117188 0.816406 -2.085938 0.796875 -2.046875 C 0.773438 -2.015625 0.753906 -1.96875 0.734375 -1.90625 C 0.703125 -1.820312 0.671875 -1.765625 0.640625 -1.734375 C 0.609375 -1.710938 0.566406 -1.703125 0.515625 -1.703125 C 0.367188 -1.703125 0.296875 -1.773438 0.296875 -1.921875 C 0.296875 -2.054688 0.367188 -2.160156 0.515625 -2.234375 C 0.660156 -2.316406 0.875 -2.359375 1.15625 -2.359375 C 1.445312 -2.359375 1.648438 -2.304688 1.765625 -2.203125 C 1.890625 -2.097656 1.953125 -1.925781 1.953125 -1.6875 L 1.953125 -0.703125 C 1.953125 -0.367188 2.019531 -0.203125 2.15625 -0.203125 C 2.195312 -0.203125 2.234375 -0.207031 2.265625 -0.21875 C 2.304688 -0.226562 2.335938 -0.253906 2.359375 -0.296875 L 2.421875 -0.1875 C 2.390625 -0.125 2.328125 -0.0664062 2.234375 -0.015625 C 2.140625 0.0234375 2.039062 0.046875 1.9375 0.046875 C 1.8125 0.046875 1.71875 0.00390625 1.65625 -0.078125 C 1.59375 -0.160156 1.5625 -0.273438 1.5625 -0.421875 L 1.546875 -0.421875 C 1.460938 -0.273438 1.351562 -0.160156 1.21875 -0.078125 C 1.09375 0.00390625 0.945312 0.046875 0.78125 0.046875 C 0.59375 0.046875 0.445312 0 0.34375 -0.09375 C 0.238281 -0.1875 0.1875 -0.316406 0.1875 -0.484375 C 0.1875 -0.546875 0.195312 -0.609375 0.21875 -0.671875 C 0.25 -0.742188 0.289062 -0.804688 0.34375 -0.859375 C 0.394531 -0.921875 0.46875 -0.976562 0.5625 -1.03125 C 0.65625 -1.09375 0.765625 -1.148438 0.890625 -1.203125 Z M 1.53125 -1.484375 "/></g></g></g><g fill="#000000" fill-opacity="1"><g transform="translate(169.599922, 62.53292)"><g><path d="M 0.375 0 L 0.28125 0 L 0.28125 -0.75 L 0.390625 -0.75 C 0.503906 -0.34375 0.710938 -0.140625 1.015625 -0.140625 C 1.128906 -0.140625 1.21875 -0.164062 1.28125 -0.21875 C 1.351562 -0.28125 1.390625 -0.367188 1.390625 -0.484375 C 1.390625 -0.523438 1.382812 -0.5625 1.375 -0.59375 C 1.363281 -0.625 1.335938 -0.65625 1.296875 -0.6875 C 1.265625 -0.71875 1.210938 -0.753906 1.140625 -0.796875 C 1.078125 -0.847656 0.992188 -0.90625 0.890625 -0.96875 C 0.785156 -1.03125 0.695312 -1.085938 0.625 -1.140625 C 0.550781 -1.191406 0.488281 -1.242188 0.4375 -1.296875 C 0.394531 -1.347656 0.359375 -1.40625 0.328125 -1.46875 C 0.304688 -1.53125 0.296875 -1.601562 0.296875 -1.6875 C 0.296875 -1.789062 0.3125 -1.882812 0.34375 -1.96875 C 0.375 -2.050781 0.414062 -2.117188 0.46875 -2.171875 C 0.53125 -2.234375 0.601562 -2.28125 0.6875 -2.3125 C 0.769531 -2.34375 0.851562 -2.359375 0.9375 -2.359375 C 1.019531 -2.359375 1.101562 -2.34375 1.1875 -2.3125 C 1.269531 -2.289062 1.34375 -2.265625 1.40625 -2.234375 L 1.5 -2.3125 L 1.578125 -2.3125 L 1.578125 -1.6875 L 1.46875 -1.6875 C 1.40625 -1.863281 1.332031 -1.988281 1.25 -2.0625 C 1.175781 -2.144531 1.085938 -2.1875 0.984375 -2.1875 C 0.878906 -2.1875 0.796875 -2.160156 0.734375 -2.109375 C 0.679688 -2.054688 0.65625 -1.984375 0.65625 -1.890625 C 0.65625 -1.835938 0.660156 -1.789062 0.671875 -1.75 C 0.691406 -1.71875 0.71875 -1.679688 0.75 -1.640625 C 0.789062 -1.609375 0.835938 -1.570312 0.890625 -1.53125 C 0.941406 -1.5 1.003906 -1.460938 1.078125 -1.421875 C 1.203125 -1.335938 1.304688 -1.265625 1.390625 -1.203125 C 1.484375 -1.140625 1.554688 -1.078125 1.609375 -1.015625 C 1.671875 -0.960938 1.710938 -0.90625 1.734375 -0.84375 C 1.765625 -0.78125 1.78125 -0.707031 1.78125 -0.625 C 1.78125 -0.414062 1.710938 -0.25 1.578125 -0.125 C 1.441406 -0.0078125 1.265625 0.046875 1.046875 0.046875 C 0.816406 0.046875 0.625 -0.0195312 0.46875 -0.15625 Z M 0.375 0 "/></g></g></g><g fill="#000000" fill-opacity="1"><g transform="translate(171.582889, 62.53292)"><g><path d="M 1.515625 -0.15625 C 1.617188 -0.15625 1.6875 -0.15625 1.71875 -0.15625 C 1.757812 -0.164062 1.78125 -0.179688 1.78125 -0.203125 C 1.769531 -0.222656 1.742188 -0.265625 1.703125 -0.328125 C 1.660156 -0.390625 1.601562 -0.460938 1.53125 -0.546875 L 1.078125 -1.109375 L 0.90625 -0.953125 L 0.90625 -0.703125 C 0.90625 -0.585938 0.910156 -0.492188 0.921875 -0.421875 C 0.929688 -0.347656 0.953125 -0.289062 0.984375 -0.25 C 1.015625 -0.21875 1.054688 -0.191406 1.109375 -0.171875 C 1.160156 -0.160156 1.226562 -0.15625 1.3125 -0.15625 L 1.3125 0 L 0.078125 0 L 0.078125 -0.15625 C 0.160156 -0.15625 0.226562 -0.160156 0.28125 -0.171875 C 0.34375 -0.191406 0.382812 -0.21875 0.40625 -0.25 C 0.4375 -0.289062 0.457031 -0.34375 0.46875 -0.40625 C 0.488281 -0.46875 0.5 -0.554688 0.5 -0.671875 L 0.5 -2.5 C 0.5 -2.71875 0.492188 -2.882812 0.484375 -3 C 0.484375 -3.113281 0.46875 -3.191406 0.4375 -3.234375 C 0.414062 -3.273438 0.375 -3.296875 0.3125 -3.296875 C 0.25 -3.304688 0.164062 -3.3125 0.0625 -3.3125 L 0.0625 -3.46875 L 0.90625 -3.625 L 0.90625 -1.234375 L 1.3125 -1.625 C 1.445312 -1.757812 1.546875 -1.859375 1.609375 -1.921875 C 1.671875 -1.984375 1.703125 -2.03125 1.703125 -2.0625 C 1.703125 -2.09375 1.671875 -2.117188 1.609375 -2.140625 C 1.546875 -2.160156 1.460938 -2.171875 1.359375 -2.171875 L 1.359375 -2.3125 L 2.484375 -2.3125 L 2.484375 -2.171875 C 2.429688 -2.171875 2.382812 -2.164062 2.34375 -2.15625 C 2.300781 -2.144531 2.257812 -2.128906 2.21875 -2.109375 C 2.1875 -2.097656 2.148438 -2.078125 2.109375 -2.046875 C 2.066406 -2.015625 2.019531 -1.976562 1.96875 -1.9375 L 1.34375 -1.375 L 2.203125 -0.390625 C 2.242188 -0.335938 2.28125 -0.296875 2.3125 -0.265625 C 2.351562 -0.242188 2.390625 -0.222656 2.421875 -0.203125 C 2.453125 -0.179688 2.488281 -0.164062 2.53125 -0.15625 C 2.570312 -0.15625 2.617188 -0.15625 2.671875 -0.15625 L 2.671875 0 L 1.515625 0 Z M 1.515625 -0.15625 "/></g></g></g><g fill="#000000" fill-opacity="1"><g transform="translate(174.273432, 62.53292)"><g><path d="M 0.375 0 L 0.28125 0 L 0.28125 -0.75 L 0.390625 -0.75 C 0.503906 -0.34375 0.710938 -0.140625 1.015625 -0.140625 C 1.128906 -0.140625 1.21875 -0.164062 1.28125 -0.21875 C 1.351562 -0.28125 1.390625 -0.367188 1.390625 -0.484375 C 1.390625 -0.523438 1.382812 -0.5625 1.375 -0.59375 C 1.363281 -0.625 1.335938 -0.65625 1.296875 -0.6875 C 1.265625 -0.71875 1.210938 -0.753906 1.140625 -0.796875 C 1.078125 -0.847656 0.992188 -0.90625 0.890625 -0.96875 C 0.785156 -1.03125 0.695312 -1.085938 0.625 -1.140625 C 0.550781 -1.191406 0.488281 -1.242188 0.4375 -1.296875 C 0.394531 -1.347656 0.359375 -1.40625 0.328125 -1.46875 C 0.304688 -1.53125 0.296875 -1.601562 0.296875 -1.6875 C 0.296875 -1.789062 0.3125 -1.882812 0.34375 -1.96875 C 0.375 -2.050781 0.414062 -2.117188 0.46875 -2.171875 C 0.53125 -2.234375 0.601562 -2.28125 0.6875 -2.3125 C 0.769531 -2.34375 0.851562 -2.359375 0.9375 -2.359375 C 1.019531 -2.359375 1.101562 -2.34375 1.1875 -2.3125 C 1.269531 -2.289062 1.34375 -2.265625 1.40625 -2.234375 L 1.5 -2.3125 L 1.578125 -2.3125 L 1.578125 -1.6875 L 1.46875 -1.6875 C 1.40625 -1.863281 1.332031 -1.988281 1.25 -2.0625 C 1.175781 -2.144531 1.085938 -2.1875 0.984375 -2.1875 C 0.878906 -2.1875 0.796875 -2.160156 0.734375 -2.109375 C 0.679688 -2.054688 0.65625 -1.984375 0.65625 -1.890625 C 0.65625 -1.835938 0.660156 -1.789062 0.671875 -1.75 C 0.691406 -1.71875 0.71875 -1.679688 0.75 -1.640625 C 0.789062 -1.609375 0.835938 -1.570312 0.890625 -1.53125 C 0.941406 -1.5 1.003906 -1.460938 1.078125 -1.421875 C 1.203125 -1.335938 1.304688 -1.265625 1.390625 -1.203125 C 1.484375 -1.140625 1.554688 -1.078125 1.609375 -1.015625 C 1.671875 -0.960938 1.710938 -0.90625 1.734375 -0.84375 C 1.765625 -0.78125 1.78125 -0.707031 1.78125 -0.625 C 1.78125 -0.414062 1.710938 -0.25 1.578125 -0.125 C 1.441406 -0.0078125 1.265625 0.046875 1.046875 0.046875 C 0.816406 0.046875 0.625 -0.0195312 0.46875 -0.15625 Z M 0.375 0 "/></g></g></g><g clip-path="url(#fd90dca18f)"><g clip-path="url(#a280b08085)"><path fill="#d64fa4" d="M 60.574219 22.945312 L 239.488281 22.945312 L 239.488281 81.214844 L 60.574219 81.214844 Z M 60.574219 22.945312 " fill-opacity="1" fill-rule="nonzero"/></g></g><g fill="#000000" fill-opacity="1"><g transform="translate(105.52625, 58.247184)"><g><path d="M 8.96875 -1.53125 C 8.476562 -0.957031 7.914062 -0.53125 7.28125 -0.25 C 6.644531 0.03125 5.941406 0.164062 5.171875 0.15625 C 4.691406 0.15625 4.25 0.0859375 3.84375 -0.046875 C 3.4375 -0.191406 3.070312 -0.390625 2.75 -0.640625 C 2.4375 -0.890625 2.15625 -1.179688 1.90625 -1.515625 C 1.664062 -1.859375 1.460938 -2.226562 1.296875 -2.625 C 1.140625 -3.019531 1.019531 -3.429688 0.9375 -3.859375 C 0.851562 -4.296875 0.804688 -4.734375 0.796875 -5.171875 L 0.796875 -6.53125 C 0.804688 -6.96875 0.847656 -7.398438 0.921875 -7.828125 C 0.992188 -8.253906 1.101562 -8.664062 1.25 -9.0625 C 1.40625 -9.46875 1.59375 -9.835938 1.8125 -10.171875 C 2.039062 -10.515625 2.3125 -10.8125 2.625 -11.0625 C 2.9375 -11.3125 3.289062 -11.507812 3.6875 -11.65625 C 4.082031 -11.800781 4.53125 -11.875 5.03125 -11.875 C 5.570312 -11.875 6.070312 -11.785156 6.53125 -11.609375 C 7 -11.441406 7.40625 -11.203125 7.75 -10.890625 C 8.09375 -10.578125 8.367188 -10.195312 8.578125 -9.75 C 8.785156 -9.3125 8.910156 -8.820312 8.953125 -8.28125 L 7.484375 -8.28125 C 7.421875 -8.613281 7.328125 -8.921875 7.203125 -9.203125 C 7.085938 -9.492188 6.925781 -9.738281 6.71875 -9.9375 C 6.519531 -10.144531 6.28125 -10.304688 6 -10.421875 C 5.726562 -10.535156 5.40625 -10.59375 5.03125 -10.59375 C 4.675781 -10.59375 4.363281 -10.53125 4.09375 -10.40625 C 3.820312 -10.289062 3.582031 -10.128906 3.375 -9.921875 C 3.175781 -9.722656 3.007812 -9.488281 2.875 -9.21875 C 2.738281 -8.945312 2.625 -8.660156 2.53125 -8.359375 C 2.445312 -8.054688 2.382812 -7.75 2.34375 -7.4375 C 2.3125 -7.132812 2.296875 -6.835938 2.296875 -6.546875 L 2.296875 -5.171875 C 2.304688 -4.878906 2.332031 -4.570312 2.375 -4.25 C 2.414062 -3.9375 2.484375 -3.628906 2.578125 -3.328125 C 2.679688 -3.035156 2.804688 -2.753906 2.953125 -2.484375 C 3.109375 -2.210938 3.289062 -1.972656 3.5 -1.765625 C 3.707031 -1.566406 3.953125 -1.40625 4.234375 -1.28125 C 4.515625 -1.164062 4.832031 -1.109375 5.1875 -1.109375 C 5.394531 -1.097656 5.609375 -1.101562 5.828125 -1.125 C 6.046875 -1.144531 6.257812 -1.1875 6.46875 -1.25 C 6.675781 -1.3125 6.867188 -1.398438 7.046875 -1.515625 C 7.234375 -1.628906 7.390625 -1.773438 7.515625 -1.953125 L 7.53125 -4.578125 L 5.15625 -4.578125 L 5.15625 -5.828125 L 8.953125 -5.828125 Z M 8.96875 -1.53125 "/></g></g></g><g fill="#000000" fill-opacity="1"><g transform="translate(115.408191, 58.247184)"><g><path d="M 0.984375 -4.4375 C 0.984375 -5.0625 1.070312 -5.640625 1.25 -6.171875 C 1.4375 -6.710938 1.695312 -7.179688 2.03125 -7.578125 C 2.375 -7.972656 2.789062 -8.285156 3.28125 -8.515625 C 3.769531 -8.742188 4.316406 -8.859375 4.921875 -8.859375 C 5.546875 -8.859375 6.101562 -8.742188 6.59375 -8.515625 C 7.082031 -8.285156 7.492188 -7.972656 7.828125 -7.578125 C 8.171875 -7.179688 8.429688 -6.710938 8.609375 -6.171875 C 8.796875 -5.640625 8.890625 -5.0625 8.890625 -4.4375 L 8.890625 -4.25 C 8.890625 -3.625 8.796875 -3.039062 8.609375 -2.5 C 8.429688 -1.96875 8.171875 -1.503906 7.828125 -1.109375 C 7.492188 -0.710938 7.082031 -0.398438 6.59375 -0.171875 C 6.101562 0.046875 5.554688 0.15625 4.953125 0.15625 C 4.328125 0.15625 3.769531 0.046875 3.28125 -0.171875 C 2.789062 -0.398438 2.375 -0.710938 2.03125 -1.109375 C 1.695312 -1.503906 1.4375 -1.96875 1.25 -2.5 C 1.070312 -3.039062 0.984375 -3.625 0.984375 -4.25 Z M 2.46875 -4.25 C 2.46875 -3.820312 2.519531 -3.410156 2.625 -3.015625 C 2.726562 -2.628906 2.878906 -2.289062 3.078125 -2 C 3.285156 -1.707031 3.546875 -1.472656 3.859375 -1.296875 C 4.171875 -1.128906 4.535156 -1.046875 4.953125 -1.046875 C 5.359375 -1.046875 5.710938 -1.128906 6.015625 -1.296875 C 6.328125 -1.472656 6.582031 -1.707031 6.78125 -2 C 6.988281 -2.289062 7.144531 -2.628906 7.25 -3.015625 C 7.351562 -3.410156 7.40625 -3.820312 7.40625 -4.25 L 7.40625 -4.4375 C 7.40625 -4.851562 7.351562 -5.253906 7.25 -5.640625 C 7.144531 -6.035156 6.988281 -6.378906 6.78125 -6.671875 C 6.570312 -6.960938 6.3125 -7.195312 6 -7.375 C 5.695312 -7.550781 5.335938 -7.640625 4.921875 -7.640625 C 4.515625 -7.640625 4.15625 -7.550781 3.84375 -7.375 C 3.539062 -7.195312 3.285156 -6.960938 3.078125 -6.671875 C 2.878906 -6.378906 2.726562 -6.035156 2.625 -5.640625 C 2.519531 -5.253906 2.46875 -4.851562 2.46875 -4.4375 Z M 2.46875 -4.25 "/></g></g></g><g fill="#000000" fill-opacity="1"><g transform="translate(125.290132, 58.247184)"><g/></g></g><g fill="#000000" fill-opacity="1"><g transform="translate(135.172073, 58.247184)"><g><path d="M 1.390625 0 L 1.390625 -11.703125 L 4.859375 -11.703125 C 5.347656 -11.703125 5.820312 -11.640625 6.28125 -11.515625 C 6.738281 -11.398438 7.144531 -11.210938 7.5 -10.953125 C 7.863281 -10.703125 8.148438 -10.378906 8.359375 -9.984375 C 8.578125 -9.597656 8.6875 -9.132812 8.6875 -8.59375 C 8.675781 -8.28125 8.625 -8 8.53125 -7.75 C 8.4375 -7.5 8.304688 -7.269531 8.140625 -7.0625 C 7.984375 -6.863281 7.796875 -6.691406 7.578125 -6.546875 C 7.359375 -6.398438 7.125 -6.269531 6.875 -6.15625 C 7.1875 -6.0625 7.472656 -5.929688 7.734375 -5.765625 C 7.992188 -5.597656 8.21875 -5.394531 8.40625 -5.15625 C 8.59375 -4.914062 8.738281 -4.644531 8.84375 -4.34375 C 8.945312 -4.050781 9 -3.726562 9 -3.375 C 9 -2.832031 8.890625 -2.347656 8.671875 -1.921875 C 8.460938 -1.503906 8.175781 -1.15625 7.8125 -0.875 C 7.457031 -0.59375 7.046875 -0.378906 6.578125 -0.234375 C 6.109375 -0.0859375 5.625 -0.0078125 5.125 0 Z M 2.875 -5.46875 L 2.875 -1.265625 L 5.171875 -1.265625 C 5.484375 -1.265625 5.773438 -1.3125 6.046875 -1.40625 C 6.328125 -1.507812 6.570312 -1.648438 6.78125 -1.828125 C 7 -2.003906 7.171875 -2.222656 7.296875 -2.484375 C 7.429688 -2.742188 7.5 -3.035156 7.5 -3.359375 C 7.5 -3.691406 7.441406 -3.984375 7.328125 -4.234375 C 7.210938 -4.492188 7.050781 -4.710938 6.84375 -4.890625 C 6.644531 -5.078125 6.40625 -5.21875 6.125 -5.3125 C 5.851562 -5.40625 5.5625 -5.457031 5.25 -5.46875 Z M 2.875 -6.71875 L 4.953125 -6.71875 C 5.234375 -6.71875 5.503906 -6.757812 5.765625 -6.84375 C 6.035156 -6.925781 6.273438 -7.046875 6.484375 -7.203125 C 6.691406 -7.367188 6.859375 -7.566406 6.984375 -7.796875 C 7.117188 -8.023438 7.1875 -8.289062 7.1875 -8.59375 C 7.1875 -8.925781 7.125 -9.207031 7 -9.4375 C 6.875 -9.664062 6.703125 -9.851562 6.484375 -10 C 6.273438 -10.144531 6.03125 -10.25 5.75 -10.3125 C 5.476562 -10.382812 5.195312 -10.425781 4.90625 -10.4375 L 2.875 -10.4375 Z M 2.875 -6.71875 "/></g></g></g><g fill="#000000" fill-opacity="1"><g transform="translate(145.054014, 58.247184)"><g><path d="M 7.109375 0 C 7.054688 -0.113281 7.007812 -0.253906 6.96875 -0.421875 C 6.9375 -0.585938 6.914062 -0.765625 6.90625 -0.953125 C 6.75 -0.796875 6.578125 -0.648438 6.390625 -0.515625 C 6.210938 -0.390625 6.007812 -0.273438 5.78125 -0.171875 C 5.5625 -0.0664062 5.328125 0.0078125 5.078125 0.0625 C 4.828125 0.125 4.554688 0.15625 4.265625 0.15625 C 3.804688 0.15625 3.390625 0.09375 3.015625 -0.03125 C 2.640625 -0.164062 2.320312 -0.347656 2.0625 -0.578125 C 1.8125 -0.804688 1.613281 -1.078125 1.46875 -1.390625 C 1.320312 -1.703125 1.25 -2.039062 1.25 -2.40625 C 1.25 -2.882812 1.34375 -3.300781 1.53125 -3.65625 C 1.726562 -4.019531 2 -4.320312 2.34375 -4.5625 C 2.695312 -4.800781 3.117188 -4.976562 3.609375 -5.09375 C 4.097656 -5.21875 4.644531 -5.28125 5.25 -5.28125 L 6.875 -5.28125 L 6.875 -5.953125 C 6.875 -6.222656 6.820312 -6.460938 6.71875 -6.671875 C 6.625 -6.878906 6.488281 -7.054688 6.3125 -7.203125 C 6.144531 -7.347656 5.929688 -7.457031 5.671875 -7.53125 C 5.421875 -7.613281 5.132812 -7.65625 4.8125 -7.65625 C 4.519531 -7.65625 4.253906 -7.617188 4.015625 -7.546875 C 3.785156 -7.472656 3.585938 -7.375 3.421875 -7.25 C 3.265625 -7.125 3.140625 -6.976562 3.046875 -6.8125 C 2.960938 -6.644531 2.921875 -6.46875 2.921875 -6.28125 L 1.4375 -6.28125 C 1.4375 -6.601562 1.515625 -6.914062 1.671875 -7.21875 C 1.828125 -7.519531 2.054688 -7.789062 2.359375 -8.03125 C 2.660156 -8.28125 3.019531 -8.476562 3.4375 -8.625 C 3.863281 -8.78125 4.347656 -8.859375 4.890625 -8.859375 C 5.390625 -8.859375 5.847656 -8.796875 6.265625 -8.671875 C 6.691406 -8.554688 7.054688 -8.375 7.359375 -8.125 C 7.671875 -7.882812 7.914062 -7.582031 8.09375 -7.21875 C 8.269531 -6.851562 8.359375 -6.425781 8.359375 -5.9375 L 8.359375 -1.890625 C 8.359375 -1.609375 8.382812 -1.300781 8.4375 -0.96875 C 8.5 -0.644531 8.578125 -0.363281 8.671875 -0.125 L 8.671875 0 Z M 4.484375 -1.140625 C 4.773438 -1.140625 5.046875 -1.175781 5.296875 -1.25 C 5.546875 -1.320312 5.773438 -1.421875 5.984375 -1.546875 C 6.191406 -1.671875 6.367188 -1.8125 6.515625 -1.96875 C 6.671875 -2.125 6.789062 -2.285156 6.875 -2.453125 L 6.875 -4.21875 L 5.5 -4.21875 C 4.625 -4.21875 3.941406 -4.085938 3.453125 -3.828125 C 2.972656 -3.578125 2.734375 -3.175781 2.734375 -2.625 C 2.734375 -2.40625 2.769531 -2.203125 2.84375 -2.015625 C 2.914062 -1.835938 3.023438 -1.679688 3.171875 -1.546875 C 3.316406 -1.421875 3.5 -1.320312 3.71875 -1.25 C 3.9375 -1.175781 4.191406 -1.140625 4.484375 -1.140625 Z M 4.484375 -1.140625 "/></g></g></g><g fill="#000000" fill-opacity="1"><g transform="translate(154.935955, 58.247184)"><g><path d="M 5.109375 -1.046875 C 5.378906 -1.046875 5.640625 -1.085938 5.890625 -1.171875 C 6.140625 -1.253906 6.363281 -1.375 6.5625 -1.53125 C 6.769531 -1.6875 6.929688 -1.863281 7.046875 -2.0625 C 7.171875 -2.269531 7.234375 -2.492188 7.234375 -2.734375 L 8.640625 -2.734375 C 8.640625 -2.347656 8.539062 -1.976562 8.34375 -1.625 C 8.144531 -1.28125 7.878906 -0.972656 7.546875 -0.703125 C 7.222656 -0.441406 6.847656 -0.234375 6.421875 -0.078125 C 6.003906 0.078125 5.566406 0.15625 5.109375 0.15625 C 4.453125 0.15625 3.875 0.0390625 3.375 -0.1875 C 2.882812 -0.425781 2.472656 -0.742188 2.140625 -1.140625 C 1.816406 -1.546875 1.570312 -2.007812 1.40625 -2.53125 C 1.238281 -3.050781 1.15625 -3.601562 1.15625 -4.1875 L 1.15625 -4.515625 C 1.15625 -5.085938 1.238281 -5.632812 1.40625 -6.15625 C 1.570312 -6.6875 1.816406 -7.148438 2.140625 -7.546875 C 2.472656 -7.953125 2.882812 -8.269531 3.375 -8.5 C 3.875 -8.738281 4.453125 -8.859375 5.109375 -8.859375 C 5.617188 -8.859375 6.085938 -8.773438 6.515625 -8.609375 C 6.953125 -8.453125 7.328125 -8.234375 7.640625 -7.953125 C 7.953125 -7.671875 8.195312 -7.335938 8.375 -6.953125 C 8.550781 -6.566406 8.640625 -6.148438 8.640625 -5.703125 L 7.234375 -5.703125 C 7.234375 -5.972656 7.175781 -6.222656 7.0625 -6.453125 C 6.957031 -6.679688 6.8125 -6.882812 6.625 -7.0625 C 6.4375 -7.238281 6.210938 -7.378906 5.953125 -7.484375 C 5.691406 -7.585938 5.410156 -7.640625 5.109375 -7.640625 C 4.648438 -7.640625 4.257812 -7.546875 3.9375 -7.359375 C 3.625 -7.171875 3.367188 -6.925781 3.171875 -6.625 C 2.984375 -6.332031 2.847656 -6 2.765625 -5.625 C 2.679688 -5.257812 2.640625 -4.890625 2.640625 -4.515625 L 2.640625 -4.1875 C 2.640625 -3.800781 2.679688 -3.421875 2.765625 -3.046875 C 2.847656 -2.679688 2.984375 -2.347656 3.171875 -2.046875 C 3.367188 -1.742188 3.625 -1.5 3.9375 -1.3125 C 4.25 -1.132812 4.640625 -1.046875 5.109375 -1.046875 Z M 5.109375 -1.046875 "/></g></g></g><g fill="#000000" fill-opacity="1"><g transform="translate(164.817896, 58.247184)"><g><path d="M 4 -4.0625 L 2.90625 -3 L 2.90625 0 L 1.421875 0 L 1.421875 -12.359375 L 2.90625 -12.359375 L 2.90625 -4.796875 L 3.890625 -5.84375 L 6.734375 -8.703125 L 8.546875 -8.703125 L 5.03125 -5.078125 L 9.09375 0 L 7.203125 0 Z M 4 -4.0625 "/></g></g></g><g fill="#000000" fill-opacity="1"><g transform="translate(174.70483, 58.247184)"><g/></g></g><g fill="#000000" fill-opacity="1"><g transform="translate(184.586771, 58.247184)"><g/></g></g><g clip-path="url(#ee0b61e2c6)"><path fill="#000000" d="M 195.589844 39.382812 C 188.566406 39.382812 182.855469 45.09375 182.855469 52.117188 C 182.855469 59.136719 188.566406 64.847656 195.589844 64.847656 C 202.609375 64.847656 208.320312 59.136719 208.320312 52.117188 C 208.320312 45.09375 202.609375 39.382812 195.589844 39.382812 Z M 195.589844 63.054688 C 189.558594 63.054688 184.652344 58.144531 184.652344 52.117188 C 184.652344 46.085938 189.558594 41.179688 195.589844 41.179688 C 201.617188 41.179688 206.527344 46.085938 206.527344 52.117188 C 206.527344 58.144531 201.617188 63.054688 195.589844 63.054688 Z M 198.988281 47.292969 L 192.765625 52.082031 L 198.992188 56.941406 C 199.382812 57.246094 199.453125 57.808594 199.148438 58.203125 C 198.972656 58.429688 198.707031 58.546875 198.441406 58.546875 C 198.246094 58.546875 198.054688 58.488281 197.886719 58.359375 L 190.746094 52.785156 C 190.527344 52.617188 190.402344 52.351562 190.402344 52.074219 C 190.402344 51.796875 190.53125 51.535156 190.753906 51.367188 L 197.894531 45.871094 C 198.289062 45.570312 198.851562 45.644531 199.152344 46.035156 C 199.453125 46.425781 199.378906 46.992188 198.988281 47.292969 Z M 198.988281 47.292969 " fill-opacity="1" fill-rule="nonzero"/></g></svg>