<svg xmlns="http://www.w3.org/2000/svg" xmlns:xlink="http://www.w3.org/1999/xlink" width="500" zoomAndPan="magnify" viewBox="0 0 375 149.999998" height="200" preserveAspectRatio="xMidYMid meet" version="1.0"><defs><g/><clipPath id="a1cb755920"><path d="M 1.707031 31.054688 L 373.425781 31.054688 L 373.425781 132.394531 L 1.707031 132.394531 Z M 1.707031 31.054688 " clip-rule="nonzero"/></clipPath><clipPath id="e709524965"><path d="M 322.621094 31.054688 C 350.605469 31.054688 373.292969 53.738281 373.292969 81.722656 C 373.292969 109.710938 350.605469 132.394531 322.621094 132.394531 L 52.378906 132.394531 C 24.394531 132.394531 1.707031 109.710938 1.707031 81.722656 C 1.707031 53.738281 24.394531 31.054688 52.378906 31.054688 Z M 322.621094 31.054688 " clip-rule="nonzero"/></clipPath><clipPath id="89e025d7b5"><path d="M 1.707031 15 L 373.425781 15 L 373.425781 116.339844 L 1.707031 116.339844 Z M 1.707031 15 " clip-rule="nonzero"/></clipPath><clipPath id="a13d82509a"><path d="M 322.621094 15 C 350.605469 15 373.292969 37.6875 373.292969 65.671875 C 373.292969 93.65625 350.605469 116.339844 322.621094 116.339844 L 52.378906 116.339844 C 24.394531 116.339844 1.707031 93.65625 1.707031 65.671875 C 1.707031 37.6875 24.394531 15 52.378906 15 Z M 322.621094 15 " clip-rule="nonzero"/></clipPath><clipPath id="73b4fe3c8e"><path d="M 309 51 L 340 51 L 340 81.746094 L 309 81.746094 Z M 309 51 " clip-rule="nonzero"/></clipPath><clipPath id="7d4765665d"><path d="M 309 49.316406 L 342.589844 49.316406 L 342.589844 81.746094 L 309 81.746094 Z M 309 49.316406 " clip-rule="nonzero"/></clipPath><clipPath id="0169e57fcf"><path d="M 312 50 L 342.589844 50 L 342.589844 81 L 312 81 Z M 312 50 " clip-rule="nonzero"/></clipPath></defs><g clip-path="url(#a1cb755920)"><g clip-path="url(#e709524965)"><path fill="#34acd9" d="M 1.707031 31.054688 L 373.425781 31.054688 L 373.425781 132.394531 L 1.707031 132.394531 Z M 1.707031 31.054688 " fill-opacity="1" fill-rule="nonzero"/></g></g><g fill="#000000" fill-opacity="1"><g transform="translate(153.466171, 82.40018)"><g><path d="M 0.328125 -1.328125 L 0.53125 -1.328125 C 0.5625 -1.160156 0.613281 -1.007812 0.6875 -0.875 C 0.757812 -0.738281 0.847656 -0.625 0.953125 -0.53125 C 1.066406 -0.4375 1.195312 -0.363281 1.34375 -0.3125 C 1.488281 -0.257812 1.648438 -0.234375 1.828125 -0.234375 C 2.097656 -0.234375 2.3125 -0.296875 2.46875 -0.421875 C 2.632812 -0.554688 2.71875 -0.738281 2.71875 -0.96875 C 2.71875 -1.0625 2.703125 -1.144531 2.671875 -1.21875 C 2.640625 -1.300781 2.585938 -1.378906 2.515625 -1.453125 C 2.441406 -1.523438 2.34375 -1.597656 2.21875 -1.671875 C 2.09375 -1.742188 1.929688 -1.820312 1.734375 -1.90625 C 1.503906 -2.007812 1.304688 -2.109375 1.140625 -2.203125 C 0.984375 -2.296875 0.859375 -2.390625 0.765625 -2.484375 C 0.671875 -2.585938 0.601562 -2.695312 0.5625 -2.8125 C 0.53125 -2.925781 0.515625 -3.0625 0.515625 -3.21875 C 0.515625 -3.382812 0.546875 -3.539062 0.609375 -3.6875 C 0.671875 -3.84375 0.753906 -3.972656 0.859375 -4.078125 C 0.972656 -4.179688 1.109375 -4.257812 1.265625 -4.3125 C 1.421875 -4.375 1.59375 -4.40625 1.78125 -4.40625 C 1.945312 -4.40625 2.097656 -4.378906 2.234375 -4.328125 C 2.378906 -4.273438 2.523438 -4.191406 2.671875 -4.078125 L 2.828125 -4.328125 L 2.953125 -4.328125 L 3.015625 -3.203125 L 2.8125 -3.203125 C 2.71875 -3.515625 2.582031 -3.742188 2.40625 -3.890625 C 2.238281 -4.046875 2.035156 -4.125 1.796875 -4.125 C 1.566406 -4.125 1.382812 -4.066406 1.25 -3.953125 C 1.113281 -3.835938 1.046875 -3.6875 1.046875 -3.5 C 1.046875 -3.40625 1.054688 -3.320312 1.078125 -3.25 C 1.109375 -3.175781 1.15625 -3.101562 1.21875 -3.03125 C 1.289062 -2.96875 1.378906 -2.90625 1.484375 -2.84375 C 1.597656 -2.78125 1.738281 -2.710938 1.90625 -2.640625 C 2.1875 -2.515625 2.414062 -2.394531 2.59375 -2.28125 C 2.78125 -2.175781 2.925781 -2.066406 3.03125 -1.953125 C 3.144531 -1.847656 3.222656 -1.738281 3.265625 -1.625 C 3.316406 -1.507812 3.34375 -1.378906 3.34375 -1.234375 C 3.34375 -1.035156 3.300781 -0.859375 3.21875 -0.703125 C 3.144531 -0.546875 3.039062 -0.410156 2.90625 -0.296875 C 2.769531 -0.179688 2.609375 -0.09375 2.421875 -0.03125 C 2.234375 0.03125 2.023438 0.0625 1.796875 0.0625 C 1.585938 0.0625 1.394531 0.03125 1.21875 -0.03125 C 1.050781 -0.09375 0.878906 -0.195312 0.703125 -0.34375 L 0.546875 -0.0625 L 0.40625 -0.0625 Z M 0.328125 -1.328125 "/></g></g></g><g fill="#000000" fill-opacity="1"><g transform="translate(157.115797, 82.40018)"><g><path d="M 1.171875 -0.90625 C 1.171875 -0.75 1.175781 -0.625 1.1875 -0.53125 C 1.195312 -0.4375 1.21875 -0.363281 1.25 -0.3125 C 1.28125 -0.269531 1.320312 -0.238281 1.375 -0.21875 C 1.4375 -0.207031 1.523438 -0.203125 1.640625 -0.203125 L 1.640625 0 L 0.140625 0 L 0.140625 -0.203125 C 0.242188 -0.203125 0.328125 -0.207031 0.390625 -0.21875 C 0.453125 -0.238281 0.5 -0.269531 0.53125 -0.3125 C 0.570312 -0.363281 0.597656 -0.429688 0.609375 -0.515625 C 0.617188 -0.597656 0.625 -0.710938 0.625 -0.859375 L 0.625 -3.234375 C 0.625 -3.453125 0.617188 -3.625 0.609375 -3.75 C 0.609375 -3.882812 0.597656 -3.988281 0.578125 -4.0625 C 0.578125 -4.101562 0.566406 -4.140625 0.546875 -4.171875 C 0.523438 -4.203125 0.5 -4.222656 0.46875 -4.234375 C 0.4375 -4.253906 0.390625 -4.265625 0.328125 -4.265625 C 0.273438 -4.273438 0.207031 -4.28125 0.125 -4.28125 L 0.125 -4.484375 L 1.171875 -4.6875 L 1.171875 -2.546875 L 1.1875 -2.546875 C 1.238281 -2.617188 1.304688 -2.6875 1.390625 -2.75 C 1.484375 -2.8125 1.578125 -2.863281 1.671875 -2.90625 C 1.773438 -2.945312 1.878906 -2.976562 1.984375 -3 C 2.085938 -3.03125 2.191406 -3.046875 2.296875 -3.046875 C 2.472656 -3.046875 2.628906 -3.015625 2.765625 -2.953125 C 2.910156 -2.898438 3.023438 -2.820312 3.109375 -2.71875 C 3.171875 -2.632812 3.21875 -2.519531 3.25 -2.375 C 3.28125 -2.238281 3.296875 -2.046875 3.296875 -1.796875 L 3.296875 -0.90625 C 3.296875 -0.75 3.296875 -0.625 3.296875 -0.53125 C 3.304688 -0.445312 3.328125 -0.378906 3.359375 -0.328125 C 3.398438 -0.273438 3.445312 -0.238281 3.5 -0.21875 C 3.5625 -0.207031 3.648438 -0.203125 3.765625 -0.203125 L 3.765625 0 L 2.265625 0 L 2.265625 -0.203125 C 2.367188 -0.203125 2.453125 -0.207031 2.515625 -0.21875 C 2.578125 -0.238281 2.625 -0.269531 2.65625 -0.3125 C 2.6875 -0.363281 2.707031 -0.429688 2.71875 -0.515625 C 2.726562 -0.597656 2.734375 -0.710938 2.734375 -0.859375 L 2.734375 -1.578125 C 2.734375 -1.992188 2.679688 -2.289062 2.578125 -2.46875 C 2.484375 -2.65625 2.320312 -2.75 2.09375 -2.75 C 1.914062 -2.75 1.753906 -2.703125 1.609375 -2.609375 C 1.460938 -2.515625 1.347656 -2.390625 1.265625 -2.234375 C 1.253906 -2.191406 1.238281 -2.148438 1.21875 -2.109375 C 1.207031 -2.078125 1.195312 -2.035156 1.1875 -1.984375 C 1.1875 -1.941406 1.179688 -1.890625 1.171875 -1.828125 C 1.171875 -1.773438 1.171875 -1.707031 1.171875 -1.625 Z M 1.171875 -0.90625 "/></g></g></g><g fill="#000000" fill-opacity="1"><g transform="translate(161.008735, 82.40018)"><g><path d="M 1.84375 -3.046875 C 2.050781 -3.046875 2.25 -3.007812 2.4375 -2.9375 C 2.632812 -2.863281 2.804688 -2.757812 2.953125 -2.625 C 3.097656 -2.488281 3.210938 -2.328125 3.296875 -2.140625 C 3.378906 -1.953125 3.421875 -1.742188 3.421875 -1.515625 C 3.421875 -1.285156 3.378906 -1.070312 3.296875 -0.875 C 3.210938 -0.6875 3.097656 -0.523438 2.953125 -0.390625 C 2.804688 -0.253906 2.632812 -0.144531 2.4375 -0.0625 C 2.25 0.0195312 2.050781 0.0625 1.84375 0.0625 C 1.625 0.0625 1.421875 0.0234375 1.234375 -0.046875 C 1.046875 -0.128906 0.878906 -0.238281 0.734375 -0.375 C 0.585938 -0.519531 0.472656 -0.6875 0.390625 -0.875 C 0.304688 -1.070312 0.265625 -1.285156 0.265625 -1.515625 C 0.265625 -1.742188 0.304688 -1.953125 0.390625 -2.140625 C 0.472656 -2.328125 0.585938 -2.488281 0.734375 -2.625 C 0.878906 -2.757812 1.046875 -2.863281 1.234375 -2.9375 C 1.421875 -3.007812 1.625 -3.046875 1.84375 -3.046875 Z M 1.84375 -2.78125 C 1.695312 -2.78125 1.566406 -2.75 1.453125 -2.6875 C 1.335938 -2.632812 1.238281 -2.550781 1.15625 -2.4375 C 1.082031 -2.320312 1.019531 -2.1875 0.96875 -2.03125 C 0.925781 -1.875 0.90625 -1.703125 0.90625 -1.515625 C 0.90625 -1.316406 0.925781 -1.140625 0.96875 -0.984375 C 1.019531 -0.828125 1.082031 -0.691406 1.15625 -0.578125 C 1.238281 -0.460938 1.335938 -0.375 1.453125 -0.3125 C 1.566406 -0.257812 1.695312 -0.234375 1.84375 -0.234375 C 1.976562 -0.234375 2.101562 -0.257812 2.21875 -0.3125 C 2.34375 -0.375 2.445312 -0.460938 2.53125 -0.578125 C 2.613281 -0.691406 2.675781 -0.828125 2.71875 -0.984375 C 2.757812 -1.148438 2.78125 -1.328125 2.78125 -1.515625 C 2.78125 -1.703125 2.757812 -1.875 2.71875 -2.03125 C 2.675781 -2.1875 2.613281 -2.316406 2.53125 -2.421875 C 2.445312 -2.535156 2.34375 -2.625 2.21875 -2.6875 C 2.101562 -2.75 1.976562 -2.78125 1.84375 -2.78125 Z M 1.84375 -2.78125 "/></g></g></g><g fill="#000000" fill-opacity="1"><g transform="translate(164.709287, 82.40018)"><g><path d="M 1.578125 0.0625 L 1.359375 0.0625 L 0.625 -2.296875 C 0.59375 -2.398438 0.5625 -2.484375 0.53125 -2.546875 C 0.5 -2.609375 0.460938 -2.660156 0.421875 -2.703125 C 0.378906 -2.742188 0.328125 -2.769531 0.265625 -2.78125 C 0.210938 -2.789062 0.144531 -2.796875 0.0625 -2.796875 L 0.0625 -3 L 1.5625 -3 L 1.5625 -2.796875 C 1.414062 -2.796875 1.3125 -2.78125 1.25 -2.75 C 1.195312 -2.71875 1.171875 -2.660156 1.171875 -2.578125 C 1.171875 -2.535156 1.175781 -2.488281 1.1875 -2.4375 C 1.195312 -2.382812 1.210938 -2.320312 1.234375 -2.25 L 1.609375 -0.90625 L 1.640625 -0.90625 L 2.46875 -3 L 2.640625 -3 L 3.390625 -0.90625 L 3.421875 -0.90625 L 3.75 -1.8125 C 3.800781 -1.9375 3.84375 -2.039062 3.875 -2.125 C 3.90625 -2.207031 3.925781 -2.28125 3.9375 -2.34375 C 3.957031 -2.40625 3.96875 -2.453125 3.96875 -2.484375 C 3.976562 -2.523438 3.984375 -2.5625 3.984375 -2.59375 C 3.984375 -2.675781 3.957031 -2.726562 3.90625 -2.75 C 3.863281 -2.78125 3.765625 -2.796875 3.609375 -2.796875 L 3.609375 -3 L 4.734375 -3 L 4.734375 -2.796875 C 4.679688 -2.796875 4.632812 -2.785156 4.59375 -2.765625 C 4.550781 -2.753906 4.507812 -2.722656 4.46875 -2.671875 C 4.4375 -2.628906 4.398438 -2.5625 4.359375 -2.46875 C 4.316406 -2.375 4.265625 -2.253906 4.203125 -2.109375 L 3.328125 0.0625 L 3.109375 0.0625 L 2.421875 -2.03125 L 2.40625 -2.03125 Z M 1.578125 0.0625 "/></g></g></g><g fill="#000000" fill-opacity="1"><g transform="translate(169.530198, 82.40018)"><g/></g></g><g fill="#000000" fill-opacity="1"><g transform="translate(171.154151, 82.40018)"><g><path d="M 3.890625 -4.359375 L 4.0625 -4.359375 L 4.109375 -3.046875 L 3.890625 -3.046875 C 3.804688 -3.378906 3.644531 -3.640625 3.40625 -3.828125 C 3.175781 -4.023438 2.894531 -4.125 2.5625 -4.125 C 2.332031 -4.125 2.125 -4.078125 1.9375 -3.984375 C 1.757812 -3.890625 1.609375 -3.757812 1.484375 -3.59375 C 1.359375 -3.425781 1.257812 -3.21875 1.1875 -2.96875 C 1.125 -2.726562 1.09375 -2.453125 1.09375 -2.140625 C 1.09375 -1.535156 1.21875 -1.066406 1.46875 -0.734375 C 1.726562 -0.410156 2.097656 -0.25 2.578125 -0.25 C 3.304688 -0.25 3.769531 -0.632812 3.96875 -1.40625 L 4.203125 -1.40625 L 4.203125 0 L 4.015625 0 L 3.875 -0.453125 C 3.476562 -0.109375 3 0.0625 2.4375 0.0625 C 2.125 0.0625 1.835938 0.0078125 1.578125 -0.09375 C 1.316406 -0.195312 1.09375 -0.34375 0.90625 -0.53125 C 0.726562 -0.71875 0.585938 -0.941406 0.484375 -1.203125 C 0.390625 -1.472656 0.34375 -1.773438 0.34375 -2.109375 C 0.34375 -2.453125 0.394531 -2.765625 0.5 -3.046875 C 0.601562 -3.328125 0.75 -3.566406 0.9375 -3.765625 C 1.132812 -3.972656 1.363281 -4.128906 1.625 -4.234375 C 1.894531 -4.347656 2.1875 -4.40625 2.5 -4.40625 C 2.726562 -4.40625 2.941406 -4.375 3.140625 -4.3125 C 3.335938 -4.25 3.554688 -4.144531 3.796875 -4 Z M 3.890625 -4.359375 "/></g></g></g><g fill="#000000" fill-opacity="1"><g transform="translate(175.692142, 82.40018)"><g><path d="M 1.84375 -3.046875 C 2.050781 -3.046875 2.25 -3.007812 2.4375 -2.9375 C 2.632812 -2.863281 2.804688 -2.757812 2.953125 -2.625 C 3.097656 -2.488281 3.210938 -2.328125 3.296875 -2.140625 C 3.378906 -1.953125 3.421875 -1.742188 3.421875 -1.515625 C 3.421875 -1.285156 3.378906 -1.070312 3.296875 -0.875 C 3.210938 -0.6875 3.097656 -0.523438 2.953125 -0.390625 C 2.804688 -0.253906 2.632812 -0.144531 2.4375 -0.0625 C 2.25 0.0195312 2.050781 0.0625 1.84375 0.0625 C 1.625 0.0625 1.421875 0.0234375 1.234375 -0.046875 C 1.046875 -0.128906 0.878906 -0.238281 0.734375 -0.375 C 0.585938 -0.519531 0.472656 -0.6875 0.390625 -0.875 C 0.304688 -1.070312 0.265625 -1.285156 0.265625 -1.515625 C 0.265625 -1.742188 0.304688 -1.953125 0.390625 -2.140625 C 0.472656 -2.328125 0.585938 -2.488281 0.734375 -2.625 C 0.878906 -2.757812 1.046875 -2.863281 1.234375 -2.9375 C 1.421875 -3.007812 1.625 -3.046875 1.84375 -3.046875 Z M 1.84375 -2.78125 C 1.695312 -2.78125 1.566406 -2.75 1.453125 -2.6875 C 1.335938 -2.632812 1.238281 -2.550781 1.15625 -2.4375 C 1.082031 -2.320312 1.019531 -2.1875 0.96875 -2.03125 C 0.925781 -1.875 0.90625 -1.703125 0.90625 -1.515625 C 0.90625 -1.316406 0.925781 -1.140625 0.96875 -0.984375 C 1.019531 -0.828125 1.082031 -0.691406 1.15625 -0.578125 C 1.238281 -0.460938 1.335938 -0.375 1.453125 -0.3125 C 1.566406 -0.257812 1.695312 -0.234375 1.84375 -0.234375 C 1.976562 -0.234375 2.101562 -0.257812 2.21875 -0.3125 C 2.34375 -0.375 2.445312 -0.460938 2.53125 -0.578125 C 2.613281 -0.691406 2.675781 -0.828125 2.71875 -0.984375 C 2.757812 -1.148438 2.78125 -1.328125 2.78125 -1.515625 C 2.78125 -1.703125 2.757812 -1.875 2.71875 -2.03125 C 2.675781 -2.1875 2.613281 -2.316406 2.53125 -2.421875 C 2.445312 -2.535156 2.34375 -2.625 2.21875 -2.6875 C 2.101562 -2.75 1.976562 -2.78125 1.84375 -2.78125 Z M 1.84375 -2.78125 "/></g></g></g><g fill="#000000" fill-opacity="1"><g transform="translate(179.392694, 82.40018)"><g><path d="M 1.25 -0.90625 C 1.25 -0.75 1.25 -0.625 1.25 -0.53125 C 1.257812 -0.4375 1.28125 -0.363281 1.3125 -0.3125 C 1.351562 -0.269531 1.398438 -0.238281 1.453125 -0.21875 C 1.515625 -0.207031 1.601562 -0.203125 1.71875 -0.203125 L 1.71875 0 L 0.203125 0 L 0.203125 -0.203125 C 0.316406 -0.203125 0.40625 -0.207031 0.46875 -0.21875 C 0.53125 -0.238281 0.578125 -0.269531 0.609375 -0.3125 C 0.648438 -0.363281 0.675781 -0.429688 0.6875 -0.515625 C 0.695312 -0.597656 0.703125 -0.710938 0.703125 -0.859375 L 0.703125 -1.578125 C 0.703125 -1.796875 0.695312 -1.976562 0.6875 -2.125 C 0.675781 -2.269531 0.664062 -2.367188 0.65625 -2.421875 C 0.644531 -2.460938 0.628906 -2.5 0.609375 -2.53125 C 0.597656 -2.5625 0.570312 -2.582031 0.53125 -2.59375 C 0.5 -2.613281 0.457031 -2.625 0.40625 -2.625 C 0.351562 -2.632812 0.285156 -2.640625 0.203125 -2.640625 L 0.203125 -2.84375 L 1.125 -3.046875 L 1.1875 -2.484375 L 1.21875 -2.484375 C 1.382812 -2.679688 1.5625 -2.820312 1.75 -2.90625 C 1.9375 -3 2.144531 -3.046875 2.375 -3.046875 C 2.613281 -3.046875 2.8125 -3 2.96875 -2.90625 C 3.132812 -2.8125 3.25 -2.675781 3.3125 -2.5 L 3.34375 -2.5 C 3.476562 -2.675781 3.644531 -2.8125 3.84375 -2.90625 C 4.039062 -3 4.253906 -3.046875 4.484375 -3.046875 C 4.660156 -3.046875 4.820312 -3.015625 4.96875 -2.953125 C 5.113281 -2.898438 5.222656 -2.820312 5.296875 -2.71875 C 5.367188 -2.632812 5.414062 -2.519531 5.4375 -2.375 C 5.46875 -2.238281 5.484375 -2.046875 5.484375 -1.796875 L 5.484375 -0.90625 C 5.484375 -0.75 5.488281 -0.625 5.5 -0.53125 C 5.507812 -0.445312 5.53125 -0.378906 5.5625 -0.328125 C 5.59375 -0.273438 5.640625 -0.238281 5.703125 -0.21875 C 5.765625 -0.207031 5.847656 -0.203125 5.953125 -0.203125 L 5.953125 0 L 4.453125 0 L 4.453125 -0.203125 C 4.554688 -0.203125 4.640625 -0.207031 4.703125 -0.21875 C 4.765625 -0.238281 4.8125 -0.269531 4.84375 -0.3125 C 4.882812 -0.363281 4.910156 -0.429688 4.921875 -0.515625 C 4.929688 -0.597656 4.9375 -0.710938 4.9375 -0.859375 L 4.9375 -1.578125 C 4.9375 -1.785156 4.921875 -1.960938 4.890625 -2.109375 C 4.867188 -2.265625 4.832031 -2.390625 4.78125 -2.484375 C 4.726562 -2.578125 4.660156 -2.644531 4.578125 -2.6875 C 4.492188 -2.726562 4.390625 -2.75 4.265625 -2.75 C 4.097656 -2.75 3.941406 -2.703125 3.796875 -2.609375 C 3.660156 -2.515625 3.550781 -2.390625 3.46875 -2.234375 C 3.445312 -2.191406 3.425781 -2.148438 3.40625 -2.109375 C 3.394531 -2.078125 3.382812 -2.039062 3.375 -2 C 3.375 -1.957031 3.367188 -1.90625 3.359375 -1.84375 C 3.359375 -1.789062 3.359375 -1.71875 3.359375 -1.625 L 3.359375 -0.90625 C 3.359375 -0.75 3.363281 -0.625 3.375 -0.53125 C 3.382812 -0.445312 3.40625 -0.378906 3.4375 -0.328125 C 3.46875 -0.273438 3.515625 -0.238281 3.578125 -0.21875 C 3.640625 -0.207031 3.726562 -0.203125 3.84375 -0.203125 L 3.84375 0 L 2.34375 0 L 2.34375 -0.203125 C 2.445312 -0.203125 2.53125 -0.207031 2.59375 -0.21875 C 2.65625 -0.238281 2.703125 -0.269531 2.734375 -0.3125 C 2.765625 -0.363281 2.785156 -0.429688 2.796875 -0.515625 C 2.804688 -0.597656 2.8125 -0.710938 2.8125 -0.859375 L 2.8125 -1.578125 C 2.8125 -1.796875 2.800781 -1.976562 2.78125 -2.125 C 2.757812 -2.269531 2.722656 -2.390625 2.671875 -2.484375 C 2.617188 -2.578125 2.550781 -2.644531 2.46875 -2.6875 C 2.382812 -2.726562 2.28125 -2.75 2.15625 -2.75 C 1.988281 -2.75 1.828125 -2.703125 1.671875 -2.609375 C 1.523438 -2.515625 1.414062 -2.390625 1.34375 -2.234375 C 1.320312 -2.191406 1.304688 -2.148438 1.296875 -2.109375 C 1.285156 -2.078125 1.273438 -2.039062 1.265625 -2 C 1.253906 -1.957031 1.25 -1.90625 1.25 -1.84375 C 1.25 -1.789062 1.25 -1.71875 1.25 -1.625 Z M 1.25 -0.90625 "/></g></g></g><g fill="#000000" fill-opacity="1"><g transform="translate(185.464084, 82.40018)"><g><path d="M 1.1875 -2.59375 L 1.203125 -2.59375 C 1.328125 -2.738281 1.457031 -2.847656 1.59375 -2.921875 C 1.738281 -3.003906 1.90625 -3.046875 2.09375 -3.046875 C 2.300781 -3.046875 2.492188 -3.007812 2.671875 -2.9375 C 2.859375 -2.863281 3.015625 -2.753906 3.140625 -2.609375 C 3.273438 -2.472656 3.378906 -2.304688 3.453125 -2.109375 C 3.523438 -1.921875 3.5625 -1.71875 3.5625 -1.5 C 3.5625 -1.257812 3.523438 -1.046875 3.453125 -0.859375 C 3.378906 -0.671875 3.273438 -0.507812 3.140625 -0.375 C 3.003906 -0.238281 2.84375 -0.128906 2.65625 -0.046875 C 2.476562 0.0234375 2.285156 0.0625 2.078125 0.0625 C 1.910156 0.0625 1.753906 0.03125 1.609375 -0.03125 C 1.460938 -0.09375 1.328125 -0.1875 1.203125 -0.3125 L 1.203125 0.515625 C 1.203125 0.660156 1.207031 0.773438 1.21875 0.859375 C 1.238281 0.953125 1.269531 1.023438 1.3125 1.078125 C 1.363281 1.128906 1.429688 1.160156 1.515625 1.171875 C 1.597656 1.191406 1.710938 1.207031 1.859375 1.21875 L 1.859375 1.40625 L 0.109375 1.40625 L 0.109375 1.21875 C 0.222656 1.207031 0.3125 1.191406 0.375 1.171875 C 0.445312 1.160156 0.503906 1.128906 0.546875 1.078125 C 0.585938 1.023438 0.613281 0.957031 0.625 0.875 C 0.644531 0.789062 0.65625 0.679688 0.65625 0.546875 L 0.65625 -1.5625 C 0.65625 -1.78125 0.648438 -1.957031 0.640625 -2.09375 C 0.640625 -2.238281 0.628906 -2.335938 0.609375 -2.390625 C 0.597656 -2.484375 0.554688 -2.546875 0.484375 -2.578125 C 0.421875 -2.609375 0.296875 -2.625 0.109375 -2.625 L 0.109375 -2.8125 L 1.1875 -3.03125 Z M 1.359375 -2.421875 C 1.304688 -2.347656 1.265625 -2.257812 1.234375 -2.15625 C 1.210938 -2.050781 1.203125 -1.914062 1.203125 -1.75 L 1.203125 -1.3125 C 1.203125 -1.207031 1.207031 -1.117188 1.21875 -1.046875 C 1.226562 -0.972656 1.238281 -0.910156 1.25 -0.859375 C 1.257812 -0.804688 1.269531 -0.757812 1.28125 -0.71875 C 1.300781 -0.675781 1.328125 -0.632812 1.359375 -0.59375 C 1.453125 -0.476562 1.554688 -0.382812 1.671875 -0.3125 C 1.796875 -0.25 1.921875 -0.21875 2.046875 -0.21875 C 2.304688 -0.21875 2.515625 -0.328125 2.671875 -0.546875 C 2.835938 -0.765625 2.921875 -1.070312 2.921875 -1.46875 C 2.921875 -1.664062 2.898438 -1.84375 2.859375 -2 C 2.816406 -2.164062 2.753906 -2.304688 2.671875 -2.421875 C 2.597656 -2.535156 2.503906 -2.625 2.390625 -2.6875 C 2.273438 -2.75 2.148438 -2.78125 2.015625 -2.78125 C 1.878906 -2.78125 1.753906 -2.75 1.640625 -2.6875 C 1.523438 -2.625 1.429688 -2.535156 1.359375 -2.421875 Z M 1.359375 -2.421875 "/></g></g></g><g fill="#000000" fill-opacity="1"><g transform="translate(189.306096, 82.40018)"><g><path d="M 1.1875 -0.875 C 1.1875 -0.738281 1.191406 -0.625 1.203125 -0.53125 C 1.210938 -0.445312 1.234375 -0.378906 1.265625 -0.328125 C 1.304688 -0.285156 1.359375 -0.253906 1.421875 -0.234375 C 1.484375 -0.210938 1.570312 -0.203125 1.6875 -0.203125 L 1.6875 0 L 0.125 0 L 0.125 -0.203125 C 0.238281 -0.203125 0.328125 -0.210938 0.390625 -0.234375 C 0.460938 -0.253906 0.515625 -0.285156 0.546875 -0.328125 C 0.585938 -0.378906 0.613281 -0.441406 0.625 -0.515625 C 0.644531 -0.597656 0.65625 -0.707031 0.65625 -0.84375 L 0.65625 -3.28125 C 0.65625 -3.488281 0.648438 -3.660156 0.640625 -3.796875 C 0.640625 -3.929688 0.632812 -4.023438 0.625 -4.078125 C 0.601562 -4.160156 0.554688 -4.21875 0.484375 -4.25 C 0.421875 -4.28125 0.296875 -4.296875 0.109375 -4.296875 L 0.109375 -4.484375 L 1.1875 -4.6875 Z M 1.1875 -0.875 "/></g></g></g><g fill="#000000" fill-opacity="1"><g transform="translate(191.145053, 82.40018)"><g><path d="M 2.953125 -0.53125 C 2.628906 -0.132812 2.234375 0.0625 1.765625 0.0625 C 1.535156 0.0625 1.328125 0.0234375 1.140625 -0.046875 C 0.960938 -0.117188 0.804688 -0.222656 0.671875 -0.359375 C 0.546875 -0.492188 0.445312 -0.65625 0.375 -0.84375 C 0.3125 -1.03125 0.28125 -1.238281 0.28125 -1.46875 C 0.28125 -1.695312 0.316406 -1.90625 0.390625 -2.09375 C 0.460938 -2.289062 0.566406 -2.457031 0.703125 -2.59375 C 0.847656 -2.738281 1.015625 -2.847656 1.203125 -2.921875 C 1.390625 -3.003906 1.597656 -3.046875 1.828125 -3.046875 C 2.191406 -3.046875 2.472656 -2.945312 2.671875 -2.75 C 2.867188 -2.550781 2.96875 -2.269531 2.96875 -1.90625 C 2.96875 -1.851562 2.957031 -1.820312 2.9375 -1.8125 C 2.914062 -1.800781 2.867188 -1.796875 2.796875 -1.796875 L 0.9375 -1.796875 C 0.925781 -1.765625 0.921875 -1.726562 0.921875 -1.6875 C 0.921875 -1.644531 0.921875 -1.59375 0.921875 -1.53125 C 0.921875 -1.34375 0.941406 -1.164062 0.984375 -1 C 1.035156 -0.84375 1.101562 -0.707031 1.1875 -0.59375 C 1.28125 -0.476562 1.382812 -0.390625 1.5 -0.328125 C 1.625 -0.265625 1.765625 -0.234375 1.921875 -0.234375 C 2.078125 -0.234375 2.222656 -0.269531 2.359375 -0.34375 C 2.492188 -0.414062 2.632812 -0.53125 2.78125 -0.6875 Z M 2.015625 -2.046875 C 2.085938 -2.046875 2.144531 -2.046875 2.1875 -2.046875 C 2.238281 -2.054688 2.273438 -2.066406 2.296875 -2.078125 C 2.328125 -2.085938 2.34375 -2.101562 2.34375 -2.125 C 2.351562 -2.144531 2.359375 -2.175781 2.359375 -2.21875 C 2.359375 -2.382812 2.300781 -2.519531 2.1875 -2.625 C 2.082031 -2.726562 1.929688 -2.78125 1.734375 -2.78125 C 1.328125 -2.78125 1.078125 -2.535156 0.984375 -2.046875 Z M 2.015625 -2.046875 "/></g></g></g><g fill="#000000" fill-opacity="1"><g transform="translate(194.387289, 82.40018)"><g><path d="M 0.21875 -2.640625 L 0.21875 -2.84375 C 0.425781 -2.96875 0.582031 -3.085938 0.6875 -3.203125 C 0.800781 -3.316406 0.890625 -3.457031 0.953125 -3.625 L 1.125 -3.625 L 1.125 -2.90625 L 1.875 -2.90625 L 1.875 -2.640625 L 1.125 -2.640625 L 1.125 -0.921875 C 1.125 -0.785156 1.128906 -0.671875 1.140625 -0.578125 C 1.148438 -0.492188 1.171875 -0.421875 1.203125 -0.359375 C 1.234375 -0.304688 1.269531 -0.269531 1.3125 -0.25 C 1.363281 -0.226562 1.429688 -0.21875 1.515625 -0.21875 C 1.609375 -0.21875 1.6875 -0.238281 1.75 -0.28125 C 1.8125 -0.320312 1.878906 -0.390625 1.953125 -0.484375 L 2.09375 -0.375 C 2.039062 -0.226562 1.945312 -0.117188 1.8125 -0.046875 C 1.6875 0.0234375 1.523438 0.0625 1.328125 0.0625 C 1.078125 0.0625 0.882812 0.00390625 0.75 -0.109375 C 0.625 -0.234375 0.5625 -0.410156 0.5625 -0.640625 L 0.5625 -2.640625 Z M 0.21875 -2.640625 "/></g></g></g><g fill="#000000" fill-opacity="1"><g transform="translate(196.526133, 82.40018)"><g><path d="M 2.953125 -0.53125 C 2.628906 -0.132812 2.234375 0.0625 1.765625 0.0625 C 1.535156 0.0625 1.328125 0.0234375 1.140625 -0.046875 C 0.960938 -0.117188 0.804688 -0.222656 0.671875 -0.359375 C 0.546875 -0.492188 0.445312 -0.65625 0.375 -0.84375 C 0.3125 -1.03125 0.28125 -1.238281 0.28125 -1.46875 C 0.28125 -1.695312 0.316406 -1.90625 0.390625 -2.09375 C 0.460938 -2.289062 0.566406 -2.457031 0.703125 -2.59375 C 0.847656 -2.738281 1.015625 -2.847656 1.203125 -2.921875 C 1.390625 -3.003906 1.597656 -3.046875 1.828125 -3.046875 C 2.191406 -3.046875 2.472656 -2.945312 2.671875 -2.75 C 2.867188 -2.550781 2.96875 -2.269531 2.96875 -1.90625 C 2.96875 -1.851562 2.957031 -1.820312 2.9375 -1.8125 C 2.914062 -1.800781 2.867188 -1.796875 2.796875 -1.796875 L 0.9375 -1.796875 C 0.925781 -1.765625 0.921875 -1.726562 0.921875 -1.6875 C 0.921875 -1.644531 0.921875 -1.59375 0.921875 -1.53125 C 0.921875 -1.34375 0.941406 -1.164062 0.984375 -1 C 1.035156 -0.84375 1.101562 -0.707031 1.1875 -0.59375 C 1.28125 -0.476562 1.382812 -0.390625 1.5 -0.328125 C 1.625 -0.265625 1.765625 -0.234375 1.921875 -0.234375 C 2.078125 -0.234375 2.222656 -0.269531 2.359375 -0.34375 C 2.492188 -0.414062 2.632812 -0.53125 2.78125 -0.6875 Z M 2.015625 -2.046875 C 2.085938 -2.046875 2.144531 -2.046875 2.1875 -2.046875 C 2.238281 -2.054688 2.273438 -2.066406 2.296875 -2.078125 C 2.328125 -2.085938 2.34375 -2.101562 2.34375 -2.125 C 2.351562 -2.144531 2.359375 -2.175781 2.359375 -2.21875 C 2.359375 -2.382812 2.300781 -2.519531 2.1875 -2.625 C 2.082031 -2.726562 1.929688 -2.78125 1.734375 -2.78125 C 1.328125 -2.78125 1.078125 -2.535156 0.984375 -2.046875 Z M 2.015625 -2.046875 "/></g></g></g><g fill="#000000" fill-opacity="1"><g transform="translate(199.768369, 82.40018)"><g><path d="M 2.734375 -0.46875 L 2.71875 -0.46875 C 2.582031 -0.28125 2.4375 -0.144531 2.28125 -0.0625 C 2.125 0.0195312 1.941406 0.0625 1.734375 0.0625 C 1.523438 0.0625 1.328125 0.0234375 1.140625 -0.046875 C 0.960938 -0.128906 0.804688 -0.238281 0.671875 -0.375 C 0.546875 -0.519531 0.445312 -0.6875 0.375 -0.875 C 0.300781 -1.070312 0.265625 -1.28125 0.265625 -1.5 C 0.265625 -1.726562 0.300781 -1.9375 0.375 -2.125 C 0.445312 -2.3125 0.546875 -2.472656 0.671875 -2.609375 C 0.804688 -2.753906 0.960938 -2.863281 1.140625 -2.9375 C 1.328125 -3.007812 1.523438 -3.046875 1.734375 -3.046875 C 1.921875 -3.046875 2.082031 -3.015625 2.21875 -2.953125 C 2.363281 -2.898438 2.503906 -2.804688 2.640625 -2.671875 L 2.640625 -3.25 C 2.640625 -3.46875 2.632812 -3.644531 2.625 -3.78125 C 2.625 -3.925781 2.617188 -4.023438 2.609375 -4.078125 C 2.585938 -4.160156 2.53125 -4.21875 2.4375 -4.25 C 2.351562 -4.289062 2.210938 -4.3125 2.015625 -4.3125 L 2.015625 -4.484375 L 3.171875 -4.6875 L 3.171875 -1.4375 C 3.171875 -1.175781 3.171875 -0.957031 3.171875 -0.78125 C 3.179688 -0.613281 3.195312 -0.5 3.21875 -0.4375 C 3.226562 -0.382812 3.238281 -0.34375 3.25 -0.3125 C 3.269531 -0.28125 3.296875 -0.253906 3.328125 -0.234375 C 3.359375 -0.222656 3.398438 -0.210938 3.453125 -0.203125 C 3.515625 -0.203125 3.585938 -0.203125 3.671875 -0.203125 L 3.671875 0 L 2.734375 0.0625 Z M 2.625 -1.71875 C 2.625 -1.914062 2.613281 -2.066406 2.59375 -2.171875 C 2.570312 -2.273438 2.53125 -2.363281 2.46875 -2.4375 C 2.382812 -2.550781 2.273438 -2.632812 2.140625 -2.6875 C 2.003906 -2.75 1.867188 -2.78125 1.734375 -2.78125 C 1.460938 -2.78125 1.253906 -2.664062 1.109375 -2.4375 C 0.972656 -2.21875 0.90625 -1.914062 0.90625 -1.53125 C 0.90625 -1.332031 0.921875 -1.148438 0.953125 -0.984375 C 0.992188 -0.828125 1.050781 -0.691406 1.125 -0.578125 C 1.195312 -0.460938 1.28125 -0.375 1.375 -0.3125 C 1.476562 -0.25 1.597656 -0.21875 1.734375 -0.21875 C 1.804688 -0.21875 1.875 -0.222656 1.9375 -0.234375 C 2.007812 -0.253906 2.078125 -0.28125 2.140625 -0.3125 C 2.210938 -0.34375 2.273438 -0.378906 2.328125 -0.421875 C 2.390625 -0.460938 2.441406 -0.515625 2.484375 -0.578125 C 2.535156 -0.660156 2.570312 -0.757812 2.59375 -0.875 C 2.613281 -0.988281 2.625 -1.148438 2.625 -1.359375 Z M 2.625 -1.71875 "/></g></g></g><g fill="#000000" fill-opacity="1"><g transform="translate(203.587742, 82.40018)"><g/></g></g><g fill="#000000" fill-opacity="1"><g transform="translate(205.211695, 82.40018)"><g><path d="M 4.453125 -3.28125 L 4.21875 -3.28125 C 4.207031 -3.4375 4.179688 -3.566406 4.140625 -3.671875 C 4.097656 -3.785156 4.035156 -3.875 3.953125 -3.9375 C 3.878906 -4 3.78125 -4.039062 3.65625 -4.0625 C 3.539062 -4.09375 3.40625 -4.109375 3.25 -4.109375 C 3.101562 -4.109375 2.988281 -4.101562 2.90625 -4.09375 C 2.820312 -4.09375 2.753906 -4.082031 2.703125 -4.0625 C 2.660156 -4.050781 2.632812 -4.035156 2.625 -4.015625 C 2.613281 -3.992188 2.609375 -3.96875 2.609375 -3.9375 L 2.609375 -0.90625 C 2.609375 -0.789062 2.613281 -0.6875 2.625 -0.59375 C 2.644531 -0.507812 2.679688 -0.441406 2.734375 -0.390625 C 2.785156 -0.335938 2.859375 -0.296875 2.953125 -0.265625 C 3.046875 -0.234375 3.175781 -0.21875 3.34375 -0.21875 L 3.34375 0 L 1.203125 0 L 1.203125 -0.21875 C 1.359375 -0.21875 1.484375 -0.234375 1.578125 -0.265625 C 1.679688 -0.296875 1.757812 -0.335938 1.8125 -0.390625 C 1.863281 -0.441406 1.894531 -0.507812 1.90625 -0.59375 C 1.925781 -0.6875 1.9375 -0.789062 1.9375 -0.90625 L 1.9375 -3.9375 C 1.9375 -3.96875 1.925781 -3.992188 1.90625 -4.015625 C 1.894531 -4.035156 1.867188 -4.050781 1.828125 -4.0625 C 1.796875 -4.082031 1.742188 -4.09375 1.671875 -4.09375 C 1.597656 -4.101562 1.5 -4.109375 1.375 -4.109375 C 1.226562 -4.109375 1.09375 -4.101562 0.96875 -4.09375 C 0.84375 -4.082031 0.734375 -4.050781 0.640625 -4 C 0.546875 -3.945312 0.46875 -3.863281 0.40625 -3.75 C 0.351562 -3.632812 0.328125 -3.476562 0.328125 -3.28125 L 0.125 -3.28125 L 0.125 -4.359375 L 4.390625 -4.359375 Z M 4.453125 -3.28125 "/></g></g></g><g fill="#000000" fill-opacity="1"><g transform="translate(209.755336, 82.40018)"><g><path d="M 1.96875 -1.671875 C 1.757812 -1.585938 1.578125 -1.503906 1.421875 -1.421875 C 1.273438 -1.347656 1.15625 -1.269531 1.0625 -1.1875 C 0.976562 -1.113281 0.914062 -1.035156 0.875 -0.953125 C 0.832031 -0.878906 0.8125 -0.800781 0.8125 -0.71875 C 0.8125 -0.59375 0.851562 -0.488281 0.9375 -0.40625 C 1.019531 -0.320312 1.128906 -0.28125 1.265625 -0.28125 C 1.359375 -0.28125 1.445312 -0.304688 1.53125 -0.359375 C 1.625 -0.410156 1.703125 -0.476562 1.765625 -0.5625 C 1.828125 -0.644531 1.875 -0.742188 1.90625 -0.859375 C 1.945312 -0.972656 1.96875 -1.097656 1.96875 -1.234375 Z M 1.96875 -1.921875 L 1.96875 -2.15625 C 1.96875 -2.613281 1.773438 -2.84375 1.390625 -2.84375 C 1.328125 -2.84375 1.269531 -2.835938 1.21875 -2.828125 C 1.175781 -2.816406 1.140625 -2.796875 1.109375 -2.765625 C 1.078125 -2.734375 1.046875 -2.691406 1.015625 -2.640625 C 0.992188 -2.597656 0.972656 -2.539062 0.953125 -2.46875 C 0.910156 -2.363281 0.867188 -2.289062 0.828125 -2.25 C 0.796875 -2.21875 0.738281 -2.203125 0.65625 -2.203125 C 0.46875 -2.203125 0.375 -2.296875 0.375 -2.484375 C 0.375 -2.660156 0.46875 -2.796875 0.65625 -2.890625 C 0.851562 -2.992188 1.128906 -3.046875 1.484375 -3.046875 C 1.859375 -3.046875 2.125 -2.976562 2.28125 -2.84375 C 2.445312 -2.71875 2.53125 -2.492188 2.53125 -2.171875 L 2.53125 -0.90625 C 2.53125 -0.476562 2.613281 -0.265625 2.78125 -0.265625 C 2.832031 -0.265625 2.882812 -0.269531 2.9375 -0.28125 C 2.988281 -0.289062 3.03125 -0.328125 3.0625 -0.390625 L 3.140625 -0.25 C 3.097656 -0.164062 3.015625 -0.09375 2.890625 -0.03125 C 2.765625 0.03125 2.640625 0.0625 2.515625 0.0625 C 2.347656 0.0625 2.222656 0.0078125 2.140625 -0.09375 C 2.054688 -0.207031 2.015625 -0.359375 2.015625 -0.546875 L 1.984375 -0.546875 C 1.890625 -0.359375 1.753906 -0.210938 1.578125 -0.109375 C 1.410156 -0.00390625 1.21875 0.046875 1 0.046875 C 0.769531 0.046875 0.585938 -0.0078125 0.453125 -0.125 C 0.316406 -0.25 0.25 -0.410156 0.25 -0.609375 C 0.25 -0.703125 0.265625 -0.789062 0.296875 -0.875 C 0.328125 -0.957031 0.375 -1.035156 0.4375 -1.109375 C 0.507812 -1.191406 0.601562 -1.269531 0.71875 -1.34375 C 0.84375 -1.414062 0.988281 -1.488281 1.15625 -1.5625 Z M 1.96875 -1.921875 "/></g></g></g><g fill="#000000" fill-opacity="1"><g transform="translate(212.890049, 82.40018)"><g><path d="M 0.484375 0 L 0.359375 0 L 0.359375 -0.96875 L 0.5 -0.96875 C 0.644531 -0.4375 0.914062 -0.171875 1.3125 -0.171875 C 1.457031 -0.171875 1.570312 -0.207031 1.65625 -0.28125 C 1.75 -0.351562 1.796875 -0.46875 1.796875 -0.625 C 1.796875 -0.675781 1.785156 -0.722656 1.765625 -0.765625 C 1.753906 -0.804688 1.722656 -0.847656 1.671875 -0.890625 C 1.628906 -0.929688 1.566406 -0.976562 1.484375 -1.03125 C 1.398438 -1.09375 1.285156 -1.164062 1.140625 -1.25 C 1.015625 -1.332031 0.90625 -1.40625 0.8125 -1.46875 C 0.71875 -1.539062 0.632812 -1.609375 0.5625 -1.671875 C 0.5 -1.742188 0.453125 -1.820312 0.421875 -1.90625 C 0.390625 -1.988281 0.375 -2.082031 0.375 -2.1875 C 0.375 -2.3125 0.394531 -2.425781 0.4375 -2.53125 C 0.488281 -2.644531 0.550781 -2.738281 0.625 -2.8125 C 0.695312 -2.882812 0.785156 -2.941406 0.890625 -2.984375 C 0.992188 -3.023438 1.101562 -3.046875 1.21875 -3.046875 C 1.320312 -3.046875 1.425781 -3.03125 1.53125 -3 C 1.644531 -2.96875 1.742188 -2.925781 1.828125 -2.875 L 1.9375 -3 L 2.046875 -3 L 2.046875 -2.1875 L 1.90625 -2.1875 C 1.820312 -2.414062 1.726562 -2.578125 1.625 -2.671875 C 1.53125 -2.773438 1.410156 -2.828125 1.265625 -2.828125 C 1.140625 -2.828125 1.035156 -2.789062 0.953125 -2.71875 C 0.878906 -2.65625 0.84375 -2.5625 0.84375 -2.4375 C 0.84375 -2.375 0.851562 -2.316406 0.875 -2.265625 C 0.894531 -2.222656 0.925781 -2.175781 0.96875 -2.125 C 1.019531 -2.082031 1.078125 -2.035156 1.140625 -1.984375 C 1.210938 -1.941406 1.296875 -1.890625 1.390625 -1.828125 C 1.554688 -1.734375 1.695312 -1.644531 1.8125 -1.5625 C 1.925781 -1.476562 2.019531 -1.394531 2.09375 -1.3125 C 2.164062 -1.238281 2.21875 -1.160156 2.25 -1.078125 C 2.28125 -1.003906 2.296875 -0.910156 2.296875 -0.796875 C 2.296875 -0.535156 2.207031 -0.328125 2.03125 -0.171875 C 1.863281 -0.015625 1.640625 0.0625 1.359375 0.0625 C 1.066406 0.0625 0.8125 -0.0234375 0.59375 -0.203125 Z M 0.484375 0 "/></g></g></g><g fill="#000000" fill-opacity="1"><g transform="translate(215.458943, 82.40018)"><g><path d="M 1.96875 -0.203125 C 2.09375 -0.203125 2.175781 -0.207031 2.21875 -0.21875 C 2.269531 -0.226562 2.296875 -0.242188 2.296875 -0.265625 C 2.296875 -0.296875 2.265625 -0.347656 2.203125 -0.421875 C 2.148438 -0.503906 2.078125 -0.597656 1.984375 -0.703125 L 1.390625 -1.4375 L 1.171875 -1.234375 L 1.171875 -0.90625 C 1.171875 -0.75 1.175781 -0.625 1.1875 -0.53125 C 1.207031 -0.445312 1.234375 -0.378906 1.265625 -0.328125 C 1.304688 -0.285156 1.359375 -0.253906 1.421875 -0.234375 C 1.492188 -0.210938 1.585938 -0.203125 1.703125 -0.203125 L 1.703125 0 L 0.09375 0 L 0.09375 -0.203125 C 0.207031 -0.203125 0.296875 -0.210938 0.359375 -0.234375 C 0.429688 -0.253906 0.488281 -0.285156 0.53125 -0.328125 C 0.570312 -0.378906 0.597656 -0.445312 0.609375 -0.53125 C 0.628906 -0.613281 0.640625 -0.722656 0.640625 -0.859375 L 0.640625 -3.234375 C 0.640625 -3.515625 0.632812 -3.726562 0.625 -3.875 C 0.625 -4.019531 0.609375 -4.125 0.578125 -4.1875 C 0.535156 -4.238281 0.472656 -4.265625 0.390625 -4.265625 C 0.316406 -4.273438 0.210938 -4.28125 0.078125 -4.28125 L 0.078125 -4.484375 L 1.171875 -4.6875 L 1.171875 -1.59375 L 1.703125 -2.109375 C 1.867188 -2.273438 1.992188 -2.398438 2.078125 -2.484375 C 2.160156 -2.566406 2.203125 -2.628906 2.203125 -2.671875 C 2.203125 -2.703125 2.160156 -2.726562 2.078125 -2.75 C 2.003906 -2.78125 1.894531 -2.796875 1.75 -2.796875 L 1.75 -3 L 3.21875 -3 L 3.21875 -2.796875 C 3.144531 -2.796875 3.082031 -2.789062 3.03125 -2.78125 C 2.976562 -2.78125 2.925781 -2.765625 2.875 -2.734375 C 2.832031 -2.710938 2.785156 -2.679688 2.734375 -2.640625 C 2.679688 -2.609375 2.617188 -2.5625 2.546875 -2.5 L 1.734375 -1.78125 L 2.859375 -0.515625 C 2.910156 -0.441406 2.957031 -0.382812 3 -0.34375 C 3.039062 -0.3125 3.082031 -0.28125 3.125 -0.25 C 3.175781 -0.226562 3.222656 -0.210938 3.265625 -0.203125 C 3.316406 -0.203125 3.378906 -0.203125 3.453125 -0.203125 L 3.453125 0 L 1.96875 0 Z M 1.96875 -0.203125 "/></g></g></g><g fill="#000000" fill-opacity="1"><g transform="translate(218.944491, 82.40018)"><g><path d="M 0.484375 0 L 0.359375 0 L 0.359375 -0.96875 L 0.5 -0.96875 C 0.644531 -0.4375 0.914062 -0.171875 1.3125 -0.171875 C 1.457031 -0.171875 1.570312 -0.207031 1.65625 -0.28125 C 1.75 -0.351562 1.796875 -0.46875 1.796875 -0.625 C 1.796875 -0.675781 1.785156 -0.722656 1.765625 -0.765625 C 1.753906 -0.804688 1.722656 -0.847656 1.671875 -0.890625 C 1.628906 -0.929688 1.566406 -0.976562 1.484375 -1.03125 C 1.398438 -1.09375 1.285156 -1.164062 1.140625 -1.25 C 1.015625 -1.332031 0.90625 -1.40625 0.8125 -1.46875 C 0.71875 -1.539062 0.632812 -1.609375 0.5625 -1.671875 C 0.5 -1.742188 0.453125 -1.820312 0.421875 -1.90625 C 0.390625 -1.988281 0.375 -2.082031 0.375 -2.1875 C 0.375 -2.3125 0.394531 -2.425781 0.4375 -2.53125 C 0.488281 -2.644531 0.550781 -2.738281 0.625 -2.8125 C 0.695312 -2.882812 0.785156 -2.941406 0.890625 -2.984375 C 0.992188 -3.023438 1.101562 -3.046875 1.21875 -3.046875 C 1.320312 -3.046875 1.425781 -3.03125 1.53125 -3 C 1.644531 -2.96875 1.742188 -2.925781 1.828125 -2.875 L 1.9375 -3 L 2.046875 -3 L 2.046875 -2.1875 L 1.90625 -2.1875 C 1.820312 -2.414062 1.726562 -2.578125 1.625 -2.671875 C 1.53125 -2.773438 1.410156 -2.828125 1.265625 -2.828125 C 1.140625 -2.828125 1.035156 -2.789062 0.953125 -2.71875 C 0.878906 -2.65625 0.84375 -2.5625 0.84375 -2.4375 C 0.84375 -2.375 0.851562 -2.316406 0.875 -2.265625 C 0.894531 -2.222656 0.925781 -2.175781 0.96875 -2.125 C 1.019531 -2.082031 1.078125 -2.035156 1.140625 -1.984375 C 1.210938 -1.941406 1.296875 -1.890625 1.390625 -1.828125 C 1.554688 -1.734375 1.695312 -1.644531 1.8125 -1.5625 C 1.925781 -1.476562 2.019531 -1.394531 2.09375 -1.3125 C 2.164062 -1.238281 2.21875 -1.160156 2.25 -1.078125 C 2.28125 -1.003906 2.296875 -0.910156 2.296875 -0.796875 C 2.296875 -0.535156 2.207031 -0.328125 2.03125 -0.171875 C 1.863281 -0.015625 1.640625 0.0625 1.359375 0.0625 C 1.066406 0.0625 0.8125 -0.0234375 0.59375 -0.203125 Z M 0.484375 0 "/></g></g></g><g clip-path="url(#89e025d7b5)"><g clip-path="url(#a13d82509a)"><path fill="#2ed1c1" d="M 1.707031 15 L 373.425781 15 L 373.425781 116.339844 L 1.707031 116.339844 Z M 1.707031 15 " fill-opacity="1" fill-rule="nonzero"/></g></g><g fill="#000000" fill-opacity="1"><g transform="translate(20.856755, 74.45361)"><g><path d="M 10.65625 -4.1875 C 10.65625 -4.695312 10.539062 -5.125 10.3125 -5.46875 C 10.082031 -5.820312 9.785156 -6.117188 9.421875 -6.359375 C 9.054688 -6.597656 8.65625 -6.796875 8.21875 -6.953125 C 7.78125 -7.117188 7.359375 -7.265625 6.953125 -7.390625 C 6.367188 -7.578125 5.773438 -7.800781 5.171875 -8.0625 C 4.566406 -8.332031 4.015625 -8.660156 3.515625 -9.046875 C 3.023438 -9.441406 2.617188 -9.898438 2.296875 -10.421875 C 1.984375 -10.953125 1.828125 -11.578125 1.828125 -12.296875 C 1.828125 -13.003906 1.984375 -13.640625 2.296875 -14.203125 C 2.617188 -14.765625 3.035156 -15.238281 3.546875 -15.625 C 4.054688 -16.007812 4.628906 -16.300781 5.265625 -16.5 C 5.910156 -16.707031 6.5625 -16.8125 7.21875 -16.8125 C 7.9375 -16.8125 8.628906 -16.691406 9.296875 -16.453125 C 9.972656 -16.210938 10.566406 -15.875 11.078125 -15.4375 C 11.597656 -15.007812 12.015625 -14.488281 12.328125 -13.875 C 12.640625 -13.257812 12.800781 -12.570312 12.8125 -11.8125 L 10.65625 -11.8125 C 10.59375 -12.289062 10.472656 -12.722656 10.296875 -13.109375 C 10.117188 -13.503906 9.882812 -13.84375 9.59375 -14.125 C 9.3125 -14.40625 8.96875 -14.625 8.5625 -14.78125 C 8.164062 -14.9375 7.71875 -15.015625 7.21875 -15.015625 C 6.820312 -15.015625 6.429688 -14.957031 6.046875 -14.84375 C 5.660156 -14.726562 5.316406 -14.554688 5.015625 -14.328125 C 4.710938 -14.097656 4.472656 -13.816406 4.296875 -13.484375 C 4.117188 -13.148438 4.03125 -12.765625 4.03125 -12.328125 C 4.039062 -11.847656 4.160156 -11.441406 4.390625 -11.109375 C 4.628906 -10.773438 4.925781 -10.492188 5.28125 -10.265625 C 5.644531 -10.046875 6.035156 -9.859375 6.453125 -9.703125 C 6.878906 -9.554688 7.28125 -9.425781 7.65625 -9.3125 C 8.0625 -9.175781 8.472656 -9.023438 8.890625 -8.859375 C 9.304688 -8.703125 9.707031 -8.515625 10.09375 -8.296875 C 10.488281 -8.085938 10.851562 -7.847656 11.1875 -7.578125 C 11.519531 -7.316406 11.8125 -7.015625 12.0625 -6.671875 C 12.3125 -6.335938 12.503906 -5.96875 12.640625 -5.5625 C 12.785156 -5.15625 12.859375 -4.707031 12.859375 -4.21875 C 12.859375 -3.46875 12.691406 -2.816406 12.359375 -2.265625 C 12.035156 -1.710938 11.609375 -1.25 11.078125 -0.875 C 10.554688 -0.507812 9.960938 -0.234375 9.296875 -0.046875 C 8.640625 0.140625 7.984375 0.234375 7.328125 0.234375 C 6.585938 0.234375 5.863281 0.117188 5.15625 -0.109375 C 4.445312 -0.335938 3.8125 -0.664062 3.25 -1.09375 C 2.695312 -1.53125 2.242188 -2.054688 1.890625 -2.671875 C 1.546875 -3.285156 1.363281 -3.988281 1.34375 -4.78125 L 3.5 -4.78125 C 3.5625 -4.269531 3.695312 -3.8125 3.90625 -3.40625 C 4.125 -3.007812 4.398438 -2.671875 4.734375 -2.390625 C 5.066406 -2.117188 5.453125 -1.910156 5.890625 -1.765625 C 6.328125 -1.628906 6.804688 -1.5625 7.328125 -1.5625 C 7.734375 -1.5625 8.132812 -1.613281 8.53125 -1.71875 C 8.9375 -1.820312 9.289062 -1.976562 9.59375 -2.1875 C 9.90625 -2.40625 10.160156 -2.679688 10.359375 -3.015625 C 10.554688 -3.347656 10.65625 -3.738281 10.65625 -4.1875 Z M 10.65625 -4.1875 "/></g></g></g><g fill="#000000" fill-opacity="1"><g transform="translate(34.856821, 74.45361)"><g><path d="M 4.09375 -10.484375 C 4.53125 -11.128906 5.070312 -11.632812 5.71875 -12 C 6.363281 -12.363281 7.085938 -12.546875 7.890625 -12.546875 C 8.535156 -12.546875 9.117188 -12.453125 9.640625 -12.265625 C 10.171875 -12.085938 10.625 -11.800781 11 -11.40625 C 11.375 -11.007812 11.660156 -10.507812 11.859375 -9.90625 C 12.066406 -9.300781 12.171875 -8.582031 12.171875 -7.75 L 12.171875 0 L 10.0625 0 L 10.0625 -7.78125 C 10.0625 -8.789062 9.816406 -9.539062 9.328125 -10.03125 C 8.847656 -10.53125 8.160156 -10.773438 7.265625 -10.765625 C 6.585938 -10.765625 5.972656 -10.597656 5.421875 -10.265625 C 4.878906 -9.929688 4.4375 -9.492188 4.09375 -8.953125 L 4.09375 0 L 1.984375 0 L 1.984375 -17.5 L 4.09375 -17.5 Z M 4.09375 -10.484375 "/></g></g></g><g fill="#000000" fill-opacity="1"><g transform="translate(48.856888, 74.45361)"><g><path d="M 1.390625 -6.28125 C 1.390625 -7.164062 1.519531 -7.988281 1.78125 -8.75 C 2.039062 -9.519531 2.410156 -10.179688 2.890625 -10.734375 C 3.367188 -11.296875 3.953125 -11.738281 4.640625 -12.0625 C 5.335938 -12.382812 6.117188 -12.546875 6.984375 -12.546875 C 7.859375 -12.546875 8.640625 -12.382812 9.328125 -12.0625 C 10.023438 -11.738281 10.613281 -11.296875 11.09375 -10.734375 C 11.582031 -10.179688 11.953125 -9.519531 12.203125 -8.75 C 12.460938 -7.988281 12.59375 -7.164062 12.59375 -6.28125 L 12.59375 -6.03125 C 12.59375 -5.132812 12.460938 -4.304688 12.203125 -3.546875 C 11.953125 -2.796875 11.582031 -2.140625 11.09375 -1.578125 C 10.613281 -1.015625 10.023438 -0.570312 9.328125 -0.25 C 8.640625 0.0703125 7.863281 0.234375 7 0.234375 C 6.132812 0.234375 5.351562 0.0703125 4.65625 -0.25 C 3.957031 -0.570312 3.367188 -1.015625 2.890625 -1.578125 C 2.410156 -2.140625 2.039062 -2.796875 1.78125 -3.546875 C 1.519531 -4.304688 1.390625 -5.132812 1.390625 -6.03125 Z M 3.5 -6.03125 C 3.5 -5.414062 3.570312 -4.832031 3.71875 -4.28125 C 3.863281 -3.738281 4.082031 -3.253906 4.375 -2.828125 C 4.664062 -2.410156 5.03125 -2.082031 5.46875 -1.84375 C 5.90625 -1.601562 6.414062 -1.484375 7 -1.484375 C 7.582031 -1.484375 8.09375 -1.601562 8.53125 -1.84375 C 8.96875 -2.082031 9.332031 -2.410156 9.625 -2.828125 C 9.914062 -3.253906 10.128906 -3.738281 10.265625 -4.28125 C 10.410156 -4.832031 10.484375 -5.414062 10.484375 -6.03125 L 10.484375 -6.28125 C 10.484375 -6.875 10.410156 -7.445312 10.265625 -8 C 10.117188 -8.550781 9.898438 -9.035156 9.609375 -9.453125 C 9.316406 -9.867188 8.953125 -10.203125 8.515625 -10.453125 C 8.078125 -10.703125 7.566406 -10.828125 6.984375 -10.828125 C 6.398438 -10.828125 5.890625 -10.703125 5.453125 -10.453125 C 5.023438 -10.203125 4.664062 -9.867188 4.375 -9.453125 C 4.082031 -9.035156 3.863281 -8.550781 3.71875 -8 C 3.570312 -7.445312 3.5 -6.875 3.5 -6.28125 Z M 3.5 -6.03125 "/></g></g></g><g fill="#000000" fill-opacity="1"><g transform="translate(62.856954, 74.45361)"><g><path d="M 3.84375 -4.46875 L 4.09375 -2.703125 L 4.40625 -4.46875 L 6.375 -12.328125 L 7.734375 -12.328125 L 9.6875 -4.46875 L 10.03125 -2.53125 L 10.328125 -4.46875 L 11.703125 -12.328125 L 13.5625 -12.328125 L 10.953125 0 L 9.28125 0 L 7.359375 -7.546875 L 7.046875 -9.46875 L 6.734375 -7.546875 L 4.828125 0 L 3.171875 0 L 0.546875 -12.328125 L 2.421875 -12.328125 Z M 3.84375 -4.46875 "/></g></g></g><g fill="#000000" fill-opacity="1"><g transform="translate(76.857021, 74.45361)"><g/></g></g><g fill="#000000" fill-opacity="1"><g transform="translate(90.866757, 74.45361)"><g><path d="M 12.25 -5.203125 C 12.132812 -4.367188 11.890625 -3.613281 11.515625 -2.9375 C 11.140625 -2.257812 10.664062 -1.679688 10.09375 -1.203125 C 9.53125 -0.722656 8.878906 -0.359375 8.140625 -0.109375 C 7.410156 0.140625 6.625 0.253906 5.78125 0.234375 C 5.101562 0.222656 4.503906 0.113281 3.984375 -0.09375 C 3.460938 -0.300781 3.007812 -0.582031 2.625 -0.9375 C 2.238281 -1.289062 1.921875 -1.703125 1.671875 -2.171875 C 1.421875 -2.648438 1.226562 -3.160156 1.09375 -3.703125 C 0.96875 -4.242188 0.894531 -4.804688 0.875 -5.390625 C 0.851562 -5.984375 0.878906 -6.578125 0.953125 -7.171875 L 1.28125 -9.390625 C 1.375 -10.003906 1.515625 -10.617188 1.703125 -11.234375 C 1.898438 -11.859375 2.144531 -12.445312 2.4375 -13 C 2.726562 -13.550781 3.066406 -14.0625 3.453125 -14.53125 C 3.847656 -15.007812 4.289062 -15.421875 4.78125 -15.765625 C 5.28125 -16.109375 5.828125 -16.375 6.421875 -16.5625 C 7.015625 -16.75 7.660156 -16.835938 8.359375 -16.828125 C 9.210938 -16.804688 9.953125 -16.65625 10.578125 -16.375 C 11.210938 -16.09375 11.734375 -15.703125 12.140625 -15.203125 C 12.554688 -14.710938 12.867188 -14.128906 13.078125 -13.453125 C 13.296875 -12.773438 13.414062 -12.035156 13.4375 -11.234375 L 10.34375 -11.25 C 10.34375 -11.644531 10.3125 -12.019531 10.25 -12.375 C 10.195312 -12.738281 10.085938 -13.050781 9.921875 -13.3125 C 9.765625 -13.582031 9.539062 -13.796875 9.25 -13.953125 C 8.957031 -14.117188 8.585938 -14.210938 8.140625 -14.234375 C 7.703125 -14.242188 7.316406 -14.175781 6.984375 -14.03125 C 6.648438 -13.894531 6.351562 -13.707031 6.09375 -13.46875 C 5.84375 -13.226562 5.625 -12.941406 5.4375 -12.609375 C 5.25 -12.285156 5.085938 -11.941406 4.953125 -11.578125 C 4.828125 -11.222656 4.722656 -10.859375 4.640625 -10.484375 C 4.554688 -10.117188 4.492188 -9.765625 4.453125 -9.421875 L 4.140625 -7.15625 C 4.097656 -6.875 4.0625 -6.5625 4.03125 -6.21875 C 4 -5.875 3.984375 -5.523438 3.984375 -5.171875 C 3.992188 -4.828125 4.03125 -4.488281 4.09375 -4.15625 C 4.15625 -3.820312 4.257812 -3.523438 4.40625 -3.265625 C 4.5625 -3.003906 4.765625 -2.789062 5.015625 -2.625 C 5.273438 -2.457031 5.609375 -2.367188 6.015625 -2.359375 C 6.472656 -2.335938 6.878906 -2.394531 7.234375 -2.53125 C 7.585938 -2.664062 7.894531 -2.859375 8.15625 -3.109375 C 8.414062 -3.359375 8.628906 -3.660156 8.796875 -4.015625 C 8.960938 -4.367188 9.085938 -4.757812 9.171875 -5.1875 Z M 12.25 -5.203125 "/></g></g></g><g fill="#000000" fill-opacity="1"><g transform="translate(104.559245, 74.45361)"><g><path d="M 1.03125 -6.203125 C 1.144531 -7.066406 1.375 -7.882812 1.71875 -8.65625 C 2.0625 -9.4375 2.507812 -10.117188 3.0625 -10.703125 C 3.613281 -11.285156 4.265625 -11.742188 5.015625 -12.078125 C 5.773438 -12.421875 6.617188 -12.578125 7.546875 -12.546875 C 8.441406 -12.535156 9.207031 -12.351562 9.84375 -12 C 10.476562 -11.65625 10.992188 -11.195312 11.390625 -10.625 C 11.796875 -10.050781 12.070312 -9.390625 12.21875 -8.640625 C 12.375 -7.898438 12.410156 -7.125 12.328125 -6.3125 L 12.296875 -6.0625 C 12.179688 -5.195312 11.953125 -4.378906 11.609375 -3.609375 C 11.265625 -2.835938 10.816406 -2.160156 10.265625 -1.578125 C 9.710938 -1.003906 9.054688 -0.550781 8.296875 -0.21875 C 7.546875 0.101562 6.707031 0.253906 5.78125 0.234375 C 4.90625 0.222656 4.144531 0.046875 3.5 -0.296875 C 2.863281 -0.640625 2.347656 -1.09375 1.953125 -1.65625 C 1.554688 -2.226562 1.28125 -2.882812 1.125 -3.625 C 0.96875 -4.363281 0.929688 -5.140625 1.015625 -5.953125 Z M 4.09375 -5.953125 C 4.0625 -5.578125 4.046875 -5.175781 4.046875 -4.75 C 4.054688 -4.332031 4.125 -3.941406 4.25 -3.578125 C 4.375 -3.222656 4.578125 -2.921875 4.859375 -2.671875 C 5.140625 -2.421875 5.523438 -2.289062 6.015625 -2.28125 C 6.523438 -2.257812 6.96875 -2.363281 7.34375 -2.59375 C 7.726562 -2.832031 8.046875 -3.132812 8.296875 -3.5 C 8.554688 -3.875 8.753906 -4.285156 8.890625 -4.734375 C 9.023438 -5.179688 9.125 -5.625 9.1875 -6.0625 L 9.21875 -6.296875 C 9.238281 -6.546875 9.253906 -6.804688 9.265625 -7.078125 C 9.273438 -7.359375 9.265625 -7.632812 9.234375 -7.90625 C 9.203125 -8.175781 9.144531 -8.4375 9.0625 -8.6875 C 8.976562 -8.9375 8.863281 -9.15625 8.71875 -9.34375 C 8.570312 -9.53125 8.382812 -9.679688 8.15625 -9.796875 C 7.925781 -9.921875 7.648438 -9.988281 7.328125 -10 C 6.796875 -10.019531 6.34375 -9.914062 5.96875 -9.6875 C 5.59375 -9.457031 5.273438 -9.15625 5.015625 -8.78125 C 4.765625 -8.40625 4.566406 -7.988281 4.421875 -7.53125 C 4.273438 -7.082031 4.175781 -6.640625 4.125 -6.203125 Z M 4.09375 -5.953125 "/></g></g></g><g fill="#000000" fill-opacity="1"><g transform="translate(118.251733, 74.45361)"><g><path d="M 4.421875 -12.34375 L 4.140625 -10.828125 C 4.273438 -11.078125 4.425781 -11.304688 4.59375 -11.515625 C 4.769531 -11.722656 4.960938 -11.90625 5.171875 -12.0625 C 5.378906 -12.21875 5.609375 -12.335938 5.859375 -12.421875 C 6.117188 -12.515625 6.398438 -12.5625 6.703125 -12.5625 C 7.160156 -12.550781 7.539062 -12.441406 7.84375 -12.234375 C 8.15625 -12.023438 8.363281 -11.695312 8.46875 -11.25 C 8.769531 -11.632812 9.109375 -11.945312 9.484375 -12.1875 C 9.859375 -12.4375 10.304688 -12.554688 10.828125 -12.546875 C 11.160156 -12.546875 11.445312 -12.488281 11.6875 -12.375 C 11.925781 -12.257812 12.125 -12.101562 12.28125 -11.90625 C 12.445312 -11.71875 12.578125 -11.492188 12.671875 -11.234375 C 12.773438 -10.984375 12.847656 -10.71875 12.890625 -10.4375 C 12.941406 -10.164062 12.96875 -9.890625 12.96875 -9.609375 C 12.96875 -9.328125 12.953125 -9.054688 12.921875 -8.796875 L 11.46875 0 L 8.65625 0 L 10.15625 -8.828125 C 10.164062 -8.953125 10.171875 -9.078125 10.171875 -9.203125 C 10.171875 -9.335938 10.148438 -9.460938 10.109375 -9.578125 C 10.078125 -9.691406 10.015625 -9.785156 9.921875 -9.859375 C 9.835938 -9.941406 9.71875 -9.984375 9.5625 -9.984375 C 9.332031 -9.984375 9.140625 -9.925781 8.984375 -9.8125 C 8.835938 -9.695312 8.695312 -9.566406 8.5625 -9.421875 L 6.921875 0 L 4.1875 0 L 5.6875 -8.84375 C 5.695312 -8.957031 5.703125 -9.082031 5.703125 -9.21875 C 5.703125 -9.363281 5.6875 -9.488281 5.65625 -9.59375 C 5.625 -9.707031 5.5625 -9.800781 5.46875 -9.875 C 5.382812 -9.945312 5.257812 -9.984375 5.09375 -9.984375 C 4.84375 -9.984375 4.632812 -9.90625 4.46875 -9.75 C 4.3125 -9.601562 4.175781 -9.429688 4.0625 -9.234375 L 2.453125 0 L -0.359375 0 L 1.78125 -12.328125 Z M 4.421875 -12.34375 "/></g></g></g><g fill="#000000" fill-opacity="1"><g transform="translate(131.944221, 74.45361)"><g><path d="M 12.171875 -6.109375 C 12.109375 -5.609375 12.007812 -5.101562 11.875 -4.59375 C 11.738281 -4.082031 11.5625 -3.585938 11.34375 -3.109375 C 11.132812 -2.628906 10.878906 -2.179688 10.578125 -1.765625 C 10.273438 -1.359375 9.925781 -1.003906 9.53125 -0.703125 C 9.144531 -0.398438 8.707031 -0.164062 8.21875 0 C 7.738281 0.175781 7.207031 0.253906 6.625 0.234375 C 6.0625 0.222656 5.535156 0.109375 5.046875 -0.109375 C 4.566406 -0.328125 4.144531 -0.65625 3.78125 -1.09375 L 2.671875 4.734375 L -0.40625 4.734375 L 2.546875 -12.328125 L 5.375 -12.34375 L 5.1875 -11.109375 C 5.613281 -11.578125 6.09375 -11.9375 6.625 -12.1875 C 7.15625 -12.445312 7.742188 -12.566406 8.390625 -12.546875 C 8.953125 -12.535156 9.441406 -12.441406 9.859375 -12.265625 C 10.273438 -12.085938 10.632812 -11.84375 10.9375 -11.53125 C 11.238281 -11.226562 11.484375 -10.875 11.671875 -10.46875 C 11.859375 -10.0625 12 -9.632812 12.09375 -9.1875 C 12.1875 -8.738281 12.238281 -8.269531 12.25 -7.78125 C 12.257812 -7.300781 12.242188 -6.832031 12.203125 -6.375 Z M 9.09375 -6.375 C 9.132812 -6.71875 9.15625 -7.097656 9.15625 -7.515625 C 9.15625 -7.929688 9.097656 -8.316406 8.984375 -8.671875 C 8.878906 -9.035156 8.703125 -9.335938 8.453125 -9.578125 C 8.203125 -9.828125 7.84375 -9.960938 7.375 -9.984375 C 6.875 -9.992188 6.429688 -9.890625 6.046875 -9.671875 C 5.660156 -9.453125 5.316406 -9.144531 5.015625 -8.75 L 4.109375 -3.578125 C 4.273438 -3.140625 4.519531 -2.820312 4.84375 -2.625 C 5.164062 -2.425781 5.554688 -2.316406 6.015625 -2.296875 C 6.523438 -2.285156 6.960938 -2.394531 7.328125 -2.625 C 7.691406 -2.863281 7.992188 -3.171875 8.234375 -3.546875 C 8.484375 -3.921875 8.671875 -4.335938 8.796875 -4.796875 C 8.929688 -5.253906 9.023438 -5.695312 9.078125 -6.125 Z M 9.09375 -6.375 "/></g></g></g><g fill="#000000" fill-opacity="1"><g transform="translate(145.636708, 74.45361)"><g><path d="M 4.046875 -17.5 L 10.734375 -17.5 L 8.15625 -2.578125 L 11.578125 -2.578125 L 11.125 0 L 1 0 L 1.453125 -2.578125 L 5.03125 -2.578125 L 7.171875 -14.90625 L 3.59375 -14.90625 Z M 4.046875 -17.5 "/></g></g></g><g fill="#000000" fill-opacity="1"><g transform="translate(159.329196, 74.45361)"><g><path d="M 6.328125 0.234375 C 5.484375 0.210938 4.722656 0.0507812 4.046875 -0.25 C 3.367188 -0.5625 2.796875 -0.976562 2.328125 -1.5 C 1.859375 -2.03125 1.515625 -2.648438 1.296875 -3.359375 C 1.078125 -4.078125 1.003906 -4.859375 1.078125 -5.703125 L 1.125 -6.15625 C 1.226562 -7.019531 1.460938 -7.84375 1.828125 -8.625 C 2.191406 -9.414062 2.660156 -10.101562 3.234375 -10.6875 C 3.816406 -11.269531 4.492188 -11.734375 5.265625 -12.078125 C 6.046875 -12.421875 6.890625 -12.578125 7.796875 -12.546875 C 8.660156 -12.523438 9.398438 -12.347656 10.015625 -12.015625 C 10.640625 -11.679688 11.144531 -11.234375 11.53125 -10.671875 C 11.914062 -10.117188 12.175781 -9.476562 12.3125 -8.75 C 12.457031 -8.03125 12.476562 -7.273438 12.375 -6.484375 L 12.171875 -5.140625 L 4.125 -5.140625 C 4.101562 -4.742188 4.148438 -4.375 4.265625 -4.03125 C 4.378906 -3.695312 4.546875 -3.40625 4.765625 -3.15625 C 4.984375 -2.90625 5.25 -2.703125 5.5625 -2.546875 C 5.882812 -2.398438 6.25 -2.328125 6.65625 -2.328125 C 7.300781 -2.304688 7.910156 -2.414062 8.484375 -2.65625 C 9.066406 -2.90625 9.578125 -3.257812 10.015625 -3.71875 L 11.40625 -2 C 11.132812 -1.601562 10.800781 -1.265625 10.40625 -0.984375 C 10.019531 -0.703125 9.597656 -0.46875 9.140625 -0.28125 C 8.691406 -0.101562 8.222656 0.0234375 7.734375 0.109375 C 7.253906 0.191406 6.785156 0.234375 6.328125 0.234375 Z M 7.578125 -10 C 7.160156 -10.019531 6.789062 -9.953125 6.46875 -9.796875 C 6.144531 -9.640625 5.851562 -9.429688 5.59375 -9.171875 C 5.34375 -8.921875 5.117188 -8.628906 4.921875 -8.296875 C 4.734375 -7.972656 4.570312 -7.644531 4.4375 -7.3125 L 9.453125 -7.3125 L 9.515625 -7.59375 C 9.566406 -7.925781 9.554688 -8.238281 9.484375 -8.53125 C 9.421875 -8.820312 9.300781 -9.070312 9.125 -9.28125 C 8.957031 -9.5 8.742188 -9.671875 8.484375 -9.796875 C 8.222656 -9.921875 7.921875 -9.988281 7.578125 -10 Z M 7.578125 -10 "/></g></g></g><g fill="#000000" fill-opacity="1"><g transform="translate(173.021684, 74.45361)"><g><path d="M 8.6875 -15.34375 L 8.15625 -12.328125 L 12.625 -12.328125 L 12.203125 -9.984375 L 7.75 -9.984375 L 6.875 -4.6875 C 6.84375 -4.351562 6.835938 -4.050781 6.859375 -3.78125 C 6.890625 -3.507812 6.960938 -3.269531 7.078125 -3.0625 C 7.191406 -2.851562 7.359375 -2.6875 7.578125 -2.5625 C 7.804688 -2.445312 8.101562 -2.382812 8.46875 -2.375 C 8.90625 -2.363281 9.335938 -2.390625 9.765625 -2.453125 C 10.203125 -2.523438 10.640625 -2.609375 11.078125 -2.703125 L 11.171875 -0.5 C 10.898438 -0.34375 10.609375 -0.21875 10.296875 -0.125 C 9.992188 -0.03125 9.679688 0.0390625 9.359375 0.09375 C 9.035156 0.15625 8.707031 0.191406 8.375 0.203125 C 8.050781 0.222656 7.738281 0.234375 7.4375 0.234375 C 6.75 0.222656 6.15625 0.0976562 5.65625 -0.140625 C 5.15625 -0.378906 4.75 -0.703125 4.4375 -1.109375 C 4.132812 -1.523438 3.925781 -2.007812 3.8125 -2.5625 C 3.695312 -3.125 3.671875 -3.734375 3.734375 -4.390625 L 4.65625 -9.984375 L 1.921875 -9.984375 L 2.328125 -12.328125 L 5.0625 -12.328125 L 5.59375 -15.34375 Z M 8.6875 -15.34375 "/></g></g></g><g fill="#000000" fill-opacity="1"><g transform="translate(186.714172, 74.45361)"><g><path d="M 6.328125 0.234375 C 5.484375 0.210938 4.722656 0.0507812 4.046875 -0.25 C 3.367188 -0.5625 2.796875 -0.976562 2.328125 -1.5 C 1.859375 -2.03125 1.515625 -2.648438 1.296875 -3.359375 C 1.078125 -4.078125 1.003906 -4.859375 1.078125 -5.703125 L 1.125 -6.15625 C 1.226562 -7.019531 1.460938 -7.84375 1.828125 -8.625 C 2.191406 -9.414062 2.660156 -10.101562 3.234375 -10.6875 C 3.816406 -11.269531 4.492188 -11.734375 5.265625 -12.078125 C 6.046875 -12.421875 6.890625 -12.578125 7.796875 -12.546875 C 8.660156 -12.523438 9.398438 -12.347656 10.015625 -12.015625 C 10.640625 -11.679688 11.144531 -11.234375 11.53125 -10.671875 C 11.914062 -10.117188 12.175781 -9.476562 12.3125 -8.75 C 12.457031 -8.03125 12.476562 -7.273438 12.375 -6.484375 L 12.171875 -5.140625 L 4.125 -5.140625 C 4.101562 -4.742188 4.148438 -4.375 4.265625 -4.03125 C 4.378906 -3.695312 4.546875 -3.40625 4.765625 -3.15625 C 4.984375 -2.90625 5.25 -2.703125 5.5625 -2.546875 C 5.882812 -2.398438 6.25 -2.328125 6.65625 -2.328125 C 7.300781 -2.304688 7.910156 -2.414062 8.484375 -2.65625 C 9.066406 -2.90625 9.578125 -3.257812 10.015625 -3.71875 L 11.40625 -2 C 11.132812 -1.601562 10.800781 -1.265625 10.40625 -0.984375 C 10.019531 -0.703125 9.597656 -0.46875 9.140625 -0.28125 C 8.691406 -0.101562 8.222656 0.0234375 7.734375 0.109375 C 7.253906 0.191406 6.785156 0.234375 6.328125 0.234375 Z M 7.578125 -10 C 7.160156 -10.019531 6.789062 -9.953125 6.46875 -9.796875 C 6.144531 -9.640625 5.851562 -9.429688 5.59375 -9.171875 C 5.34375 -8.921875 5.117188 -8.628906 4.921875 -8.296875 C 4.734375 -7.972656 4.570312 -7.644531 4.4375 -7.3125 L 9.453125 -7.3125 L 9.515625 -7.59375 C 9.566406 -7.925781 9.554688 -8.238281 9.484375 -8.53125 C 9.421875 -8.820312 9.300781 -9.070312 9.125 -9.28125 C 8.957031 -9.5 8.742188 -9.671875 8.484375 -9.796875 C 8.222656 -9.921875 7.921875 -9.988281 7.578125 -10 Z M 7.578125 -10 "/></g></g></g><g fill="#000000" fill-opacity="1"><g transform="translate(200.406659, 74.45361)"><g><path d="M 1.140625 -6.1875 C 1.203125 -6.695312 1.300781 -7.207031 1.4375 -7.71875 C 1.570312 -8.238281 1.75 -8.738281 1.96875 -9.21875 C 2.1875 -9.695312 2.441406 -10.140625 2.734375 -10.546875 C 3.035156 -10.960938 3.382812 -11.320312 3.78125 -11.625 C 4.175781 -11.925781 4.613281 -12.160156 5.09375 -12.328125 C 5.582031 -12.492188 6.125 -12.566406 6.71875 -12.546875 C 7.289062 -12.535156 7.804688 -12.414062 8.265625 -12.1875 C 8.734375 -11.96875 9.148438 -11.640625 9.515625 -11.203125 L 10.703125 -17.5 L 13.796875 -17.5 L 10.765625 0 L 8 0 L 8.15625 -1.28125 C 7.71875 -0.800781 7.234375 -0.425781 6.703125 -0.15625 C 6.171875 0.113281 5.566406 0.242188 4.890625 0.234375 C 4.347656 0.210938 3.867188 0.109375 3.453125 -0.078125 C 3.046875 -0.265625 2.691406 -0.507812 2.390625 -0.8125 C 2.097656 -1.125 1.859375 -1.476562 1.671875 -1.875 C 1.484375 -2.28125 1.335938 -2.707031 1.234375 -3.15625 C 1.140625 -3.613281 1.082031 -4.078125 1.0625 -4.546875 C 1.039062 -5.023438 1.054688 -5.488281 1.109375 -5.9375 Z M 4.203125 -5.9375 C 4.160156 -5.59375 4.140625 -5.210938 4.140625 -4.796875 C 4.140625 -4.390625 4.191406 -4.003906 4.296875 -3.640625 C 4.398438 -3.285156 4.570312 -2.984375 4.8125 -2.734375 C 5.0625 -2.492188 5.421875 -2.363281 5.890625 -2.34375 C 6.410156 -2.332031 6.863281 -2.445312 7.25 -2.6875 C 7.644531 -2.9375 7.988281 -3.257812 8.28125 -3.65625 L 9.171875 -8.671875 C 8.847656 -9.515625 8.222656 -9.957031 7.296875 -10 C 6.773438 -10.007812 6.332031 -9.894531 5.96875 -9.65625 C 5.601562 -9.425781 5.296875 -9.125 5.046875 -8.75 C 4.804688 -8.375 4.625 -7.957031 4.5 -7.5 C 4.375 -7.050781 4.28125 -6.609375 4.21875 -6.171875 Z M 4.203125 -5.9375 "/></g></g></g><g fill="#000000" fill-opacity="1"><g transform="translate(214.102096, 74.45361)"><g/></g></g><g fill="#000000" fill-opacity="1"><g transform="translate(228.120986, 74.45361)"><g><path d="M 13.171875 -14.78125 L 8.046875 -14.78125 L 8.046875 0 L 5.984375 0 L 5.984375 -14.78125 L 0.859375 -14.78125 L 0.859375 -16.578125 L 13.171875 -16.578125 Z M 13.171875 -14.78125 "/></g></g></g><g fill="#000000" fill-opacity="1"><g transform="translate(242.121053, 74.45361)"><g><path d="M 10.078125 0 C 9.992188 -0.15625 9.925781 -0.351562 9.875 -0.59375 C 9.832031 -0.832031 9.796875 -1.082031 9.765625 -1.34375 C 9.554688 -1.132812 9.320312 -0.929688 9.0625 -0.734375 C 8.800781 -0.546875 8.507812 -0.378906 8.1875 -0.234375 C 7.875 -0.0859375 7.539062 0.0234375 7.1875 0.109375 C 6.832031 0.191406 6.453125 0.234375 6.046875 0.234375 C 5.390625 0.234375 4.796875 0.140625 4.265625 -0.046875 C 3.742188 -0.242188 3.296875 -0.503906 2.921875 -0.828125 C 2.554688 -1.148438 2.273438 -1.53125 2.078125 -1.96875 C 1.878906 -2.414062 1.78125 -2.898438 1.78125 -3.421875 C 1.78125 -4.097656 1.910156 -4.6875 2.171875 -5.1875 C 2.441406 -5.695312 2.820312 -6.117188 3.3125 -6.453125 C 3.8125 -6.796875 4.410156 -7.050781 5.109375 -7.21875 C 5.804688 -7.382812 6.582031 -7.46875 7.4375 -7.46875 L 9.734375 -7.46875 L 9.734375 -8.4375 C 9.734375 -8.8125 9.664062 -9.144531 9.53125 -9.4375 C 9.394531 -9.738281 9.203125 -9.992188 8.953125 -10.203125 C 8.703125 -10.410156 8.394531 -10.570312 8.03125 -10.6875 C 7.675781 -10.800781 7.273438 -10.859375 6.828125 -10.859375 C 6.410156 -10.859375 6.035156 -10.800781 5.703125 -10.6875 C 5.367188 -10.582031 5.085938 -10.441406 4.859375 -10.265625 C 4.628906 -10.097656 4.453125 -9.894531 4.328125 -9.65625 C 4.203125 -9.414062 4.140625 -9.164062 4.140625 -8.90625 L 2.03125 -8.90625 C 2.03125 -9.351562 2.144531 -9.789062 2.375 -10.21875 C 2.601562 -10.65625 2.925781 -11.046875 3.34375 -11.390625 C 3.757812 -11.742188 4.269531 -12.023438 4.875 -12.234375 C 5.476562 -12.441406 6.164062 -12.546875 6.9375 -12.546875 C 7.632812 -12.546875 8.28125 -12.460938 8.875 -12.296875 C 9.476562 -12.128906 10 -11.867188 10.4375 -11.515625 C 10.875 -11.171875 11.21875 -10.738281 11.46875 -10.21875 C 11.71875 -9.707031 11.84375 -9.109375 11.84375 -8.421875 L 11.84375 -2.6875 C 11.84375 -2.28125 11.878906 -1.84375 11.953125 -1.375 C 12.035156 -0.914062 12.144531 -0.519531 12.28125 -0.1875 L 12.28125 0 Z M 6.359375 -1.609375 C 6.765625 -1.609375 7.144531 -1.660156 7.5 -1.765625 C 7.863281 -1.867188 8.191406 -2.007812 8.484375 -2.1875 C 8.773438 -2.363281 9.023438 -2.5625 9.234375 -2.78125 C 9.453125 -3.007812 9.617188 -3.242188 9.734375 -3.484375 L 9.734375 -5.984375 L 7.78125 -5.984375 C 6.550781 -5.984375 5.59375 -5.800781 4.90625 -5.4375 C 4.226562 -5.070312 3.890625 -4.5 3.890625 -3.71875 C 3.890625 -3.40625 3.9375 -3.117188 4.03125 -2.859375 C 4.132812 -2.609375 4.289062 -2.390625 4.5 -2.203125 C 4.707031 -2.015625 4.960938 -1.867188 5.265625 -1.765625 C 5.578125 -1.660156 5.941406 -1.609375 6.359375 -1.609375 Z M 6.359375 -1.609375 "/></g></g></g><g fill="#000000" fill-opacity="1"><g transform="translate(256.121119, 74.45361)"><g><path d="M 10.171875 -3.265625 C 10.171875 -3.515625 10.117188 -3.738281 10.015625 -3.9375 C 9.921875 -4.144531 9.753906 -4.332031 9.515625 -4.5 C 9.285156 -4.664062 8.972656 -4.816406 8.578125 -4.953125 C 8.191406 -5.097656 7.710938 -5.226562 7.140625 -5.34375 C 6.429688 -5.488281 5.785156 -5.660156 5.203125 -5.859375 C 4.628906 -6.066406 4.132812 -6.3125 3.71875 -6.59375 C 3.300781 -6.882812 2.976562 -7.21875 2.75 -7.59375 C 2.53125 -7.976562 2.421875 -8.425781 2.421875 -8.9375 C 2.421875 -9.4375 2.535156 -9.90625 2.765625 -10.34375 C 3.003906 -10.78125 3.332031 -11.160156 3.75 -11.484375 C 4.175781 -11.816406 4.679688 -12.078125 5.265625 -12.265625 C 5.859375 -12.453125 6.507812 -12.546875 7.21875 -12.546875 C 7.976562 -12.546875 8.660156 -12.445312 9.265625 -12.25 C 9.878906 -12.050781 10.394531 -11.773438 10.8125 -11.421875 C 11.238281 -11.078125 11.566406 -10.671875 11.796875 -10.203125 C 12.035156 -9.742188 12.15625 -9.242188 12.15625 -8.703125 L 10.046875 -8.703125 C 10.046875 -8.960938 9.976562 -9.21875 9.84375 -9.46875 C 9.707031 -9.726562 9.515625 -9.957031 9.265625 -10.15625 C 9.023438 -10.351562 8.734375 -10.515625 8.390625 -10.640625 C 8.046875 -10.765625 7.65625 -10.828125 7.21875 -10.828125 C 6.769531 -10.828125 6.375 -10.773438 6.03125 -10.671875 C 5.695312 -10.578125 5.414062 -10.445312 5.1875 -10.28125 C 4.96875 -10.113281 4.800781 -9.914062 4.6875 -9.6875 C 4.570312 -9.46875 4.515625 -9.242188 4.515625 -9.015625 C 4.515625 -8.765625 4.5625 -8.546875 4.65625 -8.359375 C 4.75 -8.171875 4.90625 -8 5.125 -7.84375 C 5.351562 -7.695312 5.65625 -7.5625 6.03125 -7.4375 C 6.40625 -7.3125 6.878906 -7.191406 7.453125 -7.078125 C 8.210938 -6.921875 8.894531 -6.738281 9.5 -6.53125 C 10.101562 -6.320312 10.609375 -6.070312 11.015625 -5.78125 C 11.421875 -5.488281 11.734375 -5.148438 11.953125 -4.765625 C 12.171875 -4.378906 12.28125 -3.929688 12.28125 -3.421875 C 12.28125 -2.867188 12.15625 -2.367188 11.90625 -1.921875 C 11.65625 -1.472656 11.3125 -1.085938 10.875 -0.765625 C 10.4375 -0.453125 9.910156 -0.207031 9.296875 -0.03125 C 8.679688 0.144531 8.007812 0.234375 7.28125 0.234375 C 6.445312 0.234375 5.703125 0.125 5.046875 -0.09375 C 4.390625 -0.320312 3.835938 -0.617188 3.390625 -0.984375 C 2.941406 -1.359375 2.597656 -1.785156 2.359375 -2.265625 C 2.117188 -2.753906 2 -3.265625 2 -3.796875 L 4.09375 -3.796875 C 4.125 -3.359375 4.238281 -2.988281 4.4375 -2.6875 C 4.644531 -2.394531 4.898438 -2.15625 5.203125 -1.96875 C 5.503906 -1.789062 5.835938 -1.664062 6.203125 -1.59375 C 6.566406 -1.519531 6.925781 -1.484375 7.28125 -1.484375 C 8.164062 -1.484375 8.863281 -1.644531 9.375 -1.96875 C 9.894531 -2.289062 10.160156 -2.722656 10.171875 -3.265625 Z M 10.171875 -3.265625 "/></g></g></g><g fill="#000000" fill-opacity="1"><g transform="translate(270.121186, 74.45361)"><g><path d="M 5.671875 -5.75 L 4.125 -4.265625 L 4.125 0 L 2 0 L 2 -17.5 L 4.125 -17.5 L 4.125 -6.78125 L 5.5 -8.265625 L 9.546875 -12.328125 L 12.109375 -12.328125 L 7.125 -7.1875 L 12.875 0 L 10.1875 0 Z M 5.671875 -5.75 "/></g></g></g><g fill="#000000" fill-opacity="1"><g transform="translate(284.121252, 74.45361)"><g><path d="M 10.171875 -3.265625 C 10.171875 -3.515625 10.117188 -3.738281 10.015625 -3.9375 C 9.921875 -4.144531 9.753906 -4.332031 9.515625 -4.5 C 9.285156 -4.664062 8.972656 -4.816406 8.578125 -4.953125 C 8.191406 -5.097656 7.710938 -5.226562 7.140625 -5.34375 C 6.429688 -5.488281 5.785156 -5.660156 5.203125 -5.859375 C 4.628906 -6.066406 4.132812 -6.3125 3.71875 -6.59375 C 3.300781 -6.882812 2.976562 -7.21875 2.75 -7.59375 C 2.53125 -7.976562 2.421875 -8.425781 2.421875 -8.9375 C 2.421875 -9.4375 2.535156 -9.90625 2.765625 -10.34375 C 3.003906 -10.78125 3.332031 -11.160156 3.75 -11.484375 C 4.175781 -11.816406 4.679688 -12.078125 5.265625 -12.265625 C 5.859375 -12.453125 6.507812 -12.546875 7.21875 -12.546875 C 7.976562 -12.546875 8.660156 -12.445312 9.265625 -12.25 C 9.878906 -12.050781 10.394531 -11.773438 10.8125 -11.421875 C 11.238281 -11.078125 11.566406 -10.671875 11.796875 -10.203125 C 12.035156 -9.742188 12.15625 -9.242188 12.15625 -8.703125 L 10.046875 -8.703125 C 10.046875 -8.960938 9.976562 -9.21875 9.84375 -9.46875 C 9.707031 -9.726562 9.515625 -9.957031 9.265625 -10.15625 C 9.023438 -10.351562 8.734375 -10.515625 8.390625 -10.640625 C 8.046875 -10.765625 7.65625 -10.828125 7.21875 -10.828125 C 6.769531 -10.828125 6.375 -10.773438 6.03125 -10.671875 C 5.695312 -10.578125 5.414062 -10.445312 5.1875 -10.28125 C 4.96875 -10.113281 4.800781 -9.914062 4.6875 -9.6875 C 4.570312 -9.46875 4.515625 -9.242188 4.515625 -9.015625 C 4.515625 -8.765625 4.5625 -8.546875 4.65625 -8.359375 C 4.75 -8.171875 4.90625 -8 5.125 -7.84375 C 5.351562 -7.695312 5.65625 -7.5625 6.03125 -7.4375 C 6.40625 -7.3125 6.878906 -7.191406 7.453125 -7.078125 C 8.210938 -6.921875 8.894531 -6.738281 9.5 -6.53125 C 10.101562 -6.320312 10.609375 -6.070312 11.015625 -5.78125 C 11.421875 -5.488281 11.734375 -5.148438 11.953125 -4.765625 C 12.171875 -4.378906 12.28125 -3.929688 12.28125 -3.421875 C 12.28125 -2.867188 12.15625 -2.367188 11.90625 -1.921875 C 11.65625 -1.472656 11.3125 -1.085938 10.875 -0.765625 C 10.4375 -0.453125 9.910156 -0.207031 9.296875 -0.03125 C 8.679688 0.144531 8.007812 0.234375 7.28125 0.234375 C 6.445312 0.234375 5.703125 0.125 5.046875 -0.09375 C 4.390625 -0.320312 3.835938 -0.617188 3.390625 -0.984375 C 2.941406 -1.359375 2.597656 -1.785156 2.359375 -2.265625 C 2.117188 -2.753906 2 -3.265625 2 -3.796875 L 4.09375 -3.796875 C 4.125 -3.359375 4.238281 -2.988281 4.4375 -2.6875 C 4.644531 -2.394531 4.898438 -2.15625 5.203125 -1.96875 C 5.503906 -1.789062 5.835938 -1.664062 6.203125 -1.59375 C 6.566406 -1.519531 6.925781 -1.484375 7.28125 -1.484375 C 8.164062 -1.484375 8.863281 -1.644531 9.375 -1.96875 C 9.894531 -2.289062 10.160156 -2.722656 10.171875 -3.265625 Z M 10.171875 -3.265625 "/></g></g></g><g fill="#000000" fill-opacity="1"><g transform="translate(298.130989, 74.45361)"><g/></g></g><g fill="#000000" fill-opacity="1"><g transform="translate(312.131055, 74.45361)"><g/></g></g><g fill="#000000" fill-opacity="1"><g transform="translate(326.131121, 74.45361)"><g/></g></g><g fill="#000000" fill-opacity="1"><g transform="translate(340.131188, 74.45361)"><g/></g></g><g clip-path="url(#73b4fe3c8e)"><path fill="#ef9645" d="M 338.9375 71.339844 C 338.304688 70.429688 338.660156 69.117188 338.5 67.664062 C 338.339844 65.292969 337.308594 63 335.304688 61.164062 L 328.488281 54.910156 C 328.488281 54.910156 327.144531 53.675781 325.894531 55.003906 C 324.648438 56.328125 325.992188 57.5625 325.992188 57.5625 L 328.871094 60.203125 L 331.367188 62.492188 C 331.367188 62.492188 330.742188 63.15625 327.976562 60.621094 L 318.648438 52.058594 C 318.648438 52.058594 317.300781 50.828125 316.050781 52.152344 C 314.804688 53.476562 316.148438 54.710938 316.148438 54.710938 L 324.96875 62.808594 C 324.949219 62.789062 324.300781 63.429688 324.289062 63.421875 L 314.851562 54.757812 C 314.851562 54.757812 313.507812 53.523438 312.257812 54.851562 C 311.007812 56.175781 312.351562 57.410156 312.351562 57.410156 L 321.792969 66.074219 C 321.800781 66.085938 321.195312 66.761719 321.214844 66.777344 L 313.070312 59.304688 C 313.070312 59.304688 311.726562 58.070312 310.476562 59.398438 C 309.226562 60.722656 310.570312 61.957031 310.570312 61.957031 L 319.226562 69.902344 C 319.308594 69.972656 318.773438 70.71875 318.871094 70.808594 L 312.632812 65.085938 C 312.632812 65.085938 311.289062 63.851562 310.039062 65.179688 C 308.789062 66.503906 310.132812 67.738281 310.132812 67.738281 L 320.308594 77.070312 C 322.007812 78.632812 323.753906 79.421875 325.855469 79.710938 C 326.285156 79.769531 326.832031 79.769531 327.058594 79.796875 C 327.765625 79.882812 328.390625 80.132812 329.222656 80.636719 C 330.296875 81.285156 331.90625 81.554688 332.828125 80.582031 L 335.984375 77.253906 L 338.894531 74.179688 C 339.820312 73.203125 339.652344 72.363281 338.9375 71.339844 Z M 338.9375 71.339844 " fill-opacity="1" fill-rule="nonzero"/></g><g clip-path="url(#7d4765665d)"><path fill="#fa743e" d="M 311.234375 80.960938 C 311 80.960938 310.765625 80.871094 310.589844 80.695312 C 310.230469 80.34375 310.230469 79.773438 310.589844 79.421875 L 313.832031 76.226562 C 314.1875 75.875 314.765625 75.875 315.121094 76.226562 C 315.476562 76.578125 315.476562 77.148438 315.121094 77.5 L 311.878906 80.695312 C 311.703125 80.871094 311.46875 80.960938 311.234375 80.960938 Z M 317.394531 81.789062 C 317.292969 81.789062 317.191406 81.773438 317.089844 81.738281 C 316.613281 81.574219 316.363281 81.0625 316.53125 80.59375 L 317.417969 78.09375 C 317.582031 77.625 318.105469 77.378906 318.582031 77.542969 C 319.054688 77.707031 319.308594 78.21875 319.140625 78.6875 L 318.253906 81.1875 C 318.121094 81.558594 317.769531 81.789062 317.394531 81.789062 Z M 310.394531 74.882812 C 310.015625 74.882812 309.664062 74.652344 309.53125 74.285156 C 309.363281 73.8125 309.613281 73.300781 310.089844 73.132812 L 312.367188 72.339844 C 312.84375 72.179688 313.363281 72.421875 313.53125 72.890625 C 313.699219 73.359375 313.449219 73.875 312.976562 74.039062 L 310.695312 74.832031 C 310.597656 74.867188 310.492188 74.882812 310.394531 74.882812 Z M 337.289062 55.277344 C 337.054688 55.277344 336.820312 55.1875 336.644531 55.011719 C 336.289062 54.660156 336.289062 54.089844 336.644531 53.738281 L 339.886719 50.539062 C 340.242188 50.1875 340.820312 50.1875 341.179688 50.539062 C 341.535156 50.890625 341.535156 51.460938 341.179688 51.816406 L 337.933594 55.011719 C 337.757812 55.1875 337.523438 55.277344 337.289062 55.277344 Z M 333.488281 53.746094 C 333.386719 53.746094 333.285156 53.730469 333.1875 53.695312 C 332.710938 53.53125 332.460938 53.019531 332.625 52.550781 L 333.511719 50.050781 C 333.679688 49.582031 334.199219 49.332031 334.675781 49.496094 C 335.152344 49.660156 335.402344 50.175781 335.234375 50.644531 L 334.351562 53.144531 C 334.21875 53.515625 333.863281 53.746094 333.488281 53.746094 Z M 339.097656 58.949219 C 338.71875 58.949219 338.367188 58.71875 338.234375 58.347656 C 338.066406 57.878906 338.316406 57.363281 338.792969 57.199219 L 341.070312 56.40625 C 341.546875 56.238281 342.066406 56.484375 342.234375 56.953125 C 342.402344 57.425781 342.152344 57.9375 341.675781 58.105469 L 339.402344 58.898438 C 339.300781 58.933594 339.195312 58.949219 339.097656 58.949219 Z M 339.097656 58.949219 " fill-opacity="1" fill-rule="nonzero"/></g><g clip-path="url(#0169e57fcf)"><path fill="#ffdb5e" d="M 341.757812 70.867188 C 341.15625 69.9375 341.554688 68.632812 341.445312 67.179688 C 341.363281 64.804688 340.410156 62.476562 338.476562 60.574219 L 331.875 54.097656 C 331.875 54.097656 330.574219 52.824219 329.28125 54.105469 C 327.988281 55.390625 329.289062 56.667969 329.289062 56.667969 L 332.074219 59.402344 L 334.492188 61.773438 C 334.492188 61.773438 333.84375 62.417969 331.167969 59.792969 C 328.492188 57.164062 322.136719 50.921875 322.136719 50.921875 C 322.136719 50.921875 320.835938 49.644531 319.539062 50.929688 C 318.246094 52.210938 319.546875 53.488281 319.546875 53.488281 L 328.089844 61.875 C 328.070312 61.859375 327.398438 62.476562 327.386719 62.464844 L 318.25 53.492188 C 318.25 53.492188 316.949219 52.214844 315.652344 53.5 C 314.359375 54.78125 315.660156 56.058594 315.660156 56.058594 L 324.800781 65.03125 C 324.8125 65.042969 324.179688 65.699219 324.199219 65.71875 L 316.3125 57.976562 C 316.3125 57.976562 315.011719 56.703125 313.71875 57.984375 C 312.421875 59.269531 313.722656 60.546875 313.722656 60.546875 L 322.105469 68.773438 C 322.183594 68.851562 321.621094 69.578125 321.71875 69.671875 L 315.679688 63.742188 C 315.679688 63.742188 314.378906 62.464844 313.082031 63.75 C 311.789062 65.03125 313.089844 66.308594 313.089844 66.308594 L 322.941406 75.976562 C 324.585938 77.59375 326.300781 78.4375 328.394531 78.796875 C 328.820312 78.871094 329.367188 78.890625 329.589844 78.925781 C 330.296875 79.035156 330.910156 79.304688 331.726562 79.835938 C 332.777344 80.519531 334.378906 80.84375 335.335938 79.902344 L 338.601562 76.679688 L 341.617188 73.703125 C 342.574219 72.757812 342.4375 71.914062 341.757812 70.867188 Z M 341.757812 70.867188 " fill-opacity="1" fill-rule="nonzero"/></g></svg>