<svg xmlns="http://www.w3.org/2000/svg" xmlns:xlink="http://www.w3.org/1999/xlink" width="500" zoomAndPan="magnify" viewBox="0 0 375 374.999991" height="500" preserveAspectRatio="xMidYMid meet" version="1.0"><defs><g/><clipPath id="9045ba8f03"><path d="M 37.5 140.984375 L 355.972656 140.984375 L 355.972656 227.808594 L 37.5 227.808594 Z M 37.5 140.984375 " clip-rule="nonzero"/></clipPath><clipPath id="ae49c8747d"><path d="M 312.445312 140.984375 C 336.421875 140.984375 355.859375 160.421875 355.859375 184.398438 C 355.859375 208.371094 336.421875 227.808594 312.445312 227.808594 L 80.914062 227.808594 C 56.9375 227.808594 37.5 208.371094 37.5 184.398438 C 37.5 160.421875 56.9375 140.984375 80.914062 140.984375 Z M 312.445312 140.984375 " clip-rule="nonzero"/></clipPath><clipPath id="d4b69ec94a"><path d="M 37.5 127.230469 L 355.972656 127.230469 L 355.972656 214.054688 L 37.5 214.054688 Z M 37.5 127.230469 " clip-rule="nonzero"/></clipPath><clipPath id="e7c4cce98b"><path d="M 312.445312 127.230469 C 336.421875 127.230469 355.859375 146.667969 355.859375 170.640625 C 355.859375 194.617188 336.421875 214.054688 312.445312 214.054688 L 80.914062 214.054688 C 56.9375 214.054688 37.5 194.617188 37.5 170.640625 C 37.5 146.667969 56.9375 127.230469 80.914062 127.230469 Z M 312.445312 127.230469 " clip-rule="nonzero"/></clipPath><clipPath id="c3c11ecf8d"><path d="M 301 156.632812 L 329.554688 156.632812 L 329.554688 184.417969 L 301 184.417969 Z M 301 156.632812 " clip-rule="nonzero"/></clipPath><clipPath id="f0322e12c6"><path d="M 303 157 L 329.554688 157 L 329.554688 184 L 303 184 Z M 303 157 " clip-rule="nonzero"/></clipPath></defs><g clip-path="url(#9045ba8f03)"><g clip-path="url(#ae49c8747d)"><path fill="#34acd9" d="M 37.5 140.984375 L 355.972656 140.984375 L 355.972656 227.808594 L 37.5 227.808594 Z M 37.5 140.984375 " fill-opacity="1" fill-rule="nonzero"/></g></g><g fill="#000000" fill-opacity="1"><g transform="translate(142.612493, 187.290943)"><g><path d="M 0.515625 -2.109375 L 0.859375 -2.109375 C 0.898438 -1.835938 0.976562 -1.59375 1.09375 -1.375 C 1.207031 -1.164062 1.351562 -0.984375 1.53125 -0.828125 C 1.707031 -0.679688 1.910156 -0.566406 2.140625 -0.484375 C 2.378906 -0.410156 2.628906 -0.375 2.890625 -0.375 C 3.335938 -0.375 3.691406 -0.476562 3.953125 -0.6875 C 4.210938 -0.894531 4.34375 -1.175781 4.34375 -1.53125 C 4.34375 -1.6875 4.316406 -1.828125 4.265625 -1.953125 C 4.210938 -2.078125 4.125 -2.195312 4 -2.3125 C 3.882812 -2.4375 3.722656 -2.550781 3.515625 -2.65625 C 3.316406 -2.769531 3.066406 -2.894531 2.765625 -3.03125 C 2.390625 -3.195312 2.078125 -3.351562 1.828125 -3.5 C 1.578125 -3.644531 1.375 -3.800781 1.21875 -3.96875 C 1.070312 -4.132812 0.96875 -4.304688 0.90625 -4.484375 C 0.84375 -4.671875 0.8125 -4.878906 0.8125 -5.109375 C 0.8125 -5.390625 0.859375 -5.644531 0.953125 -5.875 C 1.054688 -6.113281 1.195312 -6.316406 1.375 -6.484375 C 1.550781 -6.648438 1.765625 -6.78125 2.015625 -6.875 C 2.265625 -6.96875 2.535156 -7.015625 2.828125 -7.015625 C 3.085938 -7.015625 3.332031 -6.972656 3.5625 -6.890625 C 3.789062 -6.804688 4.019531 -6.671875 4.25 -6.484375 L 4.484375 -6.890625 L 4.703125 -6.890625 L 4.796875 -5.109375 L 4.46875 -5.109375 C 4.320312 -5.597656 4.109375 -5.960938 3.828125 -6.203125 C 3.554688 -6.441406 3.234375 -6.5625 2.859375 -6.5625 C 2.484375 -6.5625 2.1875 -6.46875 1.96875 -6.28125 C 1.757812 -6.101562 1.65625 -5.863281 1.65625 -5.5625 C 1.65625 -5.414062 1.675781 -5.285156 1.71875 -5.171875 C 1.769531 -5.054688 1.847656 -4.945312 1.953125 -4.84375 C 2.066406 -4.738281 2.207031 -4.628906 2.375 -4.515625 C 2.550781 -4.410156 2.769531 -4.300781 3.03125 -4.1875 C 3.476562 -3.988281 3.847656 -3.804688 4.140625 -3.640625 C 4.429688 -3.472656 4.664062 -3.300781 4.84375 -3.125 C 5.019531 -2.957031 5.140625 -2.773438 5.203125 -2.578125 C 5.273438 -2.390625 5.3125 -2.179688 5.3125 -1.953125 C 5.3125 -1.648438 5.25 -1.375 5.125 -1.125 C 5.007812 -0.875 4.84375 -0.65625 4.625 -0.46875 C 4.414062 -0.289062 4.160156 -0.148438 3.859375 -0.046875 C 3.554688 0.046875 3.226562 0.09375 2.875 0.09375 C 2.53125 0.09375 2.21875 0.046875 1.9375 -0.046875 C 1.664062 -0.148438 1.390625 -0.316406 1.109375 -0.546875 L 0.859375 -0.09375 L 0.65625 -0.09375 Z M 0.515625 -2.109375 "/></g></g></g><g fill="#000000" fill-opacity="1"><g transform="translate(148.410982, 187.290943)"><g><path d="M 1.875 -1.4375 C 1.875 -1.1875 1.878906 -0.988281 1.890625 -0.84375 C 1.898438 -0.695312 1.929688 -0.585938 1.984375 -0.515625 C 2.035156 -0.441406 2.109375 -0.390625 2.203125 -0.359375 C 2.296875 -0.335938 2.429688 -0.320312 2.609375 -0.3125 L 2.609375 0 L 0.21875 0 L 0.21875 -0.3125 C 0.394531 -0.320312 0.53125 -0.335938 0.625 -0.359375 C 0.726562 -0.390625 0.804688 -0.441406 0.859375 -0.515625 C 0.910156 -0.585938 0.941406 -0.691406 0.953125 -0.828125 C 0.972656 -0.960938 0.984375 -1.144531 0.984375 -1.375 L 0.984375 -5.140625 C 0.984375 -5.492188 0.976562 -5.773438 0.96875 -5.984375 C 0.96875 -6.191406 0.953125 -6.351562 0.921875 -6.46875 C 0.910156 -6.53125 0.890625 -6.582031 0.859375 -6.625 C 0.835938 -6.675781 0.800781 -6.710938 0.75 -6.734375 C 0.695312 -6.765625 0.625 -6.785156 0.53125 -6.796875 C 0.4375 -6.816406 0.328125 -6.828125 0.203125 -6.828125 L 0.203125 -7.125 L 1.859375 -7.46875 L 1.859375 -4.046875 L 1.890625 -4.046875 C 1.984375 -4.160156 2.097656 -4.265625 2.234375 -4.359375 C 2.367188 -4.460938 2.507812 -4.550781 2.65625 -4.625 C 2.8125 -4.695312 2.972656 -4.753906 3.140625 -4.796875 C 3.316406 -4.835938 3.488281 -4.859375 3.65625 -4.859375 C 3.925781 -4.859375 4.175781 -4.8125 4.40625 -4.71875 C 4.644531 -4.625 4.828125 -4.492188 4.953125 -4.328125 C 5.054688 -4.191406 5.128906 -4.007812 5.171875 -3.78125 C 5.222656 -3.5625 5.25 -3.257812 5.25 -2.875 L 5.25 -1.4375 C 5.25 -1.1875 5.253906 -0.988281 5.265625 -0.84375 C 5.273438 -0.707031 5.304688 -0.597656 5.359375 -0.515625 C 5.410156 -0.441406 5.484375 -0.390625 5.578125 -0.359375 C 5.671875 -0.335938 5.804688 -0.320312 5.984375 -0.3125 L 5.984375 0 L 3.59375 0 L 3.59375 -0.3125 C 3.769531 -0.320312 3.90625 -0.335938 4 -0.359375 C 4.101562 -0.390625 4.179688 -0.441406 4.234375 -0.515625 C 4.285156 -0.585938 4.316406 -0.691406 4.328125 -0.828125 C 4.347656 -0.960938 4.359375 -1.144531 4.359375 -1.375 L 4.359375 -2.5 C 4.359375 -3.175781 4.28125 -3.65625 4.125 -3.9375 C 3.96875 -4.21875 3.707031 -4.359375 3.34375 -4.359375 C 3.0625 -4.359375 2.800781 -4.285156 2.5625 -4.140625 C 2.332031 -4.003906 2.15625 -3.8125 2.03125 -3.5625 C 2 -3.488281 1.972656 -3.421875 1.953125 -3.359375 C 1.929688 -3.304688 1.910156 -3.242188 1.890625 -3.171875 C 1.878906 -3.097656 1.875 -3.015625 1.875 -2.921875 C 1.875 -2.835938 1.875 -2.722656 1.875 -2.578125 Z M 1.875 -1.4375 "/></g></g></g><g fill="#000000" fill-opacity="1"><g transform="translate(154.596025, 187.290943)"><g><path d="M 2.921875 -4.859375 C 3.265625 -4.859375 3.585938 -4.796875 3.890625 -4.671875 C 4.203125 -4.546875 4.472656 -4.375 4.703125 -4.15625 C 4.929688 -3.945312 5.113281 -3.691406 5.25 -3.390625 C 5.382812 -3.097656 5.453125 -2.773438 5.453125 -2.421875 C 5.453125 -2.054688 5.382812 -1.71875 5.25 -1.40625 C 5.113281 -1.101562 4.929688 -0.835938 4.703125 -0.609375 C 4.472656 -0.390625 4.203125 -0.21875 3.890625 -0.09375 C 3.585938 0.03125 3.265625 0.09375 2.921875 0.09375 C 2.585938 0.09375 2.269531 0.03125 1.96875 -0.09375 C 1.664062 -0.21875 1.398438 -0.390625 1.171875 -0.609375 C 0.941406 -0.828125 0.757812 -1.09375 0.625 -1.40625 C 0.5 -1.71875 0.4375 -2.054688 0.4375 -2.421875 C 0.4375 -2.773438 0.5 -3.101562 0.625 -3.40625 C 0.757812 -3.707031 0.941406 -3.960938 1.171875 -4.171875 C 1.398438 -4.390625 1.664062 -4.554688 1.96875 -4.671875 C 2.269531 -4.796875 2.585938 -4.859375 2.921875 -4.859375 Z M 2.921875 -4.421875 C 2.703125 -4.421875 2.5 -4.375 2.3125 -4.28125 C 2.132812 -4.1875 1.976562 -4.050781 1.84375 -3.875 C 1.71875 -3.695312 1.617188 -3.484375 1.546875 -3.234375 C 1.484375 -2.984375 1.453125 -2.707031 1.453125 -2.40625 C 1.453125 -2.09375 1.484375 -1.8125 1.546875 -1.5625 C 1.617188 -1.3125 1.71875 -1.097656 1.84375 -0.921875 C 1.976562 -0.742188 2.132812 -0.609375 2.3125 -0.515625 C 2.488281 -0.421875 2.691406 -0.375 2.921875 -0.375 C 3.148438 -0.375 3.359375 -0.421875 3.546875 -0.515625 C 3.734375 -0.609375 3.890625 -0.742188 4.015625 -0.921875 C 4.148438 -1.109375 4.253906 -1.328125 4.328125 -1.578125 C 4.398438 -1.828125 4.4375 -2.101562 4.4375 -2.40625 C 4.4375 -2.707031 4.398438 -2.976562 4.328125 -3.21875 C 4.253906 -3.46875 4.148438 -3.679688 4.015625 -3.859375 C 3.890625 -4.035156 3.734375 -4.171875 3.546875 -4.265625 C 3.359375 -4.367188 3.148438 -4.421875 2.921875 -4.421875 Z M 2.921875 -4.421875 "/></g></g></g><g fill="#000000" fill-opacity="1"><g transform="translate(160.475418, 187.290943)"><g><path d="M 2.5 0.09375 L 2.171875 0.09375 L 1 -3.65625 C 0.945312 -3.820312 0.894531 -3.957031 0.84375 -4.0625 C 0.800781 -4.164062 0.742188 -4.242188 0.671875 -4.296875 C 0.609375 -4.359375 0.53125 -4.398438 0.4375 -4.421875 C 0.351562 -4.441406 0.242188 -4.453125 0.109375 -4.453125 L 0.109375 -4.765625 L 2.5 -4.765625 L 2.5 -4.453125 C 2.257812 -4.453125 2.09375 -4.425781 2 -4.375 C 1.90625 -4.320312 1.859375 -4.226562 1.859375 -4.09375 C 1.859375 -4.03125 1.863281 -3.957031 1.875 -3.875 C 1.894531 -3.800781 1.921875 -3.703125 1.953125 -3.578125 L 2.5625 -1.4375 L 2.59375 -1.4375 L 3.921875 -4.765625 L 4.203125 -4.765625 L 5.40625 -1.4375 L 5.4375 -1.4375 L 5.96875 -2.890625 C 6.039062 -3.085938 6.101562 -3.253906 6.15625 -3.390625 C 6.207031 -3.523438 6.242188 -3.640625 6.265625 -3.734375 C 6.296875 -3.828125 6.316406 -3.898438 6.328125 -3.953125 C 6.335938 -4.015625 6.34375 -4.070312 6.34375 -4.125 C 6.34375 -4.257812 6.300781 -4.347656 6.21875 -4.390625 C 6.144531 -4.429688 5.984375 -4.453125 5.734375 -4.453125 L 5.734375 -4.765625 L 7.546875 -4.765625 L 7.546875 -4.453125 C 7.453125 -4.453125 7.375 -4.4375 7.3125 -4.40625 C 7.25 -4.382812 7.1875 -4.332031 7.125 -4.25 C 7.0625 -4.175781 6.992188 -4.066406 6.921875 -3.921875 C 6.859375 -3.773438 6.78125 -3.585938 6.6875 -3.359375 L 5.296875 0.09375 L 4.953125 0.09375 L 3.859375 -3.234375 L 3.828125 -3.234375 Z M 2.5 0.09375 "/></g></g></g><g fill="#000000" fill-opacity="1"><g transform="translate(168.134801, 187.290943)"><g/></g></g><g fill="#000000" fill-opacity="1"><g transform="translate(170.714909, 187.290943)"><g><path d="M 6.203125 -6.9375 L 6.453125 -6.9375 L 6.53125 -4.859375 L 6.203125 -4.859375 C 6.066406 -5.390625 5.8125 -5.800781 5.4375 -6.09375 C 5.0625 -6.394531 4.601562 -6.546875 4.0625 -6.546875 C 3.695312 -6.546875 3.367188 -6.472656 3.078125 -6.328125 C 2.796875 -6.191406 2.554688 -5.988281 2.359375 -5.71875 C 2.160156 -5.445312 2.007812 -5.113281 1.90625 -4.71875 C 1.800781 -4.332031 1.75 -3.894531 1.75 -3.40625 C 1.75 -2.4375 1.945312 -1.691406 2.34375 -1.171875 C 2.75 -0.648438 3.332031 -0.390625 4.09375 -0.390625 C 5.25 -0.390625 5.992188 -1.003906 6.328125 -2.234375 L 6.703125 -2.234375 L 6.703125 0 L 6.375 0 L 6.171875 -0.71875 C 5.546875 -0.175781 4.785156 0.09375 3.890625 0.09375 C 3.378906 0.09375 2.914062 0.015625 2.5 -0.140625 C 2.09375 -0.304688 1.742188 -0.535156 1.453125 -0.828125 C 1.160156 -1.128906 0.9375 -1.492188 0.78125 -1.921875 C 0.625 -2.347656 0.546875 -2.820312 0.546875 -3.34375 C 0.546875 -3.894531 0.628906 -4.394531 0.796875 -4.84375 C 0.960938 -5.289062 1.195312 -5.675781 1.5 -6 C 1.800781 -6.320312 2.160156 -6.570312 2.578125 -6.75 C 3.003906 -6.925781 3.472656 -7.015625 3.984375 -7.015625 C 4.347656 -7.015625 4.6875 -6.960938 5 -6.859375 C 5.320312 -6.765625 5.664062 -6.601562 6.03125 -6.375 Z M 6.203125 -6.9375 "/></g></g></g><g fill="#000000" fill-opacity="1"><g transform="translate(177.924798, 187.290943)"><g><path d="M 2.921875 -4.859375 C 3.265625 -4.859375 3.585938 -4.796875 3.890625 -4.671875 C 4.203125 -4.546875 4.472656 -4.375 4.703125 -4.15625 C 4.929688 -3.945312 5.113281 -3.691406 5.25 -3.390625 C 5.382812 -3.097656 5.453125 -2.773438 5.453125 -2.421875 C 5.453125 -2.054688 5.382812 -1.71875 5.25 -1.40625 C 5.113281 -1.101562 4.929688 -0.835938 4.703125 -0.609375 C 4.472656 -0.390625 4.203125 -0.21875 3.890625 -0.09375 C 3.585938 0.03125 3.265625 0.09375 2.921875 0.09375 C 2.585938 0.09375 2.269531 0.03125 1.96875 -0.09375 C 1.664062 -0.21875 1.398438 -0.390625 1.171875 -0.609375 C 0.941406 -0.828125 0.757812 -1.09375 0.625 -1.40625 C 0.5 -1.71875 0.4375 -2.054688 0.4375 -2.421875 C 0.4375 -2.773438 0.5 -3.101562 0.625 -3.40625 C 0.757812 -3.707031 0.941406 -3.960938 1.171875 -4.171875 C 1.398438 -4.390625 1.664062 -4.554688 1.96875 -4.671875 C 2.269531 -4.796875 2.585938 -4.859375 2.921875 -4.859375 Z M 2.921875 -4.421875 C 2.703125 -4.421875 2.5 -4.375 2.3125 -4.28125 C 2.132812 -4.1875 1.976562 -4.050781 1.84375 -3.875 C 1.71875 -3.695312 1.617188 -3.484375 1.546875 -3.234375 C 1.484375 -2.984375 1.453125 -2.707031 1.453125 -2.40625 C 1.453125 -2.09375 1.484375 -1.8125 1.546875 -1.5625 C 1.617188 -1.3125 1.71875 -1.097656 1.84375 -0.921875 C 1.976562 -0.742188 2.132812 -0.609375 2.3125 -0.515625 C 2.488281 -0.421875 2.691406 -0.375 2.921875 -0.375 C 3.148438 -0.375 3.359375 -0.421875 3.546875 -0.515625 C 3.734375 -0.609375 3.890625 -0.742188 4.015625 -0.921875 C 4.148438 -1.109375 4.253906 -1.328125 4.328125 -1.578125 C 4.398438 -1.828125 4.4375 -2.101562 4.4375 -2.40625 C 4.4375 -2.707031 4.398438 -2.976562 4.328125 -3.21875 C 4.253906 -3.46875 4.148438 -3.679688 4.015625 -3.859375 C 3.890625 -4.035156 3.734375 -4.171875 3.546875 -4.265625 C 3.359375 -4.367188 3.148438 -4.421875 2.921875 -4.421875 Z M 2.921875 -4.421875 "/></g></g></g><g fill="#000000" fill-opacity="1"><g transform="translate(183.804191, 187.290943)"><g><path d="M 1.984375 -1.4375 C 1.984375 -1.1875 1.988281 -0.988281 2 -0.84375 C 2.019531 -0.695312 2.050781 -0.585938 2.09375 -0.515625 C 2.144531 -0.441406 2.21875 -0.390625 2.3125 -0.359375 C 2.414062 -0.335938 2.554688 -0.320312 2.734375 -0.3125 L 2.734375 0 L 0.328125 0 L 0.328125 -0.3125 C 0.503906 -0.320312 0.644531 -0.335938 0.75 -0.359375 C 0.851562 -0.390625 0.929688 -0.441406 0.984375 -0.515625 C 1.035156 -0.585938 1.066406 -0.691406 1.078125 -0.828125 C 1.097656 -0.960938 1.109375 -1.144531 1.109375 -1.375 L 1.109375 -2.515625 C 1.109375 -2.859375 1.101562 -3.144531 1.09375 -3.375 C 1.082031 -3.601562 1.066406 -3.757812 1.046875 -3.84375 C 1.023438 -3.914062 1 -3.972656 0.96875 -4.015625 C 0.945312 -4.066406 0.910156 -4.101562 0.859375 -4.125 C 0.804688 -4.15625 0.734375 -4.175781 0.640625 -4.1875 C 0.554688 -4.195312 0.445312 -4.203125 0.3125 -4.203125 L 0.3125 -4.515625 L 1.78125 -4.859375 L 1.90625 -3.953125 L 1.9375 -3.953125 C 2.207031 -4.265625 2.488281 -4.492188 2.78125 -4.640625 C 3.082031 -4.785156 3.414062 -4.859375 3.78125 -4.859375 C 4.15625 -4.859375 4.472656 -4.78125 4.734375 -4.625 C 4.992188 -4.476562 5.175781 -4.257812 5.28125 -3.96875 L 5.3125 -3.96875 C 5.53125 -4.25 5.796875 -4.46875 6.109375 -4.625 C 6.429688 -4.78125 6.773438 -4.859375 7.140625 -4.859375 C 7.421875 -4.859375 7.675781 -4.8125 7.90625 -4.71875 C 8.132812 -4.625 8.3125 -4.5 8.4375 -4.34375 C 8.539062 -4.195312 8.613281 -4.007812 8.65625 -3.78125 C 8.707031 -3.5625 8.734375 -3.257812 8.734375 -2.875 L 8.734375 -1.4375 C 8.734375 -1.195312 8.738281 -1.003906 8.75 -0.859375 C 8.769531 -0.710938 8.800781 -0.597656 8.84375 -0.515625 C 8.894531 -0.441406 8.96875 -0.390625 9.0625 -0.359375 C 9.164062 -0.335938 9.304688 -0.320312 9.484375 -0.3125 L 9.484375 0 L 7.078125 0 L 7.078125 -0.3125 C 7.242188 -0.320312 7.378906 -0.335938 7.484375 -0.359375 C 7.585938 -0.390625 7.664062 -0.441406 7.71875 -0.515625 C 7.769531 -0.585938 7.800781 -0.691406 7.8125 -0.828125 C 7.832031 -0.960938 7.84375 -1.144531 7.84375 -1.375 L 7.84375 -2.5 C 7.84375 -2.84375 7.820312 -3.128906 7.78125 -3.359375 C 7.75 -3.597656 7.691406 -3.789062 7.609375 -3.9375 C 7.523438 -4.09375 7.414062 -4.203125 7.28125 -4.265625 C 7.144531 -4.328125 6.984375 -4.359375 6.796875 -4.359375 C 6.535156 -4.359375 6.285156 -4.285156 6.046875 -4.140625 C 5.816406 -3.992188 5.640625 -3.800781 5.515625 -3.5625 C 5.484375 -3.5 5.457031 -3.4375 5.4375 -3.375 C 5.414062 -3.320312 5.394531 -3.257812 5.375 -3.1875 C 5.363281 -3.125 5.359375 -3.039062 5.359375 -2.9375 C 5.359375 -2.84375 5.359375 -2.722656 5.359375 -2.578125 L 5.359375 -1.4375 C 5.359375 -1.195312 5.363281 -1.003906 5.375 -0.859375 C 5.382812 -0.710938 5.414062 -0.597656 5.46875 -0.515625 C 5.519531 -0.441406 5.59375 -0.390625 5.6875 -0.359375 C 5.789062 -0.335938 5.929688 -0.320312 6.109375 -0.3125 L 6.109375 0 L 3.71875 0 L 3.71875 -0.3125 C 3.882812 -0.320312 4.019531 -0.335938 4.125 -0.359375 C 4.226562 -0.390625 4.300781 -0.441406 4.34375 -0.515625 C 4.394531 -0.585938 4.425781 -0.691406 4.4375 -0.828125 C 4.457031 -0.960938 4.46875 -1.144531 4.46875 -1.375 L 4.46875 -2.5 C 4.46875 -2.851562 4.445312 -3.144531 4.40625 -3.375 C 4.375 -3.613281 4.316406 -3.804688 4.234375 -3.953125 C 4.160156 -4.097656 4.054688 -4.203125 3.921875 -4.265625 C 3.785156 -4.328125 3.625 -4.359375 3.4375 -4.359375 C 3.164062 -4.359375 2.910156 -4.285156 2.671875 -4.140625 C 2.441406 -3.992188 2.265625 -3.800781 2.140625 -3.5625 C 2.109375 -3.5 2.082031 -3.4375 2.0625 -3.375 C 2.039062 -3.320312 2.023438 -3.257812 2.015625 -3.1875 C 2.003906 -3.125 1.992188 -3.039062 1.984375 -2.9375 C 1.984375 -2.84375 1.984375 -2.722656 1.984375 -2.578125 Z M 1.984375 -1.4375 "/></g></g></g><g fill="#000000" fill-opacity="1"><g transform="translate(193.450345, 187.290943)"><g><path d="M 1.890625 -4.125 L 1.921875 -4.125 C 2.117188 -4.351562 2.328125 -4.53125 2.546875 -4.65625 C 2.765625 -4.789062 3.023438 -4.859375 3.328125 -4.859375 C 3.660156 -4.859375 3.96875 -4.796875 4.25 -4.671875 C 4.539062 -4.546875 4.789062 -4.375 5 -4.15625 C 5.207031 -3.9375 5.367188 -3.675781 5.484375 -3.375 C 5.609375 -3.070312 5.671875 -2.738281 5.671875 -2.375 C 5.671875 -2.007812 5.609375 -1.675781 5.484375 -1.375 C 5.367188 -1.070312 5.207031 -0.8125 5 -0.59375 C 4.789062 -0.375 4.539062 -0.203125 4.25 -0.078125 C 3.957031 0.0351562 3.644531 0.09375 3.3125 0.09375 C 3.03125 0.09375 2.773438 0.046875 2.546875 -0.046875 C 2.328125 -0.140625 2.117188 -0.289062 1.921875 -0.5 L 1.921875 0.8125 C 1.921875 1.050781 1.929688 1.242188 1.953125 1.390625 C 1.984375 1.535156 2.035156 1.644531 2.109375 1.71875 C 2.179688 1.800781 2.285156 1.851562 2.421875 1.875 C 2.554688 1.90625 2.734375 1.925781 2.953125 1.9375 L 2.953125 2.25 L 0.1875 2.25 L 0.1875 1.9375 C 0.363281 1.925781 0.503906 1.90625 0.609375 1.875 C 0.722656 1.851562 0.8125 1.800781 0.875 1.71875 C 0.9375 1.644531 0.976562 1.539062 1 1.40625 C 1.03125 1.269531 1.046875 1.09375 1.046875 0.875 L 1.046875 -2.5 C 1.046875 -2.84375 1.039062 -3.125 1.03125 -3.34375 C 1.019531 -3.570312 1.003906 -3.726562 0.984375 -3.8125 C 0.953125 -3.945312 0.878906 -4.039062 0.765625 -4.09375 C 0.660156 -4.144531 0.457031 -4.171875 0.15625 -4.171875 L 0.15625 -4.484375 L 1.890625 -4.828125 Z M 2.15625 -3.859375 C 2.082031 -3.742188 2.023438 -3.601562 1.984375 -3.4375 C 1.941406 -3.269531 1.921875 -3.054688 1.921875 -2.796875 L 1.921875 -2.09375 C 1.921875 -1.925781 1.925781 -1.785156 1.9375 -1.671875 C 1.945312 -1.554688 1.957031 -1.453125 1.96875 -1.359375 C 1.988281 -1.273438 2.015625 -1.203125 2.046875 -1.140625 C 2.078125 -1.078125 2.117188 -1.015625 2.171875 -0.953125 C 2.304688 -0.765625 2.46875 -0.613281 2.65625 -0.5 C 2.851562 -0.394531 3.054688 -0.34375 3.265625 -0.34375 C 3.679688 -0.34375 4.015625 -0.515625 4.265625 -0.859375 C 4.523438 -1.210938 4.65625 -1.707031 4.65625 -2.34375 C 4.65625 -2.65625 4.617188 -2.9375 4.546875 -3.1875 C 4.484375 -3.445312 4.382812 -3.664062 4.25 -3.84375 C 4.125 -4.03125 3.972656 -4.171875 3.796875 -4.265625 C 3.617188 -4.367188 3.425781 -4.421875 3.21875 -4.421875 C 3 -4.421875 2.796875 -4.367188 2.609375 -4.265625 C 2.429688 -4.171875 2.28125 -4.035156 2.15625 -3.859375 Z M 2.15625 -3.859375 "/></g></g></g><g fill="#000000" fill-opacity="1"><g transform="translate(199.554485, 187.290943)"><g><path d="M 1.875 -1.40625 C 1.875 -1.175781 1.882812 -0.988281 1.90625 -0.84375 C 1.925781 -0.707031 1.960938 -0.597656 2.015625 -0.515625 C 2.078125 -0.441406 2.160156 -0.390625 2.265625 -0.359375 C 2.367188 -0.335938 2.507812 -0.320312 2.6875 -0.3125 L 2.6875 0 L 0.203125 0 L 0.203125 -0.3125 C 0.378906 -0.320312 0.519531 -0.34375 0.625 -0.375 C 0.738281 -0.40625 0.828125 -0.457031 0.890625 -0.53125 C 0.953125 -0.601562 0.992188 -0.703125 1.015625 -0.828125 C 1.035156 -0.960938 1.046875 -1.132812 1.046875 -1.34375 L 1.046875 -5.21875 C 1.046875 -5.539062 1.039062 -5.8125 1.03125 -6.03125 C 1.019531 -6.25 1.003906 -6.398438 0.984375 -6.484375 C 0.953125 -6.617188 0.878906 -6.707031 0.765625 -6.75 C 0.660156 -6.800781 0.46875 -6.828125 0.1875 -6.828125 L 0.1875 -7.140625 L 1.875 -7.46875 Z M 1.875 -1.40625 "/></g></g></g><g fill="#000000" fill-opacity="1"><g transform="translate(202.476207, 187.290943)"><g><path d="M 4.703125 -0.84375 C 4.191406 -0.21875 3.554688 0.09375 2.796875 0.09375 C 2.441406 0.09375 2.117188 0.0351562 1.828125 -0.078125 C 1.546875 -0.203125 1.300781 -0.367188 1.09375 -0.578125 C 0.882812 -0.796875 0.722656 -1.050781 0.609375 -1.34375 C 0.492188 -1.644531 0.4375 -1.972656 0.4375 -2.328125 C 0.4375 -2.691406 0.492188 -3.03125 0.609375 -3.34375 C 0.734375 -3.65625 0.90625 -3.921875 1.125 -4.140625 C 1.34375 -4.367188 1.601562 -4.546875 1.90625 -4.671875 C 2.207031 -4.796875 2.539062 -4.859375 2.90625 -4.859375 C 3.488281 -4.859375 3.9375 -4.703125 4.25 -4.390625 C 4.570312 -4.078125 4.734375 -3.625 4.734375 -3.03125 C 4.734375 -2.945312 4.71875 -2.894531 4.6875 -2.875 C 4.65625 -2.863281 4.578125 -2.859375 4.453125 -2.859375 L 1.5 -2.859375 C 1.476562 -2.804688 1.460938 -2.742188 1.453125 -2.671875 C 1.453125 -2.609375 1.453125 -2.535156 1.453125 -2.453125 C 1.453125 -2.140625 1.488281 -1.851562 1.5625 -1.59375 C 1.644531 -1.34375 1.753906 -1.125 1.890625 -0.9375 C 2.035156 -0.757812 2.203125 -0.617188 2.390625 -0.515625 C 2.585938 -0.421875 2.804688 -0.375 3.046875 -0.375 C 3.296875 -0.375 3.53125 -0.429688 3.75 -0.546875 C 3.96875 -0.660156 4.191406 -0.84375 4.421875 -1.09375 Z M 3.21875 -3.265625 C 3.332031 -3.265625 3.425781 -3.265625 3.5 -3.265625 C 3.570312 -3.273438 3.625 -3.289062 3.65625 -3.3125 C 3.695312 -3.332031 3.722656 -3.359375 3.734375 -3.390625 C 3.742188 -3.421875 3.75 -3.460938 3.75 -3.515625 C 3.75 -3.796875 3.660156 -4.015625 3.484375 -4.171875 C 3.304688 -4.335938 3.066406 -4.421875 2.765625 -4.421875 C 2.117188 -4.421875 1.71875 -4.035156 1.5625 -3.265625 Z M 3.21875 -3.265625 "/></g></g></g><g fill="#000000" fill-opacity="1"><g transform="translate(207.627413, 187.290943)"><g><path d="M 0.359375 -4.203125 L 0.359375 -4.53125 C 0.679688 -4.71875 0.929688 -4.90625 1.109375 -5.09375 C 1.285156 -5.28125 1.421875 -5.503906 1.515625 -5.765625 L 1.78125 -5.765625 L 1.78125 -4.625 L 2.984375 -4.625 L 2.984375 -4.203125 L 1.78125 -4.203125 L 1.78125 -1.46875 C 1.78125 -1.257812 1.789062 -1.082031 1.8125 -0.9375 C 1.832031 -0.789062 1.863281 -0.671875 1.90625 -0.578125 C 1.957031 -0.492188 2.019531 -0.429688 2.09375 -0.390625 C 2.175781 -0.359375 2.28125 -0.34375 2.40625 -0.34375 C 2.550781 -0.34375 2.675781 -0.375 2.78125 -0.4375 C 2.882812 -0.507812 2.988281 -0.617188 3.09375 -0.765625 L 3.328125 -0.59375 C 3.234375 -0.375 3.082031 -0.203125 2.875 -0.078125 C 2.675781 0.0351562 2.421875 0.09375 2.109375 0.09375 C 1.710938 0.09375 1.410156 0 1.203125 -0.1875 C 1.003906 -0.382812 0.90625 -0.660156 0.90625 -1.015625 L 0.90625 -4.203125 Z M 0.359375 -4.203125 "/></g></g></g><g fill="#000000" fill-opacity="1"><g transform="translate(211.025585, 187.290943)"><g><path d="M 4.703125 -0.84375 C 4.191406 -0.21875 3.554688 0.09375 2.796875 0.09375 C 2.441406 0.09375 2.117188 0.0351562 1.828125 -0.078125 C 1.546875 -0.203125 1.300781 -0.367188 1.09375 -0.578125 C 0.882812 -0.796875 0.722656 -1.050781 0.609375 -1.34375 C 0.492188 -1.644531 0.4375 -1.972656 0.4375 -2.328125 C 0.4375 -2.691406 0.492188 -3.03125 0.609375 -3.34375 C 0.734375 -3.65625 0.90625 -3.921875 1.125 -4.140625 C 1.34375 -4.367188 1.601562 -4.546875 1.90625 -4.671875 C 2.207031 -4.796875 2.539062 -4.859375 2.90625 -4.859375 C 3.488281 -4.859375 3.9375 -4.703125 4.25 -4.390625 C 4.570312 -4.078125 4.734375 -3.625 4.734375 -3.03125 C 4.734375 -2.945312 4.71875 -2.894531 4.6875 -2.875 C 4.65625 -2.863281 4.578125 -2.859375 4.453125 -2.859375 L 1.5 -2.859375 C 1.476562 -2.804688 1.460938 -2.742188 1.453125 -2.671875 C 1.453125 -2.609375 1.453125 -2.535156 1.453125 -2.453125 C 1.453125 -2.140625 1.488281 -1.851562 1.5625 -1.59375 C 1.644531 -1.34375 1.753906 -1.125 1.890625 -0.9375 C 2.035156 -0.757812 2.203125 -0.617188 2.390625 -0.515625 C 2.585938 -0.421875 2.804688 -0.375 3.046875 -0.375 C 3.296875 -0.375 3.53125 -0.429688 3.75 -0.546875 C 3.96875 -0.660156 4.191406 -0.84375 4.421875 -1.09375 Z M 3.21875 -3.265625 C 3.332031 -3.265625 3.425781 -3.265625 3.5 -3.265625 C 3.570312 -3.273438 3.625 -3.289062 3.65625 -3.3125 C 3.695312 -3.332031 3.722656 -3.359375 3.734375 -3.390625 C 3.742188 -3.421875 3.75 -3.460938 3.75 -3.515625 C 3.75 -3.796875 3.660156 -4.015625 3.484375 -4.171875 C 3.304688 -4.335938 3.066406 -4.421875 2.765625 -4.421875 C 2.117188 -4.421875 1.71875 -4.035156 1.5625 -3.265625 Z M 3.21875 -3.265625 "/></g></g></g><g fill="#000000" fill-opacity="1"><g transform="translate(216.176791, 187.290943)"><g><path d="M 4.359375 -0.75 L 4.3125 -0.75 C 4.101562 -0.445312 3.875 -0.226562 3.625 -0.09375 C 3.382812 0.03125 3.097656 0.09375 2.765625 0.09375 C 2.429688 0.09375 2.117188 0.03125 1.828125 -0.09375 C 1.546875 -0.21875 1.300781 -0.390625 1.09375 -0.609375 C 0.882812 -0.828125 0.722656 -1.085938 0.609375 -1.390625 C 0.492188 -1.703125 0.4375 -2.035156 0.4375 -2.390625 C 0.4375 -2.742188 0.492188 -3.070312 0.609375 -3.375 C 0.722656 -3.675781 0.882812 -3.9375 1.09375 -4.15625 C 1.300781 -4.375 1.546875 -4.546875 1.828125 -4.671875 C 2.117188 -4.796875 2.429688 -4.859375 2.765625 -4.859375 C 3.054688 -4.859375 3.3125 -4.8125 3.53125 -4.71875 C 3.757812 -4.625 3.976562 -4.46875 4.1875 -4.25 L 4.1875 -5.171875 C 4.1875 -5.515625 4.179688 -5.800781 4.171875 -6.03125 C 4.171875 -6.257812 4.160156 -6.414062 4.140625 -6.5 C 4.109375 -6.632812 4.023438 -6.726562 3.890625 -6.78125 C 3.753906 -6.832031 3.53125 -6.859375 3.21875 -6.859375 L 3.21875 -7.125 L 5.0625 -7.46875 L 5.0625 -2.28125 C 5.0625 -1.863281 5.0625 -1.519531 5.0625 -1.25 C 5.070312 -0.988281 5.09375 -0.800781 5.125 -0.6875 C 5.132812 -0.613281 5.15625 -0.550781 5.1875 -0.5 C 5.21875 -0.457031 5.253906 -0.421875 5.296875 -0.390625 C 5.347656 -0.359375 5.414062 -0.335938 5.5 -0.328125 C 5.59375 -0.316406 5.707031 -0.3125 5.84375 -0.3125 L 5.84375 -0.015625 L 4.359375 0.09375 Z M 4.171875 -2.75 C 4.171875 -3.0625 4.15625 -3.296875 4.125 -3.453125 C 4.09375 -3.617188 4.03125 -3.757812 3.9375 -3.875 C 3.789062 -4.0625 3.613281 -4.195312 3.40625 -4.28125 C 3.195312 -4.375 2.984375 -4.421875 2.765625 -4.421875 C 2.335938 -4.421875 2.007812 -4.242188 1.78125 -3.890625 C 1.5625 -3.535156 1.453125 -3.050781 1.453125 -2.4375 C 1.453125 -2.125 1.476562 -1.835938 1.53125 -1.578125 C 1.59375 -1.316406 1.675781 -1.09375 1.78125 -0.90625 C 1.894531 -0.726562 2.035156 -0.585938 2.203125 -0.484375 C 2.367188 -0.390625 2.554688 -0.34375 2.765625 -0.34375 C 2.878906 -0.34375 2.988281 -0.351562 3.09375 -0.375 C 3.207031 -0.394531 3.316406 -0.429688 3.421875 -0.484375 C 3.523438 -0.535156 3.625 -0.597656 3.71875 -0.671875 C 3.8125 -0.742188 3.882812 -0.820312 3.9375 -0.90625 C 4.019531 -1.039062 4.078125 -1.203125 4.109375 -1.390625 C 4.148438 -1.578125 4.171875 -1.832031 4.171875 -2.15625 Z M 4.171875 -2.75 "/></g></g></g><g fill="#000000" fill-opacity="1"><g transform="translate(222.244965, 187.290943)"><g/></g></g><g fill="#000000" fill-opacity="1"><g transform="translate(224.825072, 187.290943)"><g><path d="M 7.078125 -5.21875 L 6.703125 -5.21875 C 6.679688 -5.46875 6.640625 -5.679688 6.578125 -5.859375 C 6.515625 -6.035156 6.421875 -6.171875 6.296875 -6.265625 C 6.171875 -6.367188 6.015625 -6.441406 5.828125 -6.484375 C 5.640625 -6.523438 5.421875 -6.546875 5.171875 -6.546875 C 4.941406 -6.546875 4.757812 -6.539062 4.625 -6.53125 C 4.488281 -6.519531 4.382812 -6.5 4.3125 -6.46875 C 4.25 -6.445312 4.207031 -6.421875 4.1875 -6.390625 C 4.164062 -6.359375 4.15625 -6.316406 4.15625 -6.265625 L 4.15625 -1.453125 C 4.15625 -1.253906 4.164062 -1.085938 4.1875 -0.953125 C 4.21875 -0.816406 4.269531 -0.703125 4.34375 -0.609375 C 4.425781 -0.523438 4.546875 -0.457031 4.703125 -0.40625 C 4.859375 -0.363281 5.0625 -0.34375 5.3125 -0.34375 L 5.3125 0 L 1.90625 0 L 1.90625 -0.34375 C 2.15625 -0.34375 2.359375 -0.363281 2.515625 -0.40625 C 2.671875 -0.457031 2.789062 -0.523438 2.875 -0.609375 C 2.957031 -0.703125 3.007812 -0.816406 3.03125 -0.953125 C 3.0625 -1.085938 3.078125 -1.253906 3.078125 -1.453125 L 3.078125 -6.265625 C 3.078125 -6.316406 3.066406 -6.359375 3.046875 -6.390625 C 3.023438 -6.421875 2.984375 -6.445312 2.921875 -6.46875 C 2.859375 -6.5 2.769531 -6.519531 2.65625 -6.53125 C 2.539062 -6.539062 2.390625 -6.546875 2.203125 -6.546875 C 1.960938 -6.546875 1.738281 -6.535156 1.53125 -6.515625 C 1.332031 -6.492188 1.160156 -6.441406 1.015625 -6.359375 C 0.867188 -6.273438 0.75 -6.140625 0.65625 -5.953125 C 0.570312 -5.773438 0.523438 -5.53125 0.515625 -5.21875 L 0.1875 -5.21875 L 0.1875 -6.9375 L 6.984375 -6.9375 Z M 7.078125 -5.21875 "/></g></g></g><g fill="#000000" fill-opacity="1"><g transform="translate(232.043953, 187.290943)"><g><path d="M 3.140625 -2.65625 C 2.796875 -2.53125 2.503906 -2.40625 2.265625 -2.28125 C 2.035156 -2.15625 1.847656 -2.023438 1.703125 -1.890625 C 1.554688 -1.765625 1.453125 -1.640625 1.390625 -1.515625 C 1.328125 -1.390625 1.296875 -1.265625 1.296875 -1.140625 C 1.296875 -0.941406 1.359375 -0.773438 1.484375 -0.640625 C 1.617188 -0.515625 1.796875 -0.453125 2.015625 -0.453125 C 2.171875 -0.453125 2.316406 -0.488281 2.453125 -0.5625 C 2.585938 -0.644531 2.707031 -0.753906 2.8125 -0.890625 C 2.914062 -1.023438 2.992188 -1.179688 3.046875 -1.359375 C 3.109375 -1.546875 3.140625 -1.742188 3.140625 -1.953125 Z M 3.140625 -3.046875 L 3.140625 -3.421875 C 3.140625 -4.148438 2.828125 -4.515625 2.203125 -4.515625 C 2.097656 -4.515625 2.007812 -4.503906 1.9375 -4.484375 C 1.875 -4.472656 1.816406 -4.445312 1.765625 -4.40625 C 1.710938 -4.363281 1.664062 -4.300781 1.625 -4.21875 C 1.59375 -4.144531 1.554688 -4.050781 1.515625 -3.9375 C 1.453125 -3.757812 1.390625 -3.640625 1.328125 -3.578125 C 1.265625 -3.523438 1.171875 -3.5 1.046875 -3.5 C 0.753906 -3.5 0.609375 -3.648438 0.609375 -3.953125 C 0.609375 -4.242188 0.757812 -4.46875 1.0625 -4.625 C 1.363281 -4.78125 1.796875 -4.859375 2.359375 -4.859375 C 2.960938 -4.859375 3.390625 -4.75 3.640625 -4.53125 C 3.890625 -4.320312 4.015625 -3.960938 4.015625 -3.453125 L 4.015625 -1.4375 C 4.015625 -0.75 4.148438 -0.40625 4.421875 -0.40625 C 4.503906 -0.40625 4.582031 -0.414062 4.65625 -0.4375 C 4.738281 -0.46875 4.8125 -0.523438 4.875 -0.609375 L 5 -0.390625 C 4.925781 -0.253906 4.789062 -0.140625 4.59375 -0.046875 C 4.40625 0.046875 4.207031 0.09375 4 0.09375 C 3.726562 0.09375 3.53125 0.0078125 3.40625 -0.15625 C 3.28125 -0.320312 3.21875 -0.5625 3.21875 -0.875 L 3.171875 -0.875 C 3.015625 -0.582031 2.796875 -0.347656 2.515625 -0.171875 C 2.242188 -0.00390625 1.941406 0.078125 1.609375 0.078125 C 1.222656 0.078125 0.921875 -0.015625 0.703125 -0.203125 C 0.492188 -0.398438 0.390625 -0.660156 0.390625 -0.984375 C 0.390625 -1.128906 0.414062 -1.265625 0.46875 -1.390625 C 0.519531 -1.523438 0.597656 -1.648438 0.703125 -1.765625 C 0.816406 -1.890625 0.96875 -2.007812 1.15625 -2.125 C 1.34375 -2.238281 1.570312 -2.359375 1.84375 -2.484375 Z M 3.140625 -3.046875 "/></g></g></g><g fill="#000000" fill-opacity="1"><g transform="translate(237.02436, 187.290943)"><g><path d="M 0.78125 0 L 0.578125 0 L 0.578125 -1.546875 L 0.796875 -1.546875 C 1.035156 -0.703125 1.460938 -0.28125 2.078125 -0.28125 C 2.316406 -0.28125 2.503906 -0.335938 2.640625 -0.453125 C 2.785156 -0.566406 2.859375 -0.742188 2.859375 -0.984375 C 2.859375 -1.078125 2.84375 -1.15625 2.8125 -1.21875 C 2.789062 -1.28125 2.742188 -1.34375 2.671875 -1.40625 C 2.597656 -1.476562 2.492188 -1.5625 2.359375 -1.65625 C 2.222656 -1.75 2.039062 -1.863281 1.8125 -2 C 1.613281 -2.125 1.4375 -2.238281 1.28125 -2.34375 C 1.132812 -2.457031 1.007812 -2.566406 0.90625 -2.671875 C 0.800781 -2.785156 0.722656 -2.90625 0.671875 -3.03125 C 0.628906 -3.15625 0.609375 -3.300781 0.609375 -3.46875 C 0.609375 -3.675781 0.640625 -3.863281 0.703125 -4.03125 C 0.773438 -4.207031 0.867188 -4.351562 0.984375 -4.46875 C 1.109375 -4.59375 1.25 -4.6875 1.40625 -4.75 C 1.570312 -4.820312 1.75 -4.859375 1.9375 -4.859375 C 2.101562 -4.859375 2.269531 -4.832031 2.4375 -4.78125 C 2.613281 -4.726562 2.769531 -4.660156 2.90625 -4.578125 L 3.09375 -4.765625 L 3.265625 -4.765625 L 3.265625 -3.46875 L 3.03125 -3.46875 C 2.894531 -3.832031 2.75 -4.09375 2.59375 -4.25 C 2.4375 -4.40625 2.242188 -4.484375 2.015625 -4.484375 C 1.804688 -4.484375 1.640625 -4.429688 1.515625 -4.328125 C 1.398438 -4.222656 1.34375 -4.070312 1.34375 -3.875 C 1.34375 -3.769531 1.359375 -3.679688 1.390625 -3.609375 C 1.421875 -3.535156 1.472656 -3.460938 1.546875 -3.390625 C 1.617188 -3.316406 1.707031 -3.242188 1.8125 -3.171875 C 1.925781 -3.097656 2.0625 -3.015625 2.21875 -2.921875 C 2.476562 -2.753906 2.695312 -2.609375 2.875 -2.484375 C 3.0625 -2.359375 3.210938 -2.234375 3.328125 -2.109375 C 3.441406 -1.984375 3.523438 -1.851562 3.578125 -1.71875 C 3.628906 -1.59375 3.65625 -1.445312 3.65625 -1.28125 C 3.65625 -0.851562 3.515625 -0.515625 3.234375 -0.265625 C 2.960938 -0.0234375 2.601562 0.09375 2.15625 0.09375 C 1.6875 0.09375 1.285156 -0.0390625 0.953125 -0.3125 Z M 0.78125 0 "/></g></g></g><g fill="#000000" fill-opacity="1"><g transform="translate(241.105781, 187.290943)"><g><path d="M 3.125 -0.3125 C 3.320312 -0.3125 3.457031 -0.320312 3.53125 -0.34375 C 3.613281 -0.363281 3.65625 -0.382812 3.65625 -0.40625 C 3.644531 -0.457031 3.59375 -0.546875 3.5 -0.671875 C 3.414062 -0.796875 3.300781 -0.945312 3.15625 -1.125 L 2.203125 -2.28125 L 1.875 -1.96875 L 1.875 -1.4375 C 1.875 -1.195312 1.882812 -1.003906 1.90625 -0.859375 C 1.925781 -0.722656 1.960938 -0.613281 2.015625 -0.53125 C 2.078125 -0.445312 2.160156 -0.390625 2.265625 -0.359375 C 2.378906 -0.335938 2.523438 -0.320312 2.703125 -0.3125 L 2.703125 0 L 0.15625 0 L 0.15625 -0.3125 C 0.332031 -0.320312 0.472656 -0.335938 0.578125 -0.359375 C 0.691406 -0.390625 0.78125 -0.441406 0.84375 -0.515625 C 0.90625 -0.597656 0.945312 -0.707031 0.96875 -0.84375 C 1 -0.976562 1.015625 -1.15625 1.015625 -1.375 L 1.015625 -5.140625 C 1.015625 -5.597656 1.007812 -5.941406 1 -6.171875 C 0.988281 -6.410156 0.957031 -6.570312 0.90625 -6.65625 C 0.851562 -6.738281 0.765625 -6.785156 0.640625 -6.796875 C 0.515625 -6.816406 0.347656 -6.828125 0.140625 -6.828125 L 0.140625 -7.125 L 1.875 -7.46875 L 1.875 -2.53125 L 2.703125 -3.34375 C 2.972656 -3.613281 3.175781 -3.8125 3.3125 -3.9375 C 3.445312 -4.070312 3.515625 -4.171875 3.515625 -4.234375 C 3.515625 -4.304688 3.445312 -4.359375 3.3125 -4.390625 C 3.1875 -4.429688 3.007812 -4.453125 2.78125 -4.453125 L 2.78125 -4.765625 L 5.125 -4.765625 L 5.125 -4.453125 C 5.007812 -4.453125 4.910156 -4.445312 4.828125 -4.4375 C 4.742188 -4.425781 4.660156 -4.398438 4.578125 -4.359375 C 4.503906 -4.328125 4.425781 -4.28125 4.34375 -4.21875 C 4.257812 -4.15625 4.164062 -4.078125 4.0625 -3.984375 L 2.765625 -2.828125 L 4.546875 -0.8125 C 4.628906 -0.707031 4.703125 -0.625 4.765625 -0.5625 C 4.835938 -0.5 4.90625 -0.445312 4.96875 -0.40625 C 5.039062 -0.375 5.117188 -0.347656 5.203125 -0.328125 C 5.285156 -0.316406 5.382812 -0.3125 5.5 -0.3125 L 5.5 0 L 3.125 0 Z M 3.125 -0.3125 "/></g></g></g><g fill="#000000" fill-opacity="1"><g transform="translate(246.643558, 187.290943)"><g><path d="M 0.78125 0 L 0.578125 0 L 0.578125 -1.546875 L 0.796875 -1.546875 C 1.035156 -0.703125 1.460938 -0.28125 2.078125 -0.28125 C 2.316406 -0.28125 2.503906 -0.335938 2.640625 -0.453125 C 2.785156 -0.566406 2.859375 -0.742188 2.859375 -0.984375 C 2.859375 -1.078125 2.84375 -1.15625 2.8125 -1.21875 C 2.789062 -1.28125 2.742188 -1.34375 2.671875 -1.40625 C 2.597656 -1.476562 2.492188 -1.5625 2.359375 -1.65625 C 2.222656 -1.75 2.039062 -1.863281 1.8125 -2 C 1.613281 -2.125 1.4375 -2.238281 1.28125 -2.34375 C 1.132812 -2.457031 1.007812 -2.566406 0.90625 -2.671875 C 0.800781 -2.785156 0.722656 -2.90625 0.671875 -3.03125 C 0.628906 -3.15625 0.609375 -3.300781 0.609375 -3.46875 C 0.609375 -3.675781 0.640625 -3.863281 0.703125 -4.03125 C 0.773438 -4.207031 0.867188 -4.351562 0.984375 -4.46875 C 1.109375 -4.59375 1.25 -4.6875 1.40625 -4.75 C 1.570312 -4.820312 1.75 -4.859375 1.9375 -4.859375 C 2.101562 -4.859375 2.269531 -4.832031 2.4375 -4.78125 C 2.613281 -4.726562 2.769531 -4.660156 2.90625 -4.578125 L 3.09375 -4.765625 L 3.265625 -4.765625 L 3.265625 -3.46875 L 3.03125 -3.46875 C 2.894531 -3.832031 2.75 -4.09375 2.59375 -4.25 C 2.4375 -4.40625 2.242188 -4.484375 2.015625 -4.484375 C 1.804688 -4.484375 1.640625 -4.429688 1.515625 -4.328125 C 1.398438 -4.222656 1.34375 -4.070312 1.34375 -3.875 C 1.34375 -3.769531 1.359375 -3.679688 1.390625 -3.609375 C 1.421875 -3.535156 1.472656 -3.460938 1.546875 -3.390625 C 1.617188 -3.316406 1.707031 -3.242188 1.8125 -3.171875 C 1.925781 -3.097656 2.0625 -3.015625 2.21875 -2.921875 C 2.476562 -2.753906 2.695312 -2.609375 2.875 -2.484375 C 3.0625 -2.359375 3.210938 -2.234375 3.328125 -2.109375 C 3.441406 -1.984375 3.523438 -1.851562 3.578125 -1.71875 C 3.628906 -1.59375 3.65625 -1.445312 3.65625 -1.28125 C 3.65625 -0.851562 3.515625 -0.515625 3.234375 -0.265625 C 2.960938 -0.0234375 2.601562 0.09375 2.15625 0.09375 C 1.6875 0.09375 1.285156 -0.0390625 0.953125 -0.3125 Z M 0.78125 0 "/></g></g></g><g clip-path="url(#d4b69ec94a)"><g clip-path="url(#e7c4cce98b)"><path fill="#2ed1c1" d="M 37.5 127.230469 L 355.972656 127.230469 L 355.972656 214.054688 L 37.5 214.054688 Z M 37.5 127.230469 " fill-opacity="1" fill-rule="nonzero"/></g></g><g fill="#000000" fill-opacity="1"><g transform="translate(72.573676, 175.852009)"><g><path d="M 8.21875 -3.234375 C 8.21875 -3.617188 8.128906 -3.945312 7.953125 -4.21875 C 7.773438 -4.488281 7.546875 -4.71875 7.265625 -4.90625 C 6.984375 -5.09375 6.671875 -5.242188 6.328125 -5.359375 C 5.992188 -5.484375 5.671875 -5.597656 5.359375 -5.703125 C 4.910156 -5.847656 4.453125 -6.019531 3.984375 -6.21875 C 3.523438 -6.425781 3.101562 -6.675781 2.71875 -6.96875 C 2.332031 -7.269531 2.015625 -7.625 1.765625 -8.03125 C 1.523438 -8.445312 1.40625 -8.925781 1.40625 -9.46875 C 1.40625 -10.019531 1.523438 -10.507812 1.765625 -10.9375 C 2.015625 -11.375 2.332031 -11.742188 2.71875 -12.046875 C 3.113281 -12.347656 3.5625 -12.578125 4.0625 -12.734375 C 4.5625 -12.890625 5.0625 -12.96875 5.5625 -12.96875 C 6.125 -12.96875 6.660156 -12.875 7.171875 -12.6875 C 7.691406 -12.5 8.148438 -12.238281 8.546875 -11.90625 C 8.941406 -11.570312 9.257812 -11.164062 9.5 -10.6875 C 9.738281 -10.21875 9.863281 -9.691406 9.875 -9.109375 L 8.203125 -9.109375 C 8.160156 -9.472656 8.070312 -9.804688 7.9375 -10.109375 C 7.800781 -10.410156 7.617188 -10.671875 7.390625 -10.890625 C 7.171875 -11.109375 6.90625 -11.273438 6.59375 -11.390625 C 6.289062 -11.515625 5.945312 -11.578125 5.5625 -11.578125 C 5.257812 -11.578125 4.957031 -11.53125 4.65625 -11.4375 C 4.363281 -11.351562 4.097656 -11.222656 3.859375 -11.046875 C 3.628906 -10.867188 3.445312 -10.648438 3.3125 -10.390625 C 3.175781 -10.140625 3.109375 -9.84375 3.109375 -9.5 C 3.117188 -9.132812 3.210938 -8.820312 3.390625 -8.5625 C 3.566406 -8.3125 3.796875 -8.097656 4.078125 -7.921875 C 4.359375 -7.742188 4.660156 -7.597656 4.984375 -7.484375 C 5.304688 -7.367188 5.613281 -7.265625 5.90625 -7.171875 C 6.21875 -7.078125 6.535156 -6.960938 6.859375 -6.828125 C 7.179688 -6.703125 7.488281 -6.554688 7.78125 -6.390625 C 8.082031 -6.234375 8.363281 -6.050781 8.625 -5.84375 C 8.882812 -5.644531 9.109375 -5.414062 9.296875 -5.15625 C 9.492188 -4.894531 9.644531 -4.601562 9.75 -4.28125 C 9.863281 -3.96875 9.921875 -3.625 9.921875 -3.25 C 9.921875 -2.675781 9.789062 -2.175781 9.53125 -1.75 C 9.28125 -1.320312 8.953125 -0.960938 8.546875 -0.671875 C 8.140625 -0.390625 7.679688 -0.175781 7.171875 -0.03125 C 6.660156 0.101562 6.148438 0.171875 5.640625 0.171875 C 5.078125 0.171875 4.519531 0.0859375 3.96875 -0.078125 C 3.425781 -0.253906 2.941406 -0.507812 2.515625 -0.84375 C 2.085938 -1.175781 1.738281 -1.582031 1.46875 -2.0625 C 1.195312 -2.539062 1.050781 -3.082031 1.03125 -3.6875 L 2.703125 -3.6875 C 2.753906 -3.289062 2.859375 -2.9375 3.015625 -2.625 C 3.179688 -2.320312 3.394531 -2.0625 3.65625 -1.84375 C 3.914062 -1.632812 4.210938 -1.472656 4.546875 -1.359375 C 4.878906 -1.253906 5.242188 -1.203125 5.640625 -1.203125 C 5.960938 -1.203125 6.273438 -1.238281 6.578125 -1.3125 C 6.890625 -1.394531 7.164062 -1.519531 7.40625 -1.6875 C 7.644531 -1.851562 7.835938 -2.0625 7.984375 -2.3125 C 8.140625 -2.570312 8.21875 -2.878906 8.21875 -3.234375 Z M 8.21875 -3.234375 "/></g></g></g><g fill="#000000" fill-opacity="1"><g transform="translate(83.363436, 175.852009)"><g><path d="M 3.15625 -8.09375 C 3.488281 -8.582031 3.90625 -8.96875 4.40625 -9.25 C 4.90625 -9.53125 5.460938 -9.671875 6.078125 -9.671875 C 6.578125 -9.671875 7.03125 -9.597656 7.4375 -9.453125 C 7.84375 -9.316406 8.1875 -9.09375 8.46875 -8.78125 C 8.757812 -8.476562 8.984375 -8.09375 9.140625 -7.625 C 9.296875 -7.164062 9.375 -6.617188 9.375 -5.984375 L 9.375 0 L 7.75 0 L 7.75 -6 C 7.75 -6.78125 7.5625 -7.359375 7.1875 -7.734375 C 6.820312 -8.117188 6.296875 -8.304688 5.609375 -8.296875 C 5.085938 -8.296875 4.613281 -8.164062 4.1875 -7.90625 C 3.757812 -7.65625 3.414062 -7.320312 3.15625 -6.90625 L 3.15625 0 L 1.53125 0 L 1.53125 -13.484375 L 3.15625 -13.484375 Z M 3.15625 -8.09375 "/></g></g></g><g fill="#000000" fill-opacity="1"><g transform="translate(94.153195, 175.852009)"><g><path d="M 1.078125 -4.84375 C 1.078125 -5.519531 1.175781 -6.148438 1.375 -6.734375 C 1.570312 -7.328125 1.851562 -7.84375 2.21875 -8.28125 C 2.59375 -8.71875 3.046875 -9.054688 3.578125 -9.296875 C 4.109375 -9.546875 4.710938 -9.671875 5.390625 -9.671875 C 6.054688 -9.671875 6.65625 -9.546875 7.1875 -9.296875 C 7.726562 -9.054688 8.179688 -8.71875 8.546875 -8.28125 C 8.921875 -7.84375 9.207031 -7.328125 9.40625 -6.734375 C 9.613281 -6.148438 9.71875 -5.519531 9.71875 -4.84375 L 9.71875 -4.640625 C 9.71875 -3.960938 9.613281 -3.328125 9.40625 -2.734375 C 9.207031 -2.148438 8.921875 -1.640625 8.546875 -1.203125 C 8.179688 -0.773438 7.734375 -0.4375 7.203125 -0.1875 C 6.671875 0.0507812 6.070312 0.171875 5.40625 0.171875 C 4.726562 0.171875 4.117188 0.0507812 3.578125 -0.1875 C 3.046875 -0.4375 2.59375 -0.773438 2.21875 -1.203125 C 1.851562 -1.640625 1.570312 -2.148438 1.375 -2.734375 C 1.175781 -3.328125 1.078125 -3.960938 1.078125 -4.640625 Z M 2.703125 -4.640625 C 2.703125 -4.171875 2.753906 -3.722656 2.859375 -3.296875 C 2.972656 -2.878906 3.140625 -2.507812 3.359375 -2.1875 C 3.585938 -1.863281 3.867188 -1.609375 4.203125 -1.421875 C 4.546875 -1.234375 4.945312 -1.140625 5.40625 -1.140625 C 5.84375 -1.140625 6.226562 -1.234375 6.5625 -1.421875 C 6.90625 -1.609375 7.1875 -1.863281 7.40625 -2.1875 C 7.632812 -2.507812 7.804688 -2.878906 7.921875 -3.296875 C 8.035156 -3.722656 8.09375 -4.171875 8.09375 -4.640625 L 8.09375 -4.84375 C 8.09375 -5.300781 8.035156 -5.742188 7.921875 -6.171875 C 7.804688 -6.597656 7.632812 -6.96875 7.40625 -7.28125 C 7.175781 -7.601562 6.894531 -7.859375 6.5625 -8.046875 C 6.226562 -8.242188 5.835938 -8.34375 5.390625 -8.34375 C 4.929688 -8.34375 4.535156 -8.242188 4.203125 -8.046875 C 3.867188 -7.859375 3.585938 -7.601562 3.359375 -7.28125 C 3.140625 -6.96875 2.972656 -6.597656 2.859375 -6.171875 C 2.753906 -5.742188 2.703125 -5.300781 2.703125 -4.84375 Z M 2.703125 -4.640625 "/></g></g></g><g fill="#000000" fill-opacity="1"><g transform="translate(104.942955, 175.852009)"><g><path d="M 2.96875 -3.4375 L 3.15625 -2.078125 L 3.390625 -3.4375 L 4.921875 -9.5 L 5.96875 -9.5 L 7.46875 -3.4375 L 7.734375 -1.953125 L 7.96875 -3.4375 L 9.015625 -9.5 L 10.453125 -9.5 L 8.4375 0 L 7.15625 0 L 5.671875 -5.828125 L 5.421875 -7.296875 L 5.1875 -5.828125 L 3.71875 0 L 2.4375 0 L 0.421875 -9.5 L 1.859375 -9.5 Z M 2.96875 -3.4375 "/></g></g></g><g fill="#000000" fill-opacity="1"><g transform="translate(115.732714, 175.852009)"><g/></g></g><g fill="#000000" fill-opacity="1"><g transform="translate(126.531783, 175.852009)"><g><path d="M 10.03125 -4 C 9.988281 -3.351562 9.847656 -2.773438 9.609375 -2.265625 C 9.367188 -1.753906 9.050781 -1.316406 8.65625 -0.953125 C 8.257812 -0.585938 7.785156 -0.304688 7.234375 -0.109375 C 6.679688 0.0859375 6.070312 0.1875 5.40625 0.1875 C 4.65625 0.1875 3.984375 0.046875 3.390625 -0.234375 C 2.804688 -0.515625 2.316406 -0.90625 1.921875 -1.40625 C 1.523438 -1.90625 1.21875 -2.503906 1 -3.203125 C 0.789062 -3.910156 0.6875 -4.6875 0.6875 -5.53125 L 0.6875 -7.25 C 0.6875 -8.09375 0.796875 -8.863281 1.015625 -9.5625 C 1.242188 -10.269531 1.5625 -10.875 1.96875 -11.375 C 2.382812 -11.882812 2.882812 -12.273438 3.46875 -12.546875 C 4.050781 -12.828125 4.703125 -12.96875 5.421875 -12.96875 C 6.128906 -12.96875 6.753906 -12.867188 7.296875 -12.671875 C 7.847656 -12.472656 8.316406 -12.1875 8.703125 -11.8125 C 9.085938 -11.445312 9.390625 -11 9.609375 -10.46875 C 9.835938 -9.9375 9.976562 -9.335938 10.03125 -8.671875 L 7.578125 -8.671875 C 7.554688 -9.046875 7.5 -9.375 7.40625 -9.65625 C 7.3125 -9.945312 7.175781 -10.1875 7 -10.375 C 6.832031 -10.570312 6.617188 -10.71875 6.359375 -10.8125 C 6.097656 -10.90625 5.785156 -10.953125 5.421875 -10.953125 C 5.046875 -10.953125 4.71875 -10.867188 4.4375 -10.703125 C 4.15625 -10.546875 3.921875 -10.304688 3.734375 -9.984375 C 3.546875 -9.671875 3.410156 -9.285156 3.328125 -8.828125 C 3.242188 -8.367188 3.203125 -7.847656 3.203125 -7.265625 L 3.203125 -5.53125 C 3.203125 -4.269531 3.378906 -3.335938 3.734375 -2.734375 C 4.085938 -2.128906 4.644531 -1.828125 5.40625 -1.828125 C 6.050781 -1.828125 6.5625 -2 6.9375 -2.34375 C 7.3125 -2.6875 7.519531 -3.238281 7.5625 -4 Z M 10.03125 -4 "/></g></g></g><g fill="#000000" fill-opacity="1"><g transform="translate(137.321543, 175.852009)"><g><path d="M 0.90625 -4.84375 C 0.90625 -5.53125 1.003906 -6.164062 1.203125 -6.75 C 1.398438 -7.34375 1.691406 -7.851562 2.078125 -8.28125 C 2.460938 -8.71875 2.929688 -9.054688 3.484375 -9.296875 C 4.035156 -9.546875 4.671875 -9.671875 5.390625 -9.671875 C 6.097656 -9.671875 6.726562 -9.546875 7.28125 -9.296875 C 7.84375 -9.054688 8.3125 -8.71875 8.6875 -8.28125 C 9.070312 -7.851562 9.363281 -7.34375 9.5625 -6.75 C 9.769531 -6.164062 9.875 -5.53125 9.875 -4.84375 L 9.875 -4.65625 C 9.875 -3.957031 9.769531 -3.3125 9.5625 -2.71875 C 9.363281 -2.132812 9.070312 -1.625 8.6875 -1.1875 C 8.3125 -0.757812 7.847656 -0.421875 7.296875 -0.171875 C 6.742188 0.0664062 6.113281 0.1875 5.40625 0.1875 C 4.6875 0.1875 4.046875 0.0664062 3.484375 -0.171875 C 2.929688 -0.421875 2.460938 -0.757812 2.078125 -1.1875 C 1.691406 -1.625 1.398438 -2.132812 1.203125 -2.71875 C 1.003906 -3.3125 0.90625 -3.957031 0.90625 -4.65625 Z M 3.34375 -4.65625 C 3.34375 -4.257812 3.378906 -3.882812 3.453125 -3.53125 C 3.535156 -3.1875 3.65625 -2.882812 3.8125 -2.625 C 3.976562 -2.363281 4.191406 -2.15625 4.453125 -2 C 4.710938 -1.851562 5.03125 -1.78125 5.40625 -1.78125 C 5.757812 -1.78125 6.0625 -1.851562 6.3125 -2 C 6.570312 -2.15625 6.78125 -2.363281 6.9375 -2.625 C 7.101562 -2.882812 7.222656 -3.1875 7.296875 -3.53125 C 7.378906 -3.882812 7.421875 -4.257812 7.421875 -4.65625 L 7.421875 -4.84375 C 7.421875 -5.226562 7.378906 -5.59375 7.296875 -5.9375 C 7.222656 -6.28125 7.101562 -6.582031 6.9375 -6.84375 C 6.78125 -7.113281 6.570312 -7.320312 6.3125 -7.46875 C 6.0625 -7.625 5.753906 -7.703125 5.390625 -7.703125 C 5.023438 -7.703125 4.710938 -7.625 4.453125 -7.46875 C 4.191406 -7.320312 3.976562 -7.113281 3.8125 -6.84375 C 3.65625 -6.582031 3.535156 -6.28125 3.453125 -5.9375 C 3.378906 -5.59375 3.34375 -5.226562 3.34375 -4.84375 Z M 3.34375 -4.65625 "/></g></g></g><g fill="#000000" fill-opacity="1"><g transform="translate(148.111302, 175.852009)"><g><path d="M 2.75 -9.5 L 2.828125 -8.34375 C 3.003906 -8.757812 3.253906 -9.082031 3.578125 -9.3125 C 3.898438 -9.550781 4.285156 -9.671875 4.734375 -9.671875 C 5.503906 -9.671875 6.007812 -9.335938 6.25 -8.671875 C 6.4375 -8.984375 6.671875 -9.226562 6.953125 -9.40625 C 7.242188 -9.582031 7.597656 -9.671875 8.015625 -9.671875 C 8.296875 -9.671875 8.5625 -9.617188 8.8125 -9.515625 C 9.0625 -9.410156 9.273438 -9.242188 9.453125 -9.015625 C 9.640625 -8.785156 9.785156 -8.484375 9.890625 -8.109375 C 9.992188 -7.742188 10.046875 -7.300781 10.046875 -6.78125 L 10.046875 0 L 7.828125 0 L 7.828125 -6.78125 C 7.828125 -6.96875 7.804688 -7.117188 7.765625 -7.234375 C 7.722656 -7.347656 7.671875 -7.4375 7.609375 -7.5 C 7.546875 -7.570312 7.472656 -7.617188 7.390625 -7.640625 C 7.304688 -7.671875 7.21875 -7.6875 7.125 -7.6875 C 6.957031 -7.6875 6.816406 -7.644531 6.703125 -7.5625 C 6.585938 -7.488281 6.492188 -7.382812 6.421875 -7.25 L 6.421875 0 L 4.28125 0 L 4.28125 -6.796875 C 4.28125 -6.972656 4.257812 -7.117188 4.21875 -7.234375 C 4.1875 -7.359375 4.140625 -7.453125 4.078125 -7.515625 C 4.015625 -7.578125 3.941406 -7.617188 3.859375 -7.640625 C 3.773438 -7.671875 3.6875 -7.6875 3.59375 -7.6875 C 3.40625 -7.6875 3.253906 -7.632812 3.140625 -7.53125 C 3.035156 -7.425781 2.945312 -7.285156 2.875 -7.109375 L 2.875 0 L 0.65625 0 L 0.65625 -9.5 Z M 2.75 -9.5 "/></g></g></g><g fill="#000000" fill-opacity="1"><g transform="translate(158.901062, 175.852009)"><g><path d="M 9.78125 -4.65625 C 9.78125 -3.96875 9.695312 -3.328125 9.53125 -2.734375 C 9.375 -2.148438 9.132812 -1.640625 8.8125 -1.203125 C 8.5 -0.773438 8.113281 -0.4375 7.65625 -0.1875 C 7.195312 0.0507812 6.664062 0.171875 6.0625 0.171875 C 5.550781 0.171875 5.101562 0.0859375 4.71875 -0.078125 C 4.332031 -0.253906 4 -0.503906 3.71875 -0.828125 L 3.71875 3.65625 L 1.265625 3.65625 L 1.265625 -9.5 L 3.53125 -9.5 L 3.625 -8.578125 C 3.914062 -8.921875 4.257812 -9.1875 4.65625 -9.375 C 5.050781 -9.570312 5.515625 -9.671875 6.046875 -9.671875 C 6.648438 -9.671875 7.179688 -9.554688 7.640625 -9.328125 C 8.109375 -9.097656 8.5 -8.769531 8.8125 -8.34375 C 9.132812 -7.914062 9.375 -7.40625 9.53125 -6.8125 C 9.695312 -6.21875 9.78125 -5.5625 9.78125 -4.84375 Z M 7.328125 -4.84375 C 7.328125 -5.238281 7.289062 -5.609375 7.21875 -5.953125 C 7.144531 -6.304688 7.03125 -6.609375 6.875 -6.859375 C 6.71875 -7.117188 6.519531 -7.320312 6.28125 -7.46875 C 6.039062 -7.613281 5.75 -7.6875 5.40625 -7.6875 C 4.976562 -7.6875 4.625 -7.601562 4.34375 -7.4375 C 4.070312 -7.269531 3.863281 -7.035156 3.71875 -6.734375 L 3.71875 -2.765625 C 3.863281 -2.460938 4.070312 -2.222656 4.34375 -2.046875 C 4.625 -1.867188 4.984375 -1.78125 5.421875 -1.78125 C 5.765625 -1.78125 6.054688 -1.851562 6.296875 -2 C 6.546875 -2.15625 6.742188 -2.363281 6.890625 -2.625 C 7.046875 -2.894531 7.15625 -3.203125 7.21875 -3.546875 C 7.289062 -3.898438 7.328125 -4.269531 7.328125 -4.65625 Z M 7.328125 -4.84375 "/></g></g></g><g fill="#000000" fill-opacity="1"><g transform="translate(169.690822, 175.852009)"><g><path d="M 1.75 -13.484375 L 7.0625 -13.484375 L 7.0625 -1.984375 L 9.78125 -1.984375 L 9.78125 0 L 1.75 0 L 1.75 -1.984375 L 4.59375 -1.984375 L 4.59375 -11.5 L 1.75 -11.5 Z M 1.75 -13.484375 "/></g></g></g><g fill="#000000" fill-opacity="1"><g transform="translate(180.480581, 175.852009)"><g><path d="M 5.84375 0.171875 C 5.113281 0.171875 4.445312 0.0507812 3.84375 -0.1875 C 3.25 -0.425781 2.738281 -0.75 2.3125 -1.15625 C 1.882812 -1.570312 1.554688 -2.054688 1.328125 -2.609375 C 1.097656 -3.171875 0.984375 -3.773438 0.984375 -4.421875 L 0.984375 -4.765625 C 0.984375 -5.492188 1.097656 -6.15625 1.328125 -6.75 C 1.554688 -7.351562 1.875 -7.867188 2.28125 -8.296875 C 2.6875 -8.734375 3.171875 -9.070312 3.734375 -9.3125 C 4.296875 -9.550781 4.910156 -9.671875 5.578125 -9.671875 C 6.265625 -9.671875 6.875 -9.554688 7.40625 -9.328125 C 7.9375 -9.109375 8.390625 -8.789062 8.765625 -8.375 C 9.140625 -7.96875 9.421875 -7.476562 9.609375 -6.90625 C 9.804688 -6.332031 9.90625 -5.695312 9.90625 -5 L 9.90625 -3.953125 L 3.453125 -3.953125 C 3.503906 -3.640625 3.597656 -3.347656 3.734375 -3.078125 C 3.878906 -2.804688 4.0625 -2.570312 4.28125 -2.375 C 4.507812 -2.1875 4.765625 -2.039062 5.046875 -1.9375 C 5.335938 -1.832031 5.65625 -1.78125 6 -1.78125 C 6.238281 -1.78125 6.472656 -1.800781 6.703125 -1.84375 C 6.941406 -1.894531 7.171875 -1.96875 7.390625 -2.0625 C 7.609375 -2.15625 7.8125 -2.265625 8 -2.390625 C 8.1875 -2.523438 8.347656 -2.6875 8.484375 -2.875 L 9.71875 -1.546875 C 9.5625 -1.335938 9.359375 -1.128906 9.109375 -0.921875 C 8.867188 -0.710938 8.582031 -0.523438 8.25 -0.359375 C 7.925781 -0.203125 7.5625 -0.078125 7.15625 0.015625 C 6.75 0.117188 6.3125 0.171875 5.84375 0.171875 Z M 5.5625 -7.703125 C 5.28125 -7.703125 5.023438 -7.648438 4.796875 -7.546875 C 4.578125 -7.453125 4.378906 -7.3125 4.203125 -7.125 C 4.023438 -6.945312 3.878906 -6.734375 3.765625 -6.484375 C 3.648438 -6.234375 3.5625 -5.953125 3.5 -5.640625 L 7.515625 -5.640625 L 7.515625 -5.84375 C 7.492188 -6.09375 7.441406 -6.332031 7.359375 -6.5625 C 7.273438 -6.789062 7.148438 -6.988281 6.984375 -7.15625 C 6.816406 -7.320312 6.613281 -7.453125 6.375 -7.546875 C 6.144531 -7.648438 5.875 -7.703125 5.5625 -7.703125 Z M 5.5625 -7.703125 "/></g></g></g><g fill="#000000" fill-opacity="1"><g transform="translate(191.270341, 175.852009)"><g><path d="M 5.71875 -11.828125 L 5.71875 -9.5 L 9.265625 -9.5 L 9.265625 -7.703125 L 5.71875 -7.703125 L 5.71875 -3.625 C 5.71875 -3.269531 5.753906 -2.976562 5.828125 -2.75 C 5.910156 -2.519531 6.023438 -2.335938 6.171875 -2.203125 C 6.316406 -2.066406 6.492188 -1.96875 6.703125 -1.90625 C 6.910156 -1.84375 7.144531 -1.8125 7.40625 -1.8125 C 7.59375 -1.8125 7.78125 -1.820312 7.96875 -1.84375 C 8.164062 -1.863281 8.351562 -1.882812 8.53125 -1.90625 C 8.71875 -1.9375 8.882812 -1.960938 9.03125 -1.984375 C 9.1875 -2.015625 9.320312 -2.046875 9.4375 -2.078125 L 9.671875 -0.40625 C 9.503906 -0.300781 9.304688 -0.210938 9.078125 -0.140625 C 8.847656 -0.0664062 8.601562 -0.0078125 8.34375 0.03125 C 8.09375 0.0820312 7.828125 0.117188 7.546875 0.140625 C 7.265625 0.171875 6.992188 0.1875 6.734375 0.1875 C 6.203125 0.1875 5.722656 0.117188 5.296875 -0.015625 C 4.878906 -0.160156 4.519531 -0.375 4.21875 -0.65625 C 3.914062 -0.945312 3.679688 -1.316406 3.515625 -1.765625 C 3.359375 -2.210938 3.28125 -2.75 3.28125 -3.375 L 3.28125 -7.703125 L 1.109375 -7.703125 L 1.109375 -9.5 L 3.28125 -9.5 L 3.28125 -11.828125 Z M 5.71875 -11.828125 "/></g></g></g><g fill="#000000" fill-opacity="1"><g transform="translate(202.0601, 175.852009)"><g><path d="M 5.84375 0.171875 C 5.113281 0.171875 4.445312 0.0507812 3.84375 -0.1875 C 3.25 -0.425781 2.738281 -0.75 2.3125 -1.15625 C 1.882812 -1.570312 1.554688 -2.054688 1.328125 -2.609375 C 1.097656 -3.171875 0.984375 -3.773438 0.984375 -4.421875 L 0.984375 -4.765625 C 0.984375 -5.492188 1.097656 -6.15625 1.328125 -6.75 C 1.554688 -7.351562 1.875 -7.867188 2.28125 -8.296875 C 2.6875 -8.734375 3.171875 -9.070312 3.734375 -9.3125 C 4.296875 -9.550781 4.910156 -9.671875 5.578125 -9.671875 C 6.265625 -9.671875 6.875 -9.554688 7.40625 -9.328125 C 7.9375 -9.109375 8.390625 -8.789062 8.765625 -8.375 C 9.140625 -7.96875 9.421875 -7.476562 9.609375 -6.90625 C 9.804688 -6.332031 9.90625 -5.695312 9.90625 -5 L 9.90625 -3.953125 L 3.453125 -3.953125 C 3.503906 -3.640625 3.597656 -3.347656 3.734375 -3.078125 C 3.878906 -2.804688 4.0625 -2.570312 4.28125 -2.375 C 4.507812 -2.1875 4.765625 -2.039062 5.046875 -1.9375 C 5.335938 -1.832031 5.65625 -1.78125 6 -1.78125 C 6.238281 -1.78125 6.472656 -1.800781 6.703125 -1.84375 C 6.941406 -1.894531 7.171875 -1.96875 7.390625 -2.0625 C 7.609375 -2.15625 7.8125 -2.265625 8 -2.390625 C 8.1875 -2.523438 8.347656 -2.6875 8.484375 -2.875 L 9.71875 -1.546875 C 9.5625 -1.335938 9.359375 -1.128906 9.109375 -0.921875 C 8.867188 -0.710938 8.582031 -0.523438 8.25 -0.359375 C 7.925781 -0.203125 7.5625 -0.078125 7.15625 0.015625 C 6.75 0.117188 6.3125 0.171875 5.84375 0.171875 Z M 5.5625 -7.703125 C 5.28125 -7.703125 5.023438 -7.648438 4.796875 -7.546875 C 4.578125 -7.453125 4.378906 -7.3125 4.203125 -7.125 C 4.023438 -6.945312 3.878906 -6.734375 3.765625 -6.484375 C 3.648438 -6.234375 3.5625 -5.953125 3.5 -5.640625 L 7.515625 -5.640625 L 7.515625 -5.84375 C 7.492188 -6.09375 7.441406 -6.332031 7.359375 -6.5625 C 7.273438 -6.789062 7.148438 -6.988281 6.984375 -7.15625 C 6.816406 -7.320312 6.613281 -7.453125 6.375 -7.546875 C 6.144531 -7.648438 5.875 -7.703125 5.5625 -7.703125 Z M 5.5625 -7.703125 "/></g></g></g><g fill="#000000" fill-opacity="1"><g transform="translate(212.84986, 175.852009)"><g><path d="M 0.984375 -4.828125 C 0.984375 -5.546875 1.066406 -6.203125 1.234375 -6.796875 C 1.398438 -7.390625 1.644531 -7.898438 1.96875 -8.328125 C 2.289062 -8.753906 2.679688 -9.082031 3.140625 -9.3125 C 3.597656 -9.550781 4.125 -9.671875 4.71875 -9.671875 C 5.21875 -9.671875 5.65625 -9.582031 6.03125 -9.40625 C 6.40625 -9.226562 6.738281 -8.976562 7.03125 -8.65625 L 7.03125 -13.484375 L 9.484375 -13.484375 L 9.484375 0 L 7.28125 0 L 7.15625 -1 C 6.851562 -0.625 6.5 -0.332031 6.09375 -0.125 C 5.695312 0.0703125 5.234375 0.171875 4.703125 0.171875 C 4.117188 0.171875 3.597656 0.0507812 3.140625 -0.1875 C 2.679688 -0.425781 2.289062 -0.757812 1.96875 -1.1875 C 1.65625 -1.613281 1.410156 -2.117188 1.234375 -2.703125 C 1.066406 -3.296875 0.984375 -3.941406 0.984375 -4.640625 Z M 3.421875 -4.640625 C 3.421875 -4.242188 3.453125 -3.875 3.515625 -3.53125 C 3.585938 -3.1875 3.695312 -2.882812 3.84375 -2.625 C 4 -2.375 4.195312 -2.175781 4.4375 -2.03125 C 4.675781 -1.882812 4.972656 -1.8125 5.328125 -1.8125 C 5.742188 -1.8125 6.085938 -1.898438 6.359375 -2.078125 C 6.640625 -2.265625 6.863281 -2.515625 7.03125 -2.828125 L 7.03125 -6.671875 C 6.863281 -6.992188 6.644531 -7.242188 6.375 -7.421875 C 6.101562 -7.597656 5.757812 -7.6875 5.34375 -7.6875 C 5 -7.6875 4.703125 -7.613281 4.453125 -7.46875 C 4.210938 -7.320312 4.015625 -7.117188 3.859375 -6.859375 C 3.710938 -6.597656 3.601562 -6.289062 3.53125 -5.9375 C 3.457031 -5.59375 3.421875 -5.222656 3.421875 -4.828125 Z M 3.421875 -4.640625 "/></g></g></g><g fill="#000000" fill-opacity="1"><g transform="translate(223.649141, 175.852009)"><g/></g></g><g fill="#000000" fill-opacity="1"><g transform="translate(234.4389, 175.852009)"><g><path d="M 10.15625 -11.390625 L 6.203125 -11.390625 L 6.203125 0 L 4.625 0 L 4.625 -11.390625 L 0.671875 -11.390625 L 0.671875 -12.78125 L 10.15625 -12.78125 Z M 10.15625 -11.390625 "/></g></g></g><g fill="#000000" fill-opacity="1"><g transform="translate(245.22866, 175.852009)"><g><path d="M 7.765625 0 C 7.703125 -0.125 7.648438 -0.273438 7.609375 -0.453125 C 7.578125 -0.640625 7.550781 -0.832031 7.53125 -1.03125 C 7.363281 -0.875 7.179688 -0.71875 6.984375 -0.5625 C 6.785156 -0.414062 6.5625 -0.285156 6.3125 -0.171875 C 6.070312 -0.0664062 5.8125 0.015625 5.53125 0.078125 C 5.257812 0.140625 4.96875 0.171875 4.65625 0.171875 C 4.15625 0.171875 3.703125 0.0976562 3.296875 -0.046875 C 2.890625 -0.191406 2.539062 -0.390625 2.25 -0.640625 C 1.96875 -0.890625 1.75 -1.179688 1.59375 -1.515625 C 1.445312 -1.859375 1.375 -2.234375 1.375 -2.640625 C 1.375 -3.160156 1.476562 -3.613281 1.6875 -4 C 1.894531 -4.394531 2.1875 -4.722656 2.5625 -4.984375 C 2.945312 -5.242188 3.40625 -5.4375 3.9375 -5.5625 C 4.46875 -5.695312 5.066406 -5.765625 5.734375 -5.765625 L 7.515625 -5.765625 L 7.515625 -6.5 C 7.515625 -6.789062 7.457031 -7.050781 7.34375 -7.28125 C 7.238281 -7.507812 7.085938 -7.703125 6.890625 -7.859375 C 6.703125 -8.023438 6.46875 -8.148438 6.1875 -8.234375 C 5.914062 -8.328125 5.609375 -8.375 5.265625 -8.375 C 4.941406 -8.375 4.648438 -8.332031 4.390625 -8.25 C 4.140625 -8.164062 3.925781 -8.054688 3.75 -7.921875 C 3.570312 -7.785156 3.4375 -7.625 3.34375 -7.4375 C 3.25 -7.257812 3.203125 -7.066406 3.203125 -6.859375 L 1.5625 -6.859375 C 1.570312 -7.210938 1.660156 -7.554688 1.828125 -7.890625 C 2.003906 -8.222656 2.253906 -8.519531 2.578125 -8.78125 C 2.898438 -9.050781 3.296875 -9.265625 3.765625 -9.421875 C 4.234375 -9.585938 4.757812 -9.671875 5.34375 -9.671875 C 5.882812 -9.671875 6.382812 -9.601562 6.84375 -9.46875 C 7.3125 -9.34375 7.710938 -9.144531 8.046875 -8.875 C 8.378906 -8.613281 8.640625 -8.28125 8.828125 -7.875 C 9.023438 -7.476562 9.125 -7.015625 9.125 -6.484375 L 9.125 -2.078125 C 9.125 -1.753906 9.15625 -1.414062 9.21875 -1.0625 C 9.28125 -0.707031 9.363281 -0.398438 9.46875 -0.140625 L 9.46875 0 Z M 4.90625 -1.234375 C 5.21875 -1.234375 5.507812 -1.273438 5.78125 -1.359375 C 6.0625 -1.441406 6.3125 -1.550781 6.53125 -1.6875 C 6.757812 -1.820312 6.957031 -1.972656 7.125 -2.140625 C 7.289062 -2.316406 7.421875 -2.5 7.515625 -2.6875 L 7.515625 -4.609375 L 6 -4.609375 C 5.050781 -4.609375 4.3125 -4.46875 3.78125 -4.1875 C 3.257812 -3.90625 3 -3.460938 3 -2.859375 C 3 -2.628906 3.035156 -2.414062 3.109375 -2.21875 C 3.191406 -2.019531 3.3125 -1.847656 3.46875 -1.703125 C 3.625 -1.554688 3.820312 -1.441406 4.0625 -1.359375 C 4.300781 -1.273438 4.582031 -1.234375 4.90625 -1.234375 Z M 4.90625 -1.234375 "/></g></g></g><g fill="#000000" fill-opacity="1"><g transform="translate(256.018419, 175.852009)"><g><path d="M 7.84375 -2.515625 C 7.84375 -2.710938 7.800781 -2.890625 7.71875 -3.046875 C 7.644531 -3.203125 7.515625 -3.34375 7.328125 -3.46875 C 7.148438 -3.59375 6.910156 -3.707031 6.609375 -3.8125 C 6.316406 -3.925781 5.945312 -4.03125 5.5 -4.125 C 4.957031 -4.226562 4.460938 -4.359375 4.015625 -4.515625 C 3.566406 -4.679688 3.179688 -4.875 2.859375 -5.09375 C 2.546875 -5.3125 2.300781 -5.566406 2.125 -5.859375 C 1.945312 -6.160156 1.859375 -6.503906 1.859375 -6.890625 C 1.859375 -7.273438 1.945312 -7.632812 2.125 -7.96875 C 2.3125 -8.3125 2.566406 -8.609375 2.890625 -8.859375 C 3.222656 -9.109375 3.613281 -9.304688 4.0625 -9.453125 C 4.519531 -9.597656 5.019531 -9.671875 5.5625 -9.671875 C 6.15625 -9.671875 6.679688 -9.59375 7.140625 -9.4375 C 7.609375 -9.289062 8.003906 -9.082031 8.328125 -8.8125 C 8.660156 -8.539062 8.914062 -8.222656 9.09375 -7.859375 C 9.28125 -7.503906 9.375 -7.117188 9.375 -6.703125 L 7.75 -6.703125 C 7.75 -6.910156 7.691406 -7.113281 7.578125 -7.3125 C 7.472656 -7.507812 7.328125 -7.679688 7.140625 -7.828125 C 6.953125 -7.984375 6.722656 -8.109375 6.453125 -8.203125 C 6.191406 -8.296875 5.894531 -8.34375 5.5625 -8.34375 C 5.21875 -8.34375 4.914062 -8.300781 4.65625 -8.21875 C 4.394531 -8.144531 4.175781 -8.046875 4 -7.921875 C 3.832031 -7.796875 3.703125 -7.644531 3.609375 -7.46875 C 3.523438 -7.300781 3.484375 -7.128906 3.484375 -6.953125 C 3.484375 -6.765625 3.519531 -6.59375 3.59375 -6.4375 C 3.664062 -6.289062 3.785156 -6.160156 3.953125 -6.046875 C 4.128906 -5.929688 4.359375 -5.828125 4.640625 -5.734375 C 4.929688 -5.640625 5.300781 -5.550781 5.75 -5.46875 C 6.332031 -5.34375 6.851562 -5.195312 7.3125 -5.03125 C 7.78125 -4.875 8.171875 -4.679688 8.484375 -4.453125 C 8.804688 -4.234375 9.050781 -3.972656 9.21875 -3.671875 C 9.382812 -3.367188 9.46875 -3.023438 9.46875 -2.640625 C 9.46875 -2.210938 9.367188 -1.828125 9.171875 -1.484375 C 8.984375 -1.140625 8.71875 -0.84375 8.375 -0.59375 C 8.039062 -0.351562 7.632812 -0.164062 7.15625 -0.03125 C 6.6875 0.101562 6.171875 0.171875 5.609375 0.171875 C 4.960938 0.171875 4.390625 0.0859375 3.890625 -0.078125 C 3.390625 -0.253906 2.960938 -0.484375 2.609375 -0.765625 C 2.265625 -1.046875 2 -1.375 1.8125 -1.75 C 1.625 -2.125 1.53125 -2.515625 1.53125 -2.921875 L 3.15625 -2.921875 C 3.1875 -2.585938 3.273438 -2.304688 3.421875 -2.078125 C 3.578125 -1.847656 3.769531 -1.660156 4 -1.515625 C 4.238281 -1.378906 4.5 -1.28125 4.78125 -1.21875 C 5.0625 -1.164062 5.335938 -1.140625 5.609375 -1.140625 C 6.296875 -1.140625 6.835938 -1.265625 7.234375 -1.515625 C 7.628906 -1.765625 7.832031 -2.097656 7.84375 -2.515625 Z M 7.84375 -2.515625 "/></g></g></g><g fill="#000000" fill-opacity="1"><g transform="translate(266.808179, 175.852009)"><g><path d="M 4.375 -4.4375 L 3.171875 -3.28125 L 3.171875 0 L 1.546875 0 L 1.546875 -13.484375 L 3.171875 -13.484375 L 3.171875 -5.234375 L 4.234375 -6.375 L 7.359375 -9.5 L 9.328125 -9.5 L 5.484375 -5.546875 L 9.921875 0 L 7.859375 0 Z M 4.375 -4.4375 "/></g></g></g><g fill="#000000" fill-opacity="1"><g transform="translate(277.597939, 175.852009)"><g><path d="M 7.84375 -2.515625 C 7.84375 -2.710938 7.800781 -2.890625 7.71875 -3.046875 C 7.644531 -3.203125 7.515625 -3.34375 7.328125 -3.46875 C 7.148438 -3.59375 6.910156 -3.707031 6.609375 -3.8125 C 6.316406 -3.925781 5.945312 -4.03125 5.5 -4.125 C 4.957031 -4.226562 4.460938 -4.359375 4.015625 -4.515625 C 3.566406 -4.679688 3.179688 -4.875 2.859375 -5.09375 C 2.546875 -5.3125 2.300781 -5.566406 2.125 -5.859375 C 1.945312 -6.160156 1.859375 -6.503906 1.859375 -6.890625 C 1.859375 -7.273438 1.945312 -7.632812 2.125 -7.96875 C 2.3125 -8.3125 2.566406 -8.609375 2.890625 -8.859375 C 3.222656 -9.109375 3.613281 -9.304688 4.0625 -9.453125 C 4.519531 -9.597656 5.019531 -9.671875 5.5625 -9.671875 C 6.15625 -9.671875 6.679688 -9.59375 7.140625 -9.4375 C 7.609375 -9.289062 8.003906 -9.082031 8.328125 -8.8125 C 8.660156 -8.539062 8.914062 -8.222656 9.09375 -7.859375 C 9.28125 -7.503906 9.375 -7.117188 9.375 -6.703125 L 7.75 -6.703125 C 7.75 -6.910156 7.691406 -7.113281 7.578125 -7.3125 C 7.472656 -7.507812 7.328125 -7.679688 7.140625 -7.828125 C 6.953125 -7.984375 6.722656 -8.109375 6.453125 -8.203125 C 6.191406 -8.296875 5.894531 -8.34375 5.5625 -8.34375 C 5.21875 -8.34375 4.914062 -8.300781 4.65625 -8.21875 C 4.394531 -8.144531 4.175781 -8.046875 4 -7.921875 C 3.832031 -7.796875 3.703125 -7.644531 3.609375 -7.46875 C 3.523438 -7.300781 3.484375 -7.128906 3.484375 -6.953125 C 3.484375 -6.765625 3.519531 -6.59375 3.59375 -6.4375 C 3.664062 -6.289062 3.785156 -6.160156 3.953125 -6.046875 C 4.128906 -5.929688 4.359375 -5.828125 4.640625 -5.734375 C 4.929688 -5.640625 5.300781 -5.550781 5.75 -5.46875 C 6.332031 -5.34375 6.851562 -5.195312 7.3125 -5.03125 C 7.78125 -4.875 8.171875 -4.679688 8.484375 -4.453125 C 8.804688 -4.234375 9.050781 -3.972656 9.21875 -3.671875 C 9.382812 -3.367188 9.46875 -3.023438 9.46875 -2.640625 C 9.46875 -2.210938 9.367188 -1.828125 9.171875 -1.484375 C 8.984375 -1.140625 8.71875 -0.84375 8.375 -0.59375 C 8.039062 -0.351562 7.632812 -0.164062 7.15625 -0.03125 C 6.6875 0.101562 6.171875 0.171875 5.609375 0.171875 C 4.960938 0.171875 4.390625 0.0859375 3.890625 -0.078125 C 3.390625 -0.253906 2.960938 -0.484375 2.609375 -0.765625 C 2.265625 -1.046875 2 -1.375 1.8125 -1.75 C 1.625 -2.125 1.53125 -2.515625 1.53125 -2.921875 L 3.15625 -2.921875 C 3.1875 -2.585938 3.273438 -2.304688 3.421875 -2.078125 C 3.578125 -1.847656 3.769531 -1.660156 4 -1.515625 C 4.238281 -1.378906 4.5 -1.28125 4.78125 -1.21875 C 5.0625 -1.164062 5.335938 -1.140625 5.609375 -1.140625 C 6.296875 -1.140625 6.835938 -1.265625 7.234375 -1.515625 C 7.628906 -1.765625 7.832031 -2.097656 7.84375 -2.515625 Z M 7.84375 -2.515625 "/></g></g></g><g fill="#000000" fill-opacity="1"><g transform="translate(288.388016, 175.852009)"><g/></g></g><g fill="#000000" fill-opacity="1"><g transform="translate(299.177776, 175.852009)"><g/></g></g><g fill="#000000" fill-opacity="1"><g transform="translate(309.967535, 175.852009)"><g/></g></g><path fill="#ef9645" d="M 326.425781 175.5 C 325.882812 174.71875 326.1875 173.59375 326.050781 172.351562 C 325.910156 170.320312 325.027344 168.351562 323.3125 166.78125 L 317.472656 161.421875 C 317.472656 161.421875 316.320312 160.367188 315.25 161.503906 C 314.179688 162.636719 315.332031 163.695312 315.332031 163.695312 L 317.800781 165.957031 L 319.9375 167.921875 C 319.9375 167.921875 319.402344 168.488281 317.035156 166.316406 L 309.039062 158.980469 C 309.039062 158.980469 307.886719 157.925781 306.816406 159.0625 C 305.746094 160.195312 306.898438 161.253906 306.898438 161.253906 L 314.457031 168.191406 C 314.441406 168.175781 313.886719 168.722656 313.875 168.714844 L 305.789062 161.292969 C 305.789062 161.292969 304.636719 160.234375 303.566406 161.371094 C 302.496094 162.507812 303.644531 163.5625 303.644531 163.5625 L 311.734375 170.988281 C 311.742188 170.996094 311.222656 171.578125 311.238281 171.59375 L 304.261719 165.1875 C 304.261719 165.1875 303.109375 164.132812 302.039062 165.265625 C 300.96875 166.402344 302.121094 167.460938 302.121094 167.460938 L 309.539062 174.265625 C 309.605469 174.328125 309.148438 174.96875 309.230469 175.046875 L 303.886719 170.140625 C 303.886719 170.140625 302.734375 169.082031 301.664062 170.21875 C 300.59375 171.355469 301.746094 172.414062 301.746094 172.414062 L 310.464844 180.410156 C 311.921875 181.746094 313.414062 182.421875 315.21875 182.671875 C 315.582031 182.71875 316.054688 182.71875 316.246094 182.746094 C 316.851562 182.820312 317.386719 183.035156 318.101562 183.464844 C 319.019531 184.019531 320.398438 184.253906 321.191406 183.417969 L 323.894531 180.566406 L 326.386719 177.933594 C 327.179688 177.097656 327.039062 176.375 326.425781 175.5 Z M 326.425781 175.5 " fill-opacity="1" fill-rule="nonzero"/><g clip-path="url(#c3c11ecf8d)"><path fill="#fa743e" d="M 302.6875 183.742188 C 302.488281 183.742188 302.289062 183.667969 302.136719 183.515625 C 301.832031 183.214844 301.832031 182.726562 302.136719 182.425781 L 304.914062 179.683594 C 305.21875 179.382812 305.714844 179.382812 306.019531 179.683594 C 306.324219 179.988281 306.324219 180.476562 306.019531 180.777344 L 303.242188 183.515625 C 303.089844 183.667969 302.890625 183.742188 302.6875 183.742188 Z M 307.964844 184.453125 C 307.878906 184.453125 307.792969 184.4375 307.707031 184.410156 C 307.300781 184.269531 307.085938 183.828125 307.226562 183.425781 L 307.988281 181.285156 C 308.128906 180.882812 308.574219 180.671875 308.984375 180.8125 C 309.390625 180.953125 309.605469 181.394531 309.464844 181.796875 L 308.703125 183.9375 C 308.589844 184.253906 308.289062 184.453125 307.964844 184.453125 Z M 301.96875 178.535156 C 301.648438 178.535156 301.34375 178.335938 301.230469 178.019531 C 301.085938 177.621094 301.300781 177.179688 301.707031 177.035156 L 303.660156 176.355469 C 304.070312 176.21875 304.515625 176.425781 304.65625 176.828125 C 304.800781 177.230469 304.589844 177.671875 304.179688 177.8125 L 302.230469 178.492188 C 302.140625 178.523438 302.054688 178.535156 301.96875 178.535156 Z M 325.011719 161.738281 C 324.8125 161.738281 324.613281 161.660156 324.460938 161.511719 C 324.152344 161.210938 324.152344 160.722656 324.460938 160.417969 L 327.238281 157.679688 C 327.542969 157.378906 328.039062 157.378906 328.34375 157.679688 C 328.648438 157.980469 328.648438 158.46875 328.34375 158.769531 L 325.566406 161.511719 C 325.414062 161.664062 325.210938 161.738281 325.011719 161.738281 Z M 321.753906 160.425781 C 321.671875 160.425781 321.582031 160.414062 321.496094 160.382812 C 321.089844 160.242188 320.875 159.804688 321.015625 159.398438 L 321.777344 157.261719 C 321.917969 156.859375 322.363281 156.644531 322.773438 156.785156 C 323.179688 156.925781 323.394531 157.367188 323.253906 157.769531 L 322.492188 159.910156 C 322.382812 160.226562 322.078125 160.425781 321.753906 160.425781 Z M 326.5625 164.882812 C 326.238281 164.882812 325.9375 164.683594 325.824219 164.367188 C 325.679688 163.964844 325.894531 163.527344 326.300781 163.382812 L 328.25 162.703125 C 328.660156 162.5625 329.105469 162.773438 329.25 163.175781 C 329.394531 163.578125 329.179688 164.019531 328.773438 164.160156 L 326.820312 164.839844 C 326.734375 164.871094 326.648438 164.882812 326.5625 164.882812 Z M 326.5625 164.882812 " fill-opacity="1" fill-rule="nonzero"/></g><g clip-path="url(#f0322e12c6)"><path fill="#ffdb5e" d="M 328.839844 175.09375 C 328.324219 174.296875 328.667969 173.183594 328.574219 171.933594 C 328.503906 169.902344 327.6875 167.90625 326.027344 166.277344 L 320.375 160.726562 C 320.375 160.726562 319.261719 159.636719 318.148438 160.734375 C 317.042969 161.832031 318.15625 162.929688 318.15625 162.929688 L 320.546875 165.273438 L 322.613281 167.304688 C 322.613281 167.304688 322.058594 167.855469 319.769531 165.605469 C 317.476562 163.355469 312.03125 158.007812 312.03125 158.007812 C 312.03125 158.007812 310.914062 156.914062 309.804688 158.011719 C 308.695312 159.113281 309.8125 160.207031 309.8125 160.207031 L 317.128906 167.390625 C 317.113281 167.375 316.539062 167.90625 316.53125 167.894531 L 308.699219 160.210938 C 308.699219 160.210938 307.585938 159.113281 306.476562 160.214844 C 305.367188 161.3125 306.480469 162.40625 306.480469 162.40625 L 314.3125 170.097656 C 314.320312 170.105469 313.78125 170.667969 313.796875 170.683594 L 307.042969 164.050781 C 307.042969 164.050781 305.925781 162.957031 304.816406 164.058594 C 303.707031 165.15625 304.824219 166.253906 304.824219 166.253906 L 312.003906 173.300781 C 312.070312 173.367188 311.589844 173.988281 311.671875 174.070312 L 306.496094 168.988281 C 306.496094 168.988281 305.382812 167.898438 304.273438 168.996094 C 303.164062 170.097656 304.277344 171.191406 304.277344 171.191406 L 312.71875 179.472656 C 314.128906 180.855469 315.597656 181.582031 317.390625 181.890625 C 317.757812 181.953125 318.226562 181.96875 318.417969 181.996094 C 319.023438 182.09375 319.546875 182.324219 320.246094 182.78125 C 321.148438 183.367188 322.515625 183.644531 323.335938 182.835938 L 326.136719 180.074219 L 328.71875 177.527344 C 329.539062 176.714844 329.421875 175.988281 328.839844 175.09375 Z M 328.839844 175.09375 " fill-opacity="1" fill-rule="nonzero"/></g></svg>