<svg xmlns="http://www.w3.org/2000/svg" xmlns:xlink="http://www.w3.org/1999/xlink" width="500" zoomAndPan="magnify" viewBox="0 0 375 149.999998" height="200" preserveAspectRatio="xMidYMid meet" version="1.0"><defs><g/><clipPath id="b0d2d0fb2a"><path d="M 1.707031 31.054688 L 373.492188 31.054688 L 373.492188 100.679688 L 1.707031 100.679688 Z M 1.707031 31.054688 " clip-rule="nonzero"/></clipPath><clipPath id="bd6dfcba42"><path d="M 322.621094 31.054688 C 350.605469 31.054688 373.292969 46.640625 373.292969 65.867188 C 373.292969 85.09375 350.605469 100.679688 322.621094 100.679688 L 52.378906 100.679688 C 24.394531 100.679688 1.707031 85.09375 1.707031 65.867188 C 1.707031 46.640625 24.394531 31.054688 52.378906 31.054688 Z M 322.621094 31.054688 " clip-rule="nonzero"/></clipPath><clipPath id="ec891fbbc4"><path d="M 1.707031 15 L 373.382812 15 L 373.382812 90.515625 L 1.707031 90.515625 Z M 1.707031 15 " clip-rule="nonzero"/></clipPath><clipPath id="89aa7a4759"><path d="M 322.621094 15 C 350.605469 15 373.292969 31.90625 373.292969 52.757812 C 373.292969 73.609375 350.605469 90.515625 322.621094 90.515625 L 52.378906 90.515625 C 24.394531 90.515625 1.707031 73.609375 1.707031 52.757812 C 1.707031 31.90625 24.394531 15 52.378906 15 Z M 322.621094 15 " clip-rule="nonzero"/></clipPath><clipPath id="89cc55c43c"><path d="M 309 36.40625 L 342.558594 36.40625 L 342.558594 69.40625 L 309 69.40625 Z M 309 36.40625 " clip-rule="nonzero"/></clipPath><clipPath id="8c842d112d"><path d="M 312 37 L 342.558594 37 L 342.558594 69 L 312 69 Z M 312 37 " clip-rule="nonzero"/></clipPath></defs><g clip-path="url(#b0d2d0fb2a)"><g clip-path="url(#bd6dfcba42)"><path fill="#34acd9" d="M 1.707031 31.054688 L 373.21875 31.054688 L 373.21875 100.679688 L 1.707031 100.679688 Z M 1.707031 31.054688 " fill-opacity="1" fill-rule="nonzero"/></g></g><g fill="#000000" fill-opacity="1"><g transform="translate(153.453546, 66.30388)"><g><path d="M 0.328125 -1.328125 L 0.53125 -1.328125 C 0.5625 -1.160156 0.613281 -1.007812 0.6875 -0.875 C 0.757812 -0.738281 0.851562 -0.625 0.96875 -0.53125 C 1.082031 -0.4375 1.210938 -0.363281 1.359375 -0.3125 C 1.503906 -0.257812 1.660156 -0.234375 1.828125 -0.234375 C 2.109375 -0.234375 2.328125 -0.296875 2.484375 -0.421875 C 2.648438 -0.554688 2.734375 -0.738281 2.734375 -0.96875 C 2.734375 -1.0625 2.71875 -1.144531 2.6875 -1.21875 C 2.65625 -1.300781 2.597656 -1.378906 2.515625 -1.453125 C 2.441406 -1.535156 2.34375 -1.609375 2.21875 -1.671875 C 2.09375 -1.742188 1.929688 -1.820312 1.734375 -1.90625 C 1.503906 -2.007812 1.304688 -2.109375 1.140625 -2.203125 C 0.984375 -2.296875 0.859375 -2.394531 0.765625 -2.5 C 0.671875 -2.601562 0.601562 -2.710938 0.5625 -2.828125 C 0.53125 -2.941406 0.515625 -3.070312 0.515625 -3.21875 C 0.515625 -3.394531 0.546875 -3.554688 0.609375 -3.703125 C 0.671875 -3.847656 0.753906 -3.972656 0.859375 -4.078125 C 0.972656 -4.191406 1.109375 -4.273438 1.265625 -4.328125 C 1.421875 -4.390625 1.59375 -4.421875 1.78125 -4.421875 C 1.945312 -4.421875 2.101562 -4.394531 2.25 -4.34375 C 2.394531 -4.289062 2.539062 -4.207031 2.6875 -4.09375 L 2.828125 -4.34375 L 2.953125 -4.34375 L 3.015625 -3.21875 L 2.8125 -3.21875 C 2.71875 -3.53125 2.582031 -3.757812 2.40625 -3.90625 C 2.238281 -4.0625 2.035156 -4.140625 1.796875 -4.140625 C 1.566406 -4.140625 1.382812 -4.082031 1.25 -3.96875 C 1.113281 -3.851562 1.046875 -3.695312 1.046875 -3.5 C 1.046875 -3.414062 1.0625 -3.332031 1.09375 -3.25 C 1.125 -3.175781 1.171875 -3.109375 1.234375 -3.046875 C 1.304688 -2.984375 1.394531 -2.914062 1.5 -2.84375 C 1.613281 -2.78125 1.75 -2.710938 1.90625 -2.640625 C 2.1875 -2.515625 2.421875 -2.394531 2.609375 -2.28125 C 2.796875 -2.175781 2.941406 -2.070312 3.046875 -1.96875 C 3.160156 -1.863281 3.238281 -1.75 3.28125 -1.625 C 3.332031 -1.507812 3.359375 -1.378906 3.359375 -1.234375 C 3.359375 -1.046875 3.316406 -0.867188 3.234375 -0.703125 C 3.160156 -0.546875 3.054688 -0.410156 2.921875 -0.296875 C 2.785156 -0.179688 2.625 -0.09375 2.4375 -0.03125 C 2.25 0.03125 2.039062 0.0625 1.8125 0.0625 C 1.59375 0.0625 1.394531 0.03125 1.21875 -0.03125 C 1.050781 -0.09375 0.878906 -0.195312 0.703125 -0.34375 L 0.546875 -0.0625 L 0.40625 -0.0625 Z M 0.328125 -1.328125 "/></g></g></g><g fill="#000000" fill-opacity="1"><g transform="translate(157.10436, 66.30388)"><g><path d="M 1.1875 -0.90625 C 1.1875 -0.75 1.1875 -0.625 1.1875 -0.53125 C 1.195312 -0.4375 1.21875 -0.363281 1.25 -0.3125 C 1.28125 -0.269531 1.328125 -0.238281 1.390625 -0.21875 C 1.453125 -0.207031 1.535156 -0.203125 1.640625 -0.203125 L 1.640625 0 L 0.140625 0 L 0.140625 -0.203125 C 0.242188 -0.203125 0.328125 -0.207031 0.390625 -0.21875 C 0.460938 -0.238281 0.515625 -0.269531 0.546875 -0.3125 C 0.578125 -0.363281 0.597656 -0.429688 0.609375 -0.515625 C 0.617188 -0.597656 0.625 -0.710938 0.625 -0.859375 L 0.625 -3.234375 C 0.625 -3.460938 0.617188 -3.640625 0.609375 -3.765625 C 0.609375 -3.898438 0.597656 -4.003906 0.578125 -4.078125 C 0.578125 -4.117188 0.566406 -4.148438 0.546875 -4.171875 C 0.523438 -4.203125 0.5 -4.226562 0.46875 -4.25 C 0.4375 -4.269531 0.390625 -4.28125 0.328125 -4.28125 C 0.273438 -4.289062 0.207031 -4.296875 0.125 -4.296875 L 0.125 -4.5 L 1.171875 -4.703125 L 1.171875 -2.546875 L 1.1875 -2.546875 C 1.25 -2.617188 1.320312 -2.6875 1.40625 -2.75 C 1.488281 -2.8125 1.578125 -2.863281 1.671875 -2.90625 C 1.773438 -2.957031 1.878906 -2.992188 1.984375 -3.015625 C 2.097656 -3.046875 2.203125 -3.0625 2.296875 -3.0625 C 2.472656 -3.0625 2.632812 -3.03125 2.78125 -2.96875 C 2.925781 -2.90625 3.039062 -2.828125 3.125 -2.734375 C 3.1875 -2.640625 3.234375 -2.519531 3.265625 -2.375 C 3.296875 -2.238281 3.3125 -2.050781 3.3125 -1.8125 L 3.3125 -0.90625 C 3.3125 -0.75 3.3125 -0.625 3.3125 -0.53125 C 3.320312 -0.445312 3.34375 -0.378906 3.375 -0.328125 C 3.40625 -0.273438 3.453125 -0.238281 3.515625 -0.21875 C 3.578125 -0.207031 3.660156 -0.203125 3.765625 -0.203125 L 3.765625 0 L 2.265625 0 L 2.265625 -0.203125 C 2.367188 -0.203125 2.453125 -0.207031 2.515625 -0.21875 C 2.585938 -0.238281 2.640625 -0.269531 2.671875 -0.3125 C 2.703125 -0.363281 2.722656 -0.429688 2.734375 -0.515625 C 2.742188 -0.597656 2.75 -0.710938 2.75 -0.859375 L 2.75 -1.578125 C 2.75 -2.003906 2.695312 -2.304688 2.59375 -2.484375 C 2.5 -2.660156 2.335938 -2.75 2.109375 -2.75 C 1.929688 -2.75 1.769531 -2.703125 1.625 -2.609375 C 1.476562 -2.523438 1.363281 -2.398438 1.28125 -2.234375 C 1.257812 -2.191406 1.238281 -2.148438 1.21875 -2.109375 C 1.207031 -2.078125 1.195312 -2.039062 1.1875 -2 C 1.1875 -1.957031 1.1875 -1.90625 1.1875 -1.84375 C 1.1875 -1.789062 1.1875 -1.71875 1.1875 -1.625 Z M 1.1875 -0.90625 "/></g></g></g><g fill="#000000" fill-opacity="1"><g transform="translate(160.998566, 66.30388)"><g><path d="M 1.84375 -3.0625 C 2.0625 -3.0625 2.265625 -3.019531 2.453125 -2.9375 C 2.648438 -2.863281 2.820312 -2.757812 2.96875 -2.625 C 3.113281 -2.488281 3.226562 -2.328125 3.3125 -2.140625 C 3.394531 -1.953125 3.4375 -1.75 3.4375 -1.53125 C 3.4375 -1.300781 3.394531 -1.085938 3.3125 -0.890625 C 3.226562 -0.691406 3.113281 -0.523438 2.96875 -0.390625 C 2.820312 -0.253906 2.648438 -0.144531 2.453125 -0.0625 C 2.265625 0.0195312 2.0625 0.0625 1.84375 0.0625 C 1.632812 0.0625 1.429688 0.0234375 1.234375 -0.046875 C 1.046875 -0.128906 0.878906 -0.238281 0.734375 -0.375 C 0.585938 -0.519531 0.472656 -0.691406 0.390625 -0.890625 C 0.304688 -1.085938 0.265625 -1.300781 0.265625 -1.53125 C 0.265625 -1.75 0.304688 -1.953125 0.390625 -2.140625 C 0.472656 -2.328125 0.585938 -2.488281 0.734375 -2.625 C 0.878906 -2.769531 1.046875 -2.878906 1.234375 -2.953125 C 1.429688 -3.023438 1.632812 -3.0625 1.84375 -3.0625 Z M 1.84375 -2.796875 C 1.707031 -2.796875 1.578125 -2.765625 1.453125 -2.703125 C 1.335938 -2.640625 1.238281 -2.550781 1.15625 -2.4375 C 1.082031 -2.332031 1.019531 -2.195312 0.96875 -2.03125 C 0.925781 -1.875 0.90625 -1.703125 0.90625 -1.515625 C 0.90625 -1.316406 0.925781 -1.140625 0.96875 -0.984375 C 1.019531 -0.828125 1.082031 -0.691406 1.15625 -0.578125 C 1.238281 -0.460938 1.335938 -0.375 1.453125 -0.3125 C 1.566406 -0.257812 1.695312 -0.234375 1.84375 -0.234375 C 1.988281 -0.234375 2.117188 -0.257812 2.234375 -0.3125 C 2.347656 -0.375 2.445312 -0.460938 2.53125 -0.578125 C 2.613281 -0.691406 2.675781 -0.828125 2.71875 -0.984375 C 2.769531 -1.148438 2.796875 -1.328125 2.796875 -1.515625 C 2.796875 -1.703125 2.769531 -1.875 2.71875 -2.03125 C 2.675781 -2.1875 2.613281 -2.320312 2.53125 -2.4375 C 2.445312 -2.550781 2.347656 -2.640625 2.234375 -2.703125 C 2.117188 -2.765625 1.988281 -2.796875 1.84375 -2.796875 Z M 1.84375 -2.796875 "/></g></g></g><g fill="#000000" fill-opacity="1"><g transform="translate(164.700318, 66.30388)"><g><path d="M 1.578125 0.0625 L 1.359375 0.0625 L 0.625 -2.296875 C 0.59375 -2.410156 0.5625 -2.5 0.53125 -2.5625 C 0.5 -2.625 0.460938 -2.671875 0.421875 -2.703125 C 0.378906 -2.742188 0.328125 -2.769531 0.265625 -2.78125 C 0.210938 -2.800781 0.144531 -2.8125 0.0625 -2.8125 L 0.0625 -3 L 1.578125 -3 L 1.578125 -2.8125 C 1.421875 -2.8125 1.3125 -2.789062 1.25 -2.75 C 1.195312 -2.71875 1.171875 -2.660156 1.171875 -2.578125 C 1.171875 -2.546875 1.175781 -2.503906 1.1875 -2.453125 C 1.195312 -2.398438 1.210938 -2.332031 1.234375 -2.25 L 1.609375 -0.90625 L 1.640625 -0.90625 L 2.46875 -3 L 2.65625 -3 L 3.40625 -0.90625 L 3.421875 -0.90625 L 3.765625 -1.828125 C 3.804688 -1.953125 3.84375 -2.054688 3.875 -2.140625 C 3.90625 -2.222656 3.925781 -2.289062 3.9375 -2.34375 C 3.957031 -2.40625 3.972656 -2.453125 3.984375 -2.484375 C 3.992188 -2.523438 4 -2.566406 4 -2.609375 C 4 -2.691406 3.972656 -2.742188 3.921875 -2.765625 C 3.867188 -2.796875 3.769531 -2.8125 3.625 -2.8125 L 3.625 -3 L 4.75 -3 L 4.75 -2.8125 C 4.695312 -2.8125 4.648438 -2.800781 4.609375 -2.78125 C 4.566406 -2.757812 4.523438 -2.722656 4.484375 -2.671875 C 4.453125 -2.628906 4.414062 -2.5625 4.375 -2.46875 C 4.332031 -2.382812 4.28125 -2.265625 4.21875 -2.109375 L 3.328125 0.0625 L 3.125 0.0625 L 2.4375 -2.03125 L 2.40625 -2.03125 Z M 1.578125 0.0625 "/></g></g></g><g fill="#000000" fill-opacity="1"><g transform="translate(169.522789, 66.30388)"><g/></g></g><g fill="#000000" fill-opacity="1"><g transform="translate(171.147255, 66.30388)"><g><path d="M 3.90625 -4.375 L 4.0625 -4.375 L 4.125 -3.0625 L 3.90625 -3.0625 C 3.820312 -3.394531 3.660156 -3.65625 3.421875 -3.84375 C 3.179688 -4.03125 2.894531 -4.125 2.5625 -4.125 C 2.332031 -4.125 2.125 -4.078125 1.9375 -3.984375 C 1.757812 -3.898438 1.609375 -3.769531 1.484375 -3.59375 C 1.359375 -3.425781 1.257812 -3.21875 1.1875 -2.96875 C 1.125 -2.726562 1.09375 -2.453125 1.09375 -2.140625 C 1.09375 -1.535156 1.21875 -1.066406 1.46875 -0.734375 C 1.726562 -0.410156 2.097656 -0.25 2.578125 -0.25 C 3.304688 -0.25 3.773438 -0.632812 3.984375 -1.40625 L 4.21875 -1.40625 L 4.21875 0 L 4.015625 0 L 3.890625 -0.453125 C 3.492188 -0.109375 3.015625 0.0625 2.453125 0.0625 C 2.128906 0.0625 1.835938 0.0078125 1.578125 -0.09375 C 1.316406 -0.195312 1.09375 -0.34375 0.90625 -0.53125 C 0.726562 -0.71875 0.585938 -0.941406 0.484375 -1.203125 C 0.390625 -1.472656 0.34375 -1.773438 0.34375 -2.109375 C 0.34375 -2.453125 0.394531 -2.765625 0.5 -3.046875 C 0.601562 -3.335938 0.75 -3.582031 0.9375 -3.78125 C 1.132812 -3.988281 1.363281 -4.144531 1.625 -4.25 C 1.894531 -4.363281 2.191406 -4.421875 2.515625 -4.421875 C 2.742188 -4.421875 2.957031 -4.390625 3.15625 -4.328125 C 3.351562 -4.265625 3.570312 -4.160156 3.8125 -4.015625 Z M 3.90625 -4.375 "/></g></g></g><g fill="#000000" fill-opacity="1"><g transform="translate(175.686714, 66.30388)"><g><path d="M 1.84375 -3.0625 C 2.0625 -3.0625 2.265625 -3.019531 2.453125 -2.9375 C 2.648438 -2.863281 2.820312 -2.757812 2.96875 -2.625 C 3.113281 -2.488281 3.226562 -2.328125 3.3125 -2.140625 C 3.394531 -1.953125 3.4375 -1.75 3.4375 -1.53125 C 3.4375 -1.300781 3.394531 -1.085938 3.3125 -0.890625 C 3.226562 -0.691406 3.113281 -0.523438 2.96875 -0.390625 C 2.820312 -0.253906 2.648438 -0.144531 2.453125 -0.0625 C 2.265625 0.0195312 2.0625 0.0625 1.84375 0.0625 C 1.632812 0.0625 1.429688 0.0234375 1.234375 -0.046875 C 1.046875 -0.128906 0.878906 -0.238281 0.734375 -0.375 C 0.585938 -0.519531 0.472656 -0.691406 0.390625 -0.890625 C 0.304688 -1.085938 0.265625 -1.300781 0.265625 -1.53125 C 0.265625 -1.75 0.304688 -1.953125 0.390625 -2.140625 C 0.472656 -2.328125 0.585938 -2.488281 0.734375 -2.625 C 0.878906 -2.769531 1.046875 -2.878906 1.234375 -2.953125 C 1.429688 -3.023438 1.632812 -3.0625 1.84375 -3.0625 Z M 1.84375 -2.796875 C 1.707031 -2.796875 1.578125 -2.765625 1.453125 -2.703125 C 1.335938 -2.640625 1.238281 -2.550781 1.15625 -2.4375 C 1.082031 -2.332031 1.019531 -2.195312 0.96875 -2.03125 C 0.925781 -1.875 0.90625 -1.703125 0.90625 -1.515625 C 0.90625 -1.316406 0.925781 -1.140625 0.96875 -0.984375 C 1.019531 -0.828125 1.082031 -0.691406 1.15625 -0.578125 C 1.238281 -0.460938 1.335938 -0.375 1.453125 -0.3125 C 1.566406 -0.257812 1.695312 -0.234375 1.84375 -0.234375 C 1.988281 -0.234375 2.117188 -0.257812 2.234375 -0.3125 C 2.347656 -0.375 2.445312 -0.460938 2.53125 -0.578125 C 2.613281 -0.691406 2.675781 -0.828125 2.71875 -0.984375 C 2.769531 -1.148438 2.796875 -1.328125 2.796875 -1.515625 C 2.796875 -1.703125 2.769531 -1.875 2.71875 -2.03125 C 2.675781 -2.1875 2.613281 -2.320312 2.53125 -2.4375 C 2.445312 -2.550781 2.347656 -2.640625 2.234375 -2.703125 C 2.117188 -2.765625 1.988281 -2.796875 1.84375 -2.796875 Z M 1.84375 -2.796875 "/></g></g></g><g fill="#000000" fill-opacity="1"><g transform="translate(179.388465, 66.30388)"><g><path d="M 1.25 -0.90625 C 1.25 -0.75 1.253906 -0.625 1.265625 -0.53125 C 1.273438 -0.4375 1.296875 -0.363281 1.328125 -0.3125 C 1.359375 -0.269531 1.398438 -0.238281 1.453125 -0.21875 C 1.515625 -0.207031 1.601562 -0.203125 1.71875 -0.203125 L 1.71875 0 L 0.203125 0 L 0.203125 -0.203125 C 0.316406 -0.203125 0.40625 -0.207031 0.46875 -0.21875 C 0.53125 -0.238281 0.578125 -0.269531 0.609375 -0.3125 C 0.648438 -0.363281 0.675781 -0.429688 0.6875 -0.515625 C 0.695312 -0.597656 0.703125 -0.710938 0.703125 -0.859375 L 0.703125 -1.59375 C 0.703125 -1.800781 0.695312 -1.976562 0.6875 -2.125 C 0.6875 -2.269531 0.675781 -2.367188 0.65625 -2.421875 C 0.644531 -2.472656 0.628906 -2.507812 0.609375 -2.53125 C 0.597656 -2.5625 0.578125 -2.582031 0.546875 -2.59375 C 0.515625 -2.613281 0.46875 -2.628906 0.40625 -2.640625 C 0.351562 -2.648438 0.285156 -2.65625 0.203125 -2.65625 L 0.203125 -2.84375 L 1.125 -3.0625 L 1.203125 -2.5 L 1.21875 -2.5 C 1.394531 -2.6875 1.578125 -2.828125 1.765625 -2.921875 C 1.953125 -3.015625 2.15625 -3.0625 2.375 -3.0625 C 2.613281 -3.0625 2.816406 -3.015625 2.984375 -2.921875 C 3.148438 -2.828125 3.265625 -2.6875 3.328125 -2.5 L 3.34375 -2.5 C 3.488281 -2.675781 3.660156 -2.8125 3.859375 -2.90625 C 4.054688 -3.007812 4.269531 -3.0625 4.5 -3.0625 C 4.675781 -3.0625 4.835938 -3.03125 4.984375 -2.96875 C 5.128906 -2.914062 5.238281 -2.835938 5.3125 -2.734375 C 5.382812 -2.648438 5.429688 -2.535156 5.453125 -2.390625 C 5.484375 -2.242188 5.5 -2.050781 5.5 -1.8125 L 5.5 -0.90625 C 5.5 -0.75 5.503906 -0.625 5.515625 -0.53125 C 5.523438 -0.445312 5.546875 -0.378906 5.578125 -0.328125 C 5.609375 -0.273438 5.65625 -0.238281 5.71875 -0.21875 C 5.78125 -0.207031 5.863281 -0.203125 5.96875 -0.203125 L 5.96875 0 L 4.46875 0 L 4.46875 -0.203125 C 4.570312 -0.203125 4.65625 -0.207031 4.71875 -0.21875 C 4.78125 -0.238281 4.828125 -0.269531 4.859375 -0.3125 C 4.898438 -0.363281 4.925781 -0.429688 4.9375 -0.515625 C 4.945312 -0.597656 4.953125 -0.710938 4.953125 -0.859375 L 4.953125 -1.578125 C 4.953125 -1.796875 4.9375 -1.976562 4.90625 -2.125 C 4.882812 -2.269531 4.847656 -2.390625 4.796875 -2.484375 C 4.742188 -2.578125 4.675781 -2.644531 4.59375 -2.6875 C 4.507812 -2.726562 4.40625 -2.75 4.28125 -2.75 C 4.113281 -2.75 3.957031 -2.703125 3.8125 -2.609375 C 3.664062 -2.515625 3.550781 -2.390625 3.46875 -2.234375 C 3.445312 -2.203125 3.429688 -2.164062 3.421875 -2.125 C 3.410156 -2.09375 3.398438 -2.054688 3.390625 -2.015625 C 3.378906 -1.972656 3.375 -1.921875 3.375 -1.859375 C 3.375 -1.796875 3.375 -1.71875 3.375 -1.625 L 3.375 -0.90625 C 3.375 -0.75 3.375 -0.625 3.375 -0.53125 C 3.382812 -0.445312 3.40625 -0.378906 3.4375 -0.328125 C 3.476562 -0.273438 3.53125 -0.238281 3.59375 -0.21875 C 3.65625 -0.207031 3.738281 -0.203125 3.84375 -0.203125 L 3.84375 0 L 2.34375 0 L 2.34375 -0.203125 C 2.445312 -0.203125 2.53125 -0.207031 2.59375 -0.21875 C 2.65625 -0.238281 2.703125 -0.269531 2.734375 -0.3125 C 2.773438 -0.363281 2.796875 -0.429688 2.796875 -0.515625 C 2.804688 -0.597656 2.8125 -0.710938 2.8125 -0.859375 L 2.8125 -1.578125 C 2.8125 -1.796875 2.800781 -1.976562 2.78125 -2.125 C 2.757812 -2.28125 2.722656 -2.398438 2.671875 -2.484375 C 2.617188 -2.578125 2.550781 -2.644531 2.46875 -2.6875 C 2.382812 -2.726562 2.285156 -2.75 2.171875 -2.75 C 1.992188 -2.75 1.832031 -2.703125 1.6875 -2.609375 C 1.539062 -2.515625 1.425781 -2.390625 1.34375 -2.234375 C 1.332031 -2.203125 1.316406 -2.164062 1.296875 -2.125 C 1.285156 -2.09375 1.273438 -2.054688 1.265625 -2.015625 C 1.265625 -1.972656 1.257812 -1.921875 1.25 -1.859375 C 1.25 -1.796875 1.25 -1.71875 1.25 -1.625 Z M 1.25 -0.90625 "/></g></g></g><g fill="#000000" fill-opacity="1"><g transform="translate(185.461833, 66.30388)"><g><path d="M 1.1875 -2.59375 L 1.21875 -2.59375 C 1.332031 -2.738281 1.457031 -2.851562 1.59375 -2.9375 C 1.738281 -3.019531 1.90625 -3.0625 2.09375 -3.0625 C 2.3125 -3.0625 2.507812 -3.019531 2.6875 -2.9375 C 2.863281 -2.863281 3.019531 -2.753906 3.15625 -2.609375 C 3.289062 -2.472656 3.394531 -2.3125 3.46875 -2.125 C 3.539062 -1.9375 3.578125 -1.726562 3.578125 -1.5 C 3.578125 -1.269531 3.535156 -1.054688 3.453125 -0.859375 C 3.378906 -0.671875 3.273438 -0.507812 3.140625 -0.375 C 3.015625 -0.238281 2.859375 -0.128906 2.671875 -0.046875 C 2.492188 0.0234375 2.300781 0.0625 2.09375 0.0625 C 1.914062 0.0625 1.753906 0.03125 1.609375 -0.03125 C 1.472656 -0.09375 1.34375 -0.1875 1.21875 -0.3125 L 1.21875 0.515625 C 1.21875 0.660156 1.222656 0.78125 1.234375 0.875 C 1.253906 0.96875 1.285156 1.035156 1.328125 1.078125 C 1.367188 1.128906 1.429688 1.164062 1.515625 1.1875 C 1.609375 1.207031 1.722656 1.21875 1.859375 1.21875 L 1.859375 1.421875 L 0.109375 1.421875 L 0.109375 1.21875 C 0.222656 1.21875 0.316406 1.207031 0.390625 1.1875 C 0.460938 1.164062 0.515625 1.128906 0.546875 1.078125 C 0.585938 1.035156 0.613281 0.96875 0.625 0.875 C 0.644531 0.789062 0.65625 0.679688 0.65625 0.546875 L 0.65625 -1.578125 C 0.65625 -1.796875 0.648438 -1.972656 0.640625 -2.109375 C 0.640625 -2.242188 0.632812 -2.34375 0.625 -2.40625 C 0.601562 -2.488281 0.554688 -2.546875 0.484375 -2.578125 C 0.421875 -2.609375 0.296875 -2.625 0.109375 -2.625 L 0.109375 -2.828125 L 1.1875 -3.046875 Z M 1.359375 -2.4375 C 1.304688 -2.351562 1.269531 -2.257812 1.25 -2.15625 C 1.226562 -2.0625 1.21875 -1.929688 1.21875 -1.765625 L 1.21875 -1.3125 C 1.21875 -1.207031 1.21875 -1.117188 1.21875 -1.046875 C 1.226562 -0.972656 1.238281 -0.910156 1.25 -0.859375 C 1.257812 -0.804688 1.273438 -0.757812 1.296875 -0.71875 C 1.316406 -0.675781 1.335938 -0.632812 1.359375 -0.59375 C 1.453125 -0.476562 1.554688 -0.382812 1.671875 -0.3125 C 1.796875 -0.25 1.925781 -0.21875 2.0625 -0.21875 C 2.320312 -0.21875 2.53125 -0.328125 2.6875 -0.546875 C 2.851562 -0.765625 2.9375 -1.070312 2.9375 -1.46875 C 2.9375 -1.664062 2.910156 -1.84375 2.859375 -2 C 2.816406 -2.164062 2.753906 -2.304688 2.671875 -2.421875 C 2.597656 -2.535156 2.503906 -2.625 2.390625 -2.6875 C 2.285156 -2.757812 2.164062 -2.796875 2.03125 -2.796875 C 1.894531 -2.796875 1.765625 -2.765625 1.640625 -2.703125 C 1.523438 -2.640625 1.429688 -2.550781 1.359375 -2.4375 Z M 1.359375 -2.4375 "/></g></g></g><g fill="#000000" fill-opacity="1"><g transform="translate(189.305091, 66.30388)"><g><path d="M 1.1875 -0.890625 C 1.1875 -0.742188 1.191406 -0.625 1.203125 -0.53125 C 1.210938 -0.445312 1.234375 -0.378906 1.265625 -0.328125 C 1.304688 -0.285156 1.359375 -0.253906 1.421875 -0.234375 C 1.492188 -0.210938 1.582031 -0.203125 1.6875 -0.203125 L 1.6875 0 L 0.125 0 L 0.125 -0.203125 C 0.238281 -0.203125 0.328125 -0.210938 0.390625 -0.234375 C 0.460938 -0.253906 0.519531 -0.285156 0.5625 -0.328125 C 0.601562 -0.378906 0.628906 -0.441406 0.640625 -0.515625 C 0.648438 -0.597656 0.65625 -0.707031 0.65625 -0.84375 L 0.65625 -3.296875 C 0.65625 -3.492188 0.648438 -3.660156 0.640625 -3.796875 C 0.640625 -3.941406 0.632812 -4.035156 0.625 -4.078125 C 0.601562 -4.171875 0.554688 -4.234375 0.484375 -4.265625 C 0.421875 -4.296875 0.296875 -4.3125 0.109375 -4.3125 L 0.109375 -4.5 L 1.1875 -4.703125 Z M 1.1875 -0.890625 "/></g></g></g><g fill="#000000" fill-opacity="1"><g transform="translate(191.144648, 66.30388)"><g><path d="M 2.953125 -0.53125 C 2.640625 -0.132812 2.242188 0.0625 1.765625 0.0625 C 1.535156 0.0625 1.332031 0.0234375 1.15625 -0.046875 C 0.976562 -0.128906 0.820312 -0.234375 0.6875 -0.359375 C 0.5625 -0.492188 0.460938 -0.65625 0.390625 -0.84375 C 0.316406 -1.03125 0.28125 -1.238281 0.28125 -1.46875 C 0.28125 -1.695312 0.316406 -1.910156 0.390625 -2.109375 C 0.460938 -2.304688 0.566406 -2.472656 0.703125 -2.609375 C 0.847656 -2.753906 1.015625 -2.863281 1.203125 -2.9375 C 1.390625 -3.019531 1.597656 -3.0625 1.828125 -3.0625 C 2.191406 -3.0625 2.472656 -2.960938 2.671875 -2.765625 C 2.878906 -2.566406 2.984375 -2.28125 2.984375 -1.90625 C 2.984375 -1.851562 2.972656 -1.820312 2.953125 -1.8125 C 2.929688 -1.800781 2.882812 -1.796875 2.8125 -1.796875 L 0.9375 -1.796875 C 0.9375 -1.765625 0.929688 -1.726562 0.921875 -1.6875 C 0.921875 -1.644531 0.921875 -1.597656 0.921875 -1.546875 C 0.921875 -1.347656 0.941406 -1.164062 0.984375 -1 C 1.035156 -0.84375 1.101562 -0.707031 1.1875 -0.59375 C 1.28125 -0.476562 1.390625 -0.390625 1.515625 -0.328125 C 1.640625 -0.265625 1.773438 -0.234375 1.921875 -0.234375 C 2.078125 -0.234375 2.222656 -0.269531 2.359375 -0.34375 C 2.492188 -0.414062 2.632812 -0.53125 2.78125 -0.6875 Z M 2.03125 -2.0625 C 2.101562 -2.0625 2.160156 -2.0625 2.203125 -2.0625 C 2.253906 -2.0625 2.289062 -2.066406 2.3125 -2.078125 C 2.332031 -2.097656 2.34375 -2.117188 2.34375 -2.140625 C 2.351562 -2.160156 2.359375 -2.1875 2.359375 -2.21875 C 2.359375 -2.394531 2.300781 -2.535156 2.1875 -2.640625 C 2.082031 -2.742188 1.929688 -2.796875 1.734375 -2.796875 C 1.328125 -2.796875 1.078125 -2.550781 0.984375 -2.0625 Z M 2.03125 -2.0625 "/></g></g></g><g fill="#000000" fill-opacity="1"><g transform="translate(194.387927, 66.30388)"><g><path d="M 0.234375 -2.65625 L 0.234375 -2.859375 C 0.429688 -2.972656 0.585938 -3.085938 0.703125 -3.203125 C 0.816406 -3.328125 0.898438 -3.46875 0.953125 -3.625 L 1.125 -3.625 L 1.125 -2.921875 L 1.890625 -2.921875 L 1.890625 -2.65625 L 1.125 -2.65625 L 1.125 -0.921875 C 1.125 -0.785156 1.128906 -0.671875 1.140625 -0.578125 C 1.148438 -0.492188 1.171875 -0.425781 1.203125 -0.375 C 1.234375 -0.320312 1.273438 -0.28125 1.328125 -0.25 C 1.378906 -0.226562 1.441406 -0.21875 1.515625 -0.21875 C 1.609375 -0.21875 1.6875 -0.238281 1.75 -0.28125 C 1.820312 -0.320312 1.890625 -0.390625 1.953125 -0.484375 L 2.09375 -0.375 C 2.039062 -0.238281 1.945312 -0.128906 1.8125 -0.046875 C 1.6875 0.0234375 1.523438 0.0625 1.328125 0.0625 C 1.078125 0.0625 0.882812 0.00390625 0.75 -0.109375 C 0.625 -0.234375 0.5625 -0.410156 0.5625 -0.640625 L 0.5625 -2.65625 Z M 0.234375 -2.65625 "/></g></g></g><g fill="#000000" fill-opacity="1"><g transform="translate(196.527468, 66.30388)"><g><path d="M 2.953125 -0.53125 C 2.640625 -0.132812 2.242188 0.0625 1.765625 0.0625 C 1.535156 0.0625 1.332031 0.0234375 1.15625 -0.046875 C 0.976562 -0.128906 0.820312 -0.234375 0.6875 -0.359375 C 0.5625 -0.492188 0.460938 -0.65625 0.390625 -0.84375 C 0.316406 -1.03125 0.28125 -1.238281 0.28125 -1.46875 C 0.28125 -1.695312 0.316406 -1.910156 0.390625 -2.109375 C 0.460938 -2.304688 0.566406 -2.472656 0.703125 -2.609375 C 0.847656 -2.753906 1.015625 -2.863281 1.203125 -2.9375 C 1.390625 -3.019531 1.597656 -3.0625 1.828125 -3.0625 C 2.191406 -3.0625 2.472656 -2.960938 2.671875 -2.765625 C 2.878906 -2.566406 2.984375 -2.28125 2.984375 -1.90625 C 2.984375 -1.851562 2.972656 -1.820312 2.953125 -1.8125 C 2.929688 -1.800781 2.882812 -1.796875 2.8125 -1.796875 L 0.9375 -1.796875 C 0.9375 -1.765625 0.929688 -1.726562 0.921875 -1.6875 C 0.921875 -1.644531 0.921875 -1.597656 0.921875 -1.546875 C 0.921875 -1.347656 0.941406 -1.164062 0.984375 -1 C 1.035156 -0.84375 1.101562 -0.707031 1.1875 -0.59375 C 1.28125 -0.476562 1.390625 -0.390625 1.515625 -0.328125 C 1.640625 -0.265625 1.773438 -0.234375 1.921875 -0.234375 C 2.078125 -0.234375 2.222656 -0.269531 2.359375 -0.34375 C 2.492188 -0.414062 2.632812 -0.53125 2.78125 -0.6875 Z M 2.03125 -2.0625 C 2.101562 -2.0625 2.160156 -2.0625 2.203125 -2.0625 C 2.253906 -2.0625 2.289062 -2.066406 2.3125 -2.078125 C 2.332031 -2.097656 2.34375 -2.117188 2.34375 -2.140625 C 2.351562 -2.160156 2.359375 -2.1875 2.359375 -2.21875 C 2.359375 -2.394531 2.300781 -2.535156 2.1875 -2.640625 C 2.082031 -2.742188 1.929688 -2.796875 1.734375 -2.796875 C 1.328125 -2.796875 1.078125 -2.550781 0.984375 -2.0625 Z M 2.03125 -2.0625 "/></g></g></g><g fill="#000000" fill-opacity="1"><g transform="translate(199.770746, 66.30388)"><g><path d="M 2.75 -0.46875 L 2.71875 -0.46875 C 2.582031 -0.28125 2.4375 -0.144531 2.28125 -0.0625 C 2.132812 0.0195312 1.957031 0.0625 1.75 0.0625 C 1.53125 0.0625 1.332031 0.0234375 1.15625 -0.046875 C 0.976562 -0.128906 0.820312 -0.238281 0.6875 -0.375 C 0.5625 -0.519531 0.457031 -0.6875 0.375 -0.875 C 0.300781 -1.070312 0.265625 -1.285156 0.265625 -1.515625 C 0.265625 -1.734375 0.300781 -1.9375 0.375 -2.125 C 0.457031 -2.320312 0.5625 -2.488281 0.6875 -2.625 C 0.820312 -2.757812 0.976562 -2.863281 1.15625 -2.9375 C 1.332031 -3.019531 1.53125 -3.0625 1.75 -3.0625 C 1.925781 -3.0625 2.082031 -3.03125 2.21875 -2.96875 C 2.363281 -2.90625 2.503906 -2.8125 2.640625 -2.6875 L 2.640625 -3.265625 C 2.640625 -3.472656 2.632812 -3.648438 2.625 -3.796875 C 2.625 -3.941406 2.617188 -4.039062 2.609375 -4.09375 C 2.585938 -4.175781 2.53125 -4.234375 2.4375 -4.265625 C 2.351562 -4.304688 2.21875 -4.328125 2.03125 -4.328125 L 2.03125 -4.5 L 3.1875 -4.703125 L 3.1875 -1.4375 C 3.1875 -1.175781 3.1875 -0.957031 3.1875 -0.78125 C 3.195312 -0.613281 3.210938 -0.5 3.234375 -0.4375 C 3.242188 -0.382812 3.253906 -0.34375 3.265625 -0.3125 C 3.285156 -0.28125 3.3125 -0.253906 3.34375 -0.234375 C 3.375 -0.222656 3.414062 -0.210938 3.46875 -0.203125 C 3.53125 -0.203125 3.601562 -0.203125 3.6875 -0.203125 L 3.6875 0 L 2.75 0.0625 Z M 2.625 -1.734375 C 2.625 -1.929688 2.613281 -2.078125 2.59375 -2.171875 C 2.570312 -2.273438 2.535156 -2.363281 2.484375 -2.4375 C 2.390625 -2.550781 2.273438 -2.640625 2.140625 -2.703125 C 2.015625 -2.765625 1.882812 -2.796875 1.75 -2.796875 C 1.476562 -2.796875 1.269531 -2.679688 1.125 -2.453125 C 0.976562 -2.222656 0.90625 -1.914062 0.90625 -1.53125 C 0.90625 -1.332031 0.921875 -1.148438 0.953125 -0.984375 C 0.992188 -0.828125 1.050781 -0.691406 1.125 -0.578125 C 1.195312 -0.460938 1.285156 -0.375 1.390625 -0.3125 C 1.492188 -0.25 1.613281 -0.21875 1.75 -0.21875 C 1.8125 -0.21875 1.878906 -0.222656 1.953125 -0.234375 C 2.023438 -0.253906 2.09375 -0.28125 2.15625 -0.3125 C 2.21875 -0.34375 2.273438 -0.378906 2.328125 -0.421875 C 2.390625 -0.460938 2.441406 -0.515625 2.484375 -0.578125 C 2.535156 -0.660156 2.570312 -0.757812 2.59375 -0.875 C 2.613281 -0.988281 2.625 -1.148438 2.625 -1.359375 Z M 2.625 -1.734375 "/></g></g></g><g fill="#000000" fill-opacity="1"><g transform="translate(203.591368, 66.30388)"><g/></g></g><g fill="#000000" fill-opacity="1"><g transform="translate(205.215834, 66.30388)"><g><path d="M 4.453125 -3.28125 L 4.21875 -3.28125 C 4.207031 -3.445312 4.179688 -3.582031 4.140625 -3.6875 C 4.097656 -3.800781 4.035156 -3.890625 3.953125 -3.953125 C 3.878906 -4.015625 3.785156 -4.054688 3.671875 -4.078125 C 3.554688 -4.109375 3.414062 -4.125 3.25 -4.125 C 3.113281 -4.125 3.003906 -4.117188 2.921875 -4.109375 C 2.835938 -4.109375 2.769531 -4.097656 2.71875 -4.078125 C 2.675781 -4.066406 2.644531 -4.050781 2.625 -4.03125 C 2.613281 -4.007812 2.609375 -3.984375 2.609375 -3.953125 L 2.609375 -0.90625 C 2.609375 -0.789062 2.617188 -0.6875 2.640625 -0.59375 C 2.660156 -0.507812 2.691406 -0.441406 2.734375 -0.390625 C 2.785156 -0.335938 2.859375 -0.296875 2.953125 -0.265625 C 3.054688 -0.234375 3.1875 -0.21875 3.34375 -0.21875 L 3.34375 0 L 1.203125 0 L 1.203125 -0.21875 C 1.359375 -0.21875 1.484375 -0.234375 1.578125 -0.265625 C 1.679688 -0.296875 1.757812 -0.335938 1.8125 -0.390625 C 1.863281 -0.441406 1.894531 -0.507812 1.90625 -0.59375 C 1.925781 -0.6875 1.9375 -0.789062 1.9375 -0.90625 L 1.9375 -3.953125 C 1.9375 -3.984375 1.929688 -4.007812 1.921875 -4.03125 C 1.910156 -4.050781 1.882812 -4.066406 1.84375 -4.078125 C 1.800781 -4.097656 1.742188 -4.109375 1.671875 -4.109375 C 1.597656 -4.117188 1.503906 -4.125 1.390625 -4.125 C 1.234375 -4.125 1.09375 -4.117188 0.96875 -4.109375 C 0.84375 -4.097656 0.734375 -4.0625 0.640625 -4 C 0.546875 -3.945312 0.46875 -3.863281 0.40625 -3.75 C 0.351562 -3.632812 0.328125 -3.476562 0.328125 -3.28125 L 0.125 -3.28125 L 0.125 -4.375 L 4.40625 -4.375 Z M 4.453125 -3.28125 "/></g></g></g><g fill="#000000" fill-opacity="1"><g transform="translate(209.760957, 66.30388)"><g><path d="M 1.984375 -1.671875 C 1.765625 -1.585938 1.578125 -1.503906 1.421875 -1.421875 C 1.273438 -1.347656 1.15625 -1.269531 1.0625 -1.1875 C 0.976562 -1.113281 0.914062 -1.035156 0.875 -0.953125 C 0.832031 -0.878906 0.8125 -0.800781 0.8125 -0.71875 C 0.8125 -0.59375 0.851562 -0.488281 0.9375 -0.40625 C 1.019531 -0.332031 1.128906 -0.296875 1.265625 -0.296875 C 1.367188 -0.296875 1.460938 -0.316406 1.546875 -0.359375 C 1.628906 -0.410156 1.703125 -0.476562 1.765625 -0.5625 C 1.828125 -0.644531 1.878906 -0.742188 1.921875 -0.859375 C 1.960938 -0.972656 1.984375 -1.097656 1.984375 -1.234375 Z M 1.984375 -1.921875 L 1.984375 -2.15625 C 1.984375 -2.613281 1.785156 -2.84375 1.390625 -2.84375 C 1.328125 -2.84375 1.269531 -2.835938 1.21875 -2.828125 C 1.175781 -2.816406 1.140625 -2.796875 1.109375 -2.765625 C 1.078125 -2.742188 1.050781 -2.707031 1.03125 -2.65625 C 1.007812 -2.613281 0.984375 -2.554688 0.953125 -2.484375 C 0.910156 -2.367188 0.867188 -2.289062 0.828125 -2.25 C 0.796875 -2.21875 0.738281 -2.203125 0.65625 -2.203125 C 0.46875 -2.203125 0.375 -2.296875 0.375 -2.484375 C 0.375 -2.671875 0.46875 -2.8125 0.65625 -2.90625 C 0.851562 -3.007812 1.128906 -3.0625 1.484375 -3.0625 C 1.867188 -3.0625 2.140625 -2.992188 2.296875 -2.859375 C 2.453125 -2.722656 2.53125 -2.492188 2.53125 -2.171875 L 2.53125 -0.90625 C 2.53125 -0.476562 2.617188 -0.265625 2.796875 -0.265625 C 2.847656 -0.265625 2.894531 -0.269531 2.9375 -0.28125 C 2.988281 -0.289062 3.03125 -0.328125 3.0625 -0.390625 L 3.140625 -0.25 C 3.097656 -0.164062 3.015625 -0.09375 2.890625 -0.03125 C 2.773438 0.03125 2.648438 0.0625 2.515625 0.0625 C 2.347656 0.0625 2.222656 0.0078125 2.140625 -0.09375 C 2.066406 -0.207031 2.03125 -0.359375 2.03125 -0.546875 L 2 -0.546875 C 1.894531 -0.359375 1.753906 -0.210938 1.578125 -0.109375 C 1.410156 -0.00390625 1.222656 0.046875 1.015625 0.046875 C 0.773438 0.046875 0.585938 -0.0078125 0.453125 -0.125 C 0.316406 -0.25 0.25 -0.414062 0.25 -0.625 C 0.25 -0.707031 0.265625 -0.789062 0.296875 -0.875 C 0.328125 -0.957031 0.378906 -1.035156 0.453125 -1.109375 C 0.523438 -1.191406 0.617188 -1.269531 0.734375 -1.34375 C 0.847656 -1.414062 0.988281 -1.488281 1.15625 -1.5625 Z M 1.984375 -1.921875 "/></g></g></g><g fill="#000000" fill-opacity="1"><g transform="translate(212.896696, 66.30388)"><g><path d="M 0.484375 0 L 0.359375 0 L 0.359375 -0.96875 L 0.5 -0.96875 C 0.644531 -0.4375 0.914062 -0.171875 1.3125 -0.171875 C 1.457031 -0.171875 1.570312 -0.207031 1.65625 -0.28125 C 1.75 -0.351562 1.796875 -0.46875 1.796875 -0.625 C 1.796875 -0.675781 1.785156 -0.722656 1.765625 -0.765625 C 1.753906 -0.804688 1.722656 -0.847656 1.671875 -0.890625 C 1.628906 -0.929688 1.566406 -0.976562 1.484375 -1.03125 C 1.398438 -1.09375 1.285156 -1.171875 1.140625 -1.265625 C 1.015625 -1.335938 0.90625 -1.40625 0.8125 -1.46875 C 0.71875 -1.539062 0.632812 -1.613281 0.5625 -1.6875 C 0.5 -1.757812 0.453125 -1.832031 0.421875 -1.90625 C 0.390625 -1.988281 0.375 -2.082031 0.375 -2.1875 C 0.375 -2.3125 0.394531 -2.425781 0.4375 -2.53125 C 0.488281 -2.644531 0.550781 -2.738281 0.625 -2.8125 C 0.695312 -2.894531 0.785156 -2.957031 0.890625 -3 C 0.992188 -3.039062 1.101562 -3.0625 1.21875 -3.0625 C 1.320312 -3.0625 1.425781 -3.046875 1.53125 -3.015625 C 1.644531 -2.984375 1.742188 -2.941406 1.828125 -2.890625 L 1.953125 -3 L 2.046875 -3 L 2.046875 -2.1875 L 1.90625 -2.1875 C 1.820312 -2.414062 1.726562 -2.578125 1.625 -2.671875 C 1.53125 -2.773438 1.410156 -2.828125 1.265625 -2.828125 C 1.140625 -2.828125 1.035156 -2.789062 0.953125 -2.71875 C 0.878906 -2.65625 0.84375 -2.5625 0.84375 -2.4375 C 0.84375 -2.375 0.851562 -2.316406 0.875 -2.265625 C 0.894531 -2.222656 0.925781 -2.175781 0.96875 -2.125 C 1.019531 -2.082031 1.078125 -2.035156 1.140625 -1.984375 C 1.210938 -1.941406 1.300781 -1.894531 1.40625 -1.84375 C 1.5625 -1.738281 1.695312 -1.644531 1.8125 -1.5625 C 1.925781 -1.488281 2.019531 -1.410156 2.09375 -1.328125 C 2.164062 -1.253906 2.21875 -1.175781 2.25 -1.09375 C 2.289062 -1.007812 2.3125 -0.914062 2.3125 -0.8125 C 2.3125 -0.539062 2.222656 -0.328125 2.046875 -0.171875 C 1.867188 -0.015625 1.640625 0.0625 1.359375 0.0625 C 1.066406 0.0625 0.8125 -0.0234375 0.59375 -0.203125 Z M 0.484375 0 "/></g></g></g><g fill="#000000" fill-opacity="1"><g transform="translate(215.46642, 66.30388)"><g><path d="M 1.96875 -0.203125 C 2.09375 -0.203125 2.175781 -0.207031 2.21875 -0.21875 C 2.269531 -0.226562 2.296875 -0.242188 2.296875 -0.265625 C 2.296875 -0.296875 2.265625 -0.347656 2.203125 -0.421875 C 2.148438 -0.503906 2.078125 -0.597656 1.984375 -0.703125 L 1.390625 -1.4375 L 1.1875 -1.234375 L 1.1875 -0.90625 C 1.1875 -0.757812 1.191406 -0.640625 1.203125 -0.546875 C 1.210938 -0.453125 1.234375 -0.378906 1.265625 -0.328125 C 1.304688 -0.285156 1.359375 -0.253906 1.421875 -0.234375 C 1.492188 -0.210938 1.585938 -0.203125 1.703125 -0.203125 L 1.703125 0 L 0.09375 0 L 0.09375 -0.203125 C 0.207031 -0.203125 0.296875 -0.210938 0.359375 -0.234375 C 0.429688 -0.253906 0.488281 -0.285156 0.53125 -0.328125 C 0.570312 -0.378906 0.597656 -0.445312 0.609375 -0.53125 C 0.628906 -0.613281 0.640625 -0.722656 0.640625 -0.859375 L 0.640625 -3.234375 C 0.640625 -3.523438 0.632812 -3.742188 0.625 -3.890625 C 0.625 -4.035156 0.609375 -4.132812 0.578125 -4.1875 C 0.535156 -4.238281 0.472656 -4.269531 0.390625 -4.28125 C 0.316406 -4.289062 0.210938 -4.296875 0.078125 -4.296875 L 0.078125 -4.5 L 1.1875 -4.703125 L 1.1875 -1.59375 L 1.703125 -2.109375 C 1.878906 -2.273438 2.007812 -2.398438 2.09375 -2.484375 C 2.175781 -2.566406 2.21875 -2.628906 2.21875 -2.671875 C 2.21875 -2.710938 2.175781 -2.742188 2.09375 -2.765625 C 2.007812 -2.796875 1.894531 -2.8125 1.75 -2.8125 L 1.75 -3 L 3.234375 -3 L 3.234375 -2.8125 C 3.160156 -2.8125 3.09375 -2.804688 3.03125 -2.796875 C 2.976562 -2.785156 2.925781 -2.769531 2.875 -2.75 C 2.832031 -2.726562 2.785156 -2.695312 2.734375 -2.65625 C 2.679688 -2.613281 2.625 -2.5625 2.5625 -2.5 L 1.734375 -1.78125 L 2.859375 -0.515625 C 2.910156 -0.441406 2.957031 -0.382812 3 -0.34375 C 3.050781 -0.3125 3.097656 -0.285156 3.140625 -0.265625 C 3.179688 -0.242188 3.226562 -0.226562 3.28125 -0.21875 C 3.332031 -0.207031 3.394531 -0.203125 3.46875 -0.203125 L 3.46875 0 L 1.96875 0 Z M 1.96875 -0.203125 "/></g></g></g><g fill="#000000" fill-opacity="1"><g transform="translate(218.953092, 66.30388)"><g><path d="M 0.484375 0 L 0.359375 0 L 0.359375 -0.96875 L 0.5 -0.96875 C 0.644531 -0.4375 0.914062 -0.171875 1.3125 -0.171875 C 1.457031 -0.171875 1.570312 -0.207031 1.65625 -0.28125 C 1.75 -0.351562 1.796875 -0.46875 1.796875 -0.625 C 1.796875 -0.675781 1.785156 -0.722656 1.765625 -0.765625 C 1.753906 -0.804688 1.722656 -0.847656 1.671875 -0.890625 C 1.628906 -0.929688 1.566406 -0.976562 1.484375 -1.03125 C 1.398438 -1.09375 1.285156 -1.171875 1.140625 -1.265625 C 1.015625 -1.335938 0.90625 -1.40625 0.8125 -1.46875 C 0.71875 -1.539062 0.632812 -1.613281 0.5625 -1.6875 C 0.5 -1.757812 0.453125 -1.832031 0.421875 -1.90625 C 0.390625 -1.988281 0.375 -2.082031 0.375 -2.1875 C 0.375 -2.3125 0.394531 -2.425781 0.4375 -2.53125 C 0.488281 -2.644531 0.550781 -2.738281 0.625 -2.8125 C 0.695312 -2.894531 0.785156 -2.957031 0.890625 -3 C 0.992188 -3.039062 1.101562 -3.0625 1.21875 -3.0625 C 1.320312 -3.0625 1.425781 -3.046875 1.53125 -3.015625 C 1.644531 -2.984375 1.742188 -2.941406 1.828125 -2.890625 L 1.953125 -3 L 2.046875 -3 L 2.046875 -2.1875 L 1.90625 -2.1875 C 1.820312 -2.414062 1.726562 -2.578125 1.625 -2.671875 C 1.53125 -2.773438 1.410156 -2.828125 1.265625 -2.828125 C 1.140625 -2.828125 1.035156 -2.789062 0.953125 -2.71875 C 0.878906 -2.65625 0.84375 -2.5625 0.84375 -2.4375 C 0.84375 -2.375 0.851562 -2.316406 0.875 -2.265625 C 0.894531 -2.222656 0.925781 -2.175781 0.96875 -2.125 C 1.019531 -2.082031 1.078125 -2.035156 1.140625 -1.984375 C 1.210938 -1.941406 1.300781 -1.894531 1.40625 -1.84375 C 1.5625 -1.738281 1.695312 -1.644531 1.8125 -1.5625 C 1.925781 -1.488281 2.019531 -1.410156 2.09375 -1.328125 C 2.164062 -1.253906 2.21875 -1.175781 2.25 -1.09375 C 2.289062 -1.007812 2.3125 -0.914062 2.3125 -0.8125 C 2.3125 -0.539062 2.222656 -0.328125 2.046875 -0.171875 C 1.867188 -0.015625 1.640625 0.0625 1.359375 0.0625 C 1.066406 0.0625 0.8125 -0.0234375 0.59375 -0.203125 Z M 0.484375 0 "/></g></g></g><g clip-path="url(#ec891fbbc4)"><g clip-path="url(#89aa7a4759)"><path fill="#2ed1c1" d="M 1.707031 15 L 373.382812 15 L 373.382812 90.515625 L 1.707031 90.515625 Z M 1.707031 15 " fill-opacity="1" fill-rule="nonzero"/></g></g><g fill="#000000" fill-opacity="1"><g transform="translate(33.81683, 60.749998)"><g><path d="M 9.75 -3.828125 C 9.75 -4.296875 9.644531 -4.691406 9.4375 -5.015625 C 9.226562 -5.335938 8.957031 -5.609375 8.625 -5.828125 C 8.289062 -6.046875 7.921875 -6.226562 7.515625 -6.375 C 7.117188 -6.519531 6.738281 -6.648438 6.375 -6.765625 C 5.832031 -6.941406 5.285156 -7.148438 4.734375 -7.390625 C 4.179688 -7.628906 3.675781 -7.925781 3.21875 -8.28125 C 2.769531 -8.632812 2.398438 -9.050781 2.109375 -9.53125 C 1.816406 -10.019531 1.671875 -10.59375 1.671875 -11.25 C 1.671875 -11.894531 1.816406 -12.472656 2.109375 -12.984375 C 2.398438 -13.503906 2.773438 -13.941406 3.234375 -14.296875 C 3.703125 -14.648438 4.234375 -14.914062 4.828125 -15.09375 C 5.421875 -15.28125 6.015625 -15.375 6.609375 -15.375 C 7.265625 -15.375 7.898438 -15.265625 8.515625 -15.046875 C 9.128906 -14.828125 9.671875 -14.519531 10.140625 -14.125 C 10.609375 -13.726562 10.984375 -13.25 11.265625 -12.6875 C 11.554688 -12.125 11.707031 -11.5 11.71875 -10.8125 L 9.75 -10.8125 C 9.6875 -11.25 9.578125 -11.644531 9.421875 -12 C 9.265625 -12.351562 9.050781 -12.660156 8.78125 -12.921875 C 8.519531 -13.179688 8.207031 -13.378906 7.84375 -13.515625 C 7.476562 -13.660156 7.066406 -13.734375 6.609375 -13.734375 C 6.242188 -13.734375 5.882812 -13.679688 5.53125 -13.578125 C 5.175781 -13.472656 4.859375 -13.316406 4.578125 -13.109375 C 4.304688 -12.898438 4.085938 -12.640625 3.921875 -12.328125 C 3.765625 -12.023438 3.6875 -11.675781 3.6875 -11.28125 C 3.695312 -10.84375 3.804688 -10.472656 4.015625 -10.171875 C 4.234375 -9.867188 4.507812 -9.613281 4.84375 -9.40625 C 5.175781 -9.195312 5.535156 -9.019531 5.921875 -8.875 C 6.304688 -8.738281 6.664062 -8.617188 7 -8.515625 C 7.375 -8.398438 7.753906 -8.265625 8.140625 -8.109375 C 8.523438 -7.960938 8.894531 -7.789062 9.25 -7.59375 C 9.601562 -7.40625 9.929688 -7.1875 10.234375 -6.9375 C 10.535156 -6.695312 10.800781 -6.421875 11.03125 -6.109375 C 11.257812 -5.804688 11.4375 -5.46875 11.5625 -5.09375 C 11.695312 -4.71875 11.765625 -4.304688 11.765625 -3.859375 C 11.765625 -3.171875 11.613281 -2.570312 11.3125 -2.0625 C 11.007812 -1.5625 10.617188 -1.140625 10.140625 -0.796875 C 9.660156 -0.460938 9.117188 -0.210938 8.515625 -0.046875 C 7.910156 0.117188 7.304688 0.203125 6.703125 0.203125 C 6.023438 0.203125 5.363281 0.0976562 4.71875 -0.109375 C 4.070312 -0.316406 3.492188 -0.613281 2.984375 -1 C 2.472656 -1.394531 2.054688 -1.875 1.734375 -2.4375 C 1.421875 -3.007812 1.253906 -3.65625 1.234375 -4.375 L 3.203125 -4.375 C 3.265625 -3.90625 3.390625 -3.488281 3.578125 -3.125 C 3.773438 -2.757812 4.023438 -2.445312 4.328125 -2.1875 C 4.640625 -1.9375 4.992188 -1.742188 5.390625 -1.609375 C 5.796875 -1.484375 6.234375 -1.421875 6.703125 -1.421875 C 7.078125 -1.421875 7.445312 -1.46875 7.8125 -1.5625 C 8.175781 -1.65625 8.5 -1.800781 8.78125 -2 C 9.070312 -2.195312 9.304688 -2.445312 9.484375 -2.75 C 9.660156 -3.050781 9.75 -3.410156 9.75 -3.828125 Z M 9.75 -3.828125 "/></g></g></g><g fill="#000000" fill-opacity="1"><g transform="translate(46.622825, 60.749998)"><g><path d="M 3.734375 -9.59375 C 4.140625 -10.1875 4.640625 -10.644531 5.234375 -10.96875 C 5.828125 -11.300781 6.488281 -11.472656 7.21875 -11.484375 C 7.8125 -11.484375 8.347656 -11.394531 8.828125 -11.21875 C 9.316406 -11.050781 9.726562 -10.785156 10.0625 -10.421875 C 10.40625 -10.066406 10.664062 -9.613281 10.84375 -9.0625 C 11.03125 -8.507812 11.125 -7.851562 11.125 -7.09375 L 11.125 0 L 9.203125 0 L 9.203125 -7.125 C 9.203125 -8.039062 8.976562 -8.722656 8.53125 -9.171875 C 8.09375 -9.628906 7.46875 -9.851562 6.65625 -9.84375 C 6.03125 -9.84375 5.460938 -9.691406 4.953125 -9.390625 C 4.453125 -9.085938 4.046875 -8.6875 3.734375 -8.1875 L 3.734375 0 L 1.8125 0 L 1.8125 -16.015625 L 3.734375 -16.015625 Z M 3.734375 -9.59375 "/></g></g></g><g fill="#000000" fill-opacity="1"><g transform="translate(59.42882, 60.749998)"><g><path d="M 1.265625 -5.75 C 1.265625 -6.5625 1.382812 -7.316406 1.625 -8.015625 C 1.863281 -8.710938 2.203125 -9.316406 2.640625 -9.828125 C 3.078125 -10.335938 3.613281 -10.738281 4.25 -11.03125 C 4.882812 -11.332031 5.597656 -11.484375 6.390625 -11.484375 C 7.191406 -11.484375 7.910156 -11.332031 8.546875 -11.03125 C 9.179688 -10.738281 9.71875 -10.335938 10.15625 -9.828125 C 10.59375 -9.316406 10.929688 -8.710938 11.171875 -8.015625 C 11.410156 -7.316406 11.53125 -6.5625 11.53125 -5.75 L 11.53125 -5.515625 C 11.53125 -4.703125 11.410156 -3.945312 11.171875 -3.25 C 10.929688 -2.550781 10.59375 -1.945312 10.15625 -1.4375 C 9.71875 -0.925781 9.179688 -0.523438 8.546875 -0.234375 C 7.910156 0.0546875 7.195312 0.203125 6.40625 0.203125 C 5.601562 0.203125 4.882812 0.0546875 4.25 -0.234375 C 3.613281 -0.523438 3.078125 -0.925781 2.640625 -1.4375 C 2.203125 -1.945312 1.863281 -2.550781 1.625 -3.25 C 1.382812 -3.945312 1.265625 -4.703125 1.265625 -5.515625 Z M 3.203125 -5.515625 C 3.203125 -4.953125 3.265625 -4.421875 3.390625 -3.921875 C 3.523438 -3.421875 3.722656 -2.976562 3.984375 -2.59375 C 4.253906 -2.207031 4.59375 -1.90625 5 -1.6875 C 5.40625 -1.46875 5.875 -1.359375 6.40625 -1.359375 C 6.9375 -1.359375 7.398438 -1.46875 7.796875 -1.6875 C 8.203125 -1.90625 8.535156 -2.207031 8.796875 -2.59375 C 9.066406 -2.976562 9.265625 -3.421875 9.390625 -3.921875 C 9.523438 -4.421875 9.59375 -4.953125 9.59375 -5.515625 L 9.59375 -5.75 C 9.59375 -6.289062 9.523438 -6.8125 9.390625 -7.3125 C 9.253906 -7.820312 9.050781 -8.265625 8.78125 -8.640625 C 8.519531 -9.023438 8.1875 -9.332031 7.78125 -9.5625 C 7.382812 -9.789062 6.921875 -9.90625 6.390625 -9.90625 C 5.859375 -9.90625 5.390625 -9.789062 4.984375 -9.5625 C 4.585938 -9.332031 4.253906 -9.023438 3.984375 -8.640625 C 3.722656 -8.265625 3.523438 -7.820312 3.390625 -7.3125 C 3.265625 -6.8125 3.203125 -6.289062 3.203125 -5.75 Z M 3.203125 -5.515625 "/></g></g></g><g fill="#000000" fill-opacity="1"><g transform="translate(72.234815, 60.749998)"><g><path d="M 3.515625 -4.078125 L 3.75 -2.46875 L 4.03125 -4.078125 L 5.84375 -11.28125 L 7.078125 -11.28125 L 8.875 -4.078125 L 9.171875 -2.3125 L 9.453125 -4.078125 L 10.703125 -11.28125 L 12.40625 -11.28125 L 10.015625 0 L 8.5 0 L 6.734375 -6.90625 L 6.4375 -8.65625 L 6.15625 -6.90625 L 4.421875 0 L 2.890625 0 L 0.5 -11.28125 L 2.203125 -11.28125 Z M 3.515625 -4.078125 "/></g></g></g><g fill="#000000" fill-opacity="1"><g transform="translate(85.04081, 60.749998)"><g/></g></g><g fill="#000000" fill-opacity="1"><g transform="translate(97.848076, 60.749998)"><g><path d="M 11.90625 -4.75 C 11.851562 -3.988281 11.6875 -3.300781 11.40625 -2.6875 C 11.125 -2.070312 10.742188 -1.550781 10.265625 -1.125 C 9.796875 -0.695312 9.234375 -0.363281 8.578125 -0.125 C 7.929688 0.101562 7.210938 0.21875 6.421875 0.21875 C 5.523438 0.21875 4.726562 0.0546875 4.03125 -0.265625 C 3.332031 -0.597656 2.75 -1.0625 2.28125 -1.65625 C 1.8125 -2.25 1.453125 -2.960938 1.203125 -3.796875 C 0.953125 -4.628906 0.828125 -5.550781 0.828125 -6.5625 L 0.828125 -8.59375 C 0.828125 -9.601562 0.957031 -10.523438 1.21875 -11.359375 C 1.476562 -12.191406 1.851562 -12.90625 2.34375 -13.5 C 2.832031 -14.101562 3.421875 -14.566406 4.109375 -14.890625 C 4.796875 -15.222656 5.570312 -15.390625 6.4375 -15.390625 C 7.269531 -15.390625 8.007812 -15.269531 8.65625 -15.03125 C 9.3125 -14.800781 9.867188 -14.46875 10.328125 -14.03125 C 10.785156 -13.59375 11.144531 -13.054688 11.40625 -12.421875 C 11.675781 -11.785156 11.84375 -11.070312 11.90625 -10.28125 L 9 -10.28125 C 8.96875 -10.738281 8.894531 -11.132812 8.78125 -11.46875 C 8.675781 -11.8125 8.519531 -12.09375 8.3125 -12.3125 C 8.113281 -12.539062 7.859375 -12.710938 7.546875 -12.828125 C 7.242188 -12.941406 6.875 -13 6.4375 -13 C 5.988281 -13 5.597656 -12.898438 5.265625 -12.703125 C 4.929688 -12.515625 4.65625 -12.234375 4.4375 -11.859375 C 4.21875 -11.484375 4.054688 -11.019531 3.953125 -10.46875 C 3.847656 -9.925781 3.796875 -9.3125 3.796875 -8.625 L 3.796875 -6.5625 C 3.796875 -5.0625 4.003906 -3.953125 4.421875 -3.234375 C 4.835938 -2.523438 5.503906 -2.171875 6.421875 -2.171875 C 7.179688 -2.171875 7.785156 -2.375 8.234375 -2.78125 C 8.679688 -3.1875 8.925781 -3.84375 8.96875 -4.75 Z M 11.90625 -4.75 "/></g></g></g><g fill="#000000" fill-opacity="1"><g transform="translate(110.654071, 60.749998)"><g><path d="M 1.078125 -5.75 C 1.078125 -6.5625 1.191406 -7.316406 1.421875 -8.015625 C 1.660156 -8.710938 2.003906 -9.316406 2.453125 -9.828125 C 2.910156 -10.347656 3.46875 -10.753906 4.125 -11.046875 C 4.78125 -11.335938 5.535156 -11.484375 6.390625 -11.484375 C 7.234375 -11.484375 7.984375 -11.335938 8.640625 -11.046875 C 9.304688 -10.753906 9.863281 -10.347656 10.3125 -9.828125 C 10.769531 -9.316406 11.117188 -8.710938 11.359375 -8.015625 C 11.597656 -7.316406 11.71875 -6.5625 11.71875 -5.75 L 11.71875 -5.53125 C 11.71875 -4.695312 11.597656 -3.929688 11.359375 -3.234375 C 11.117188 -2.535156 10.773438 -1.925781 10.328125 -1.40625 C 9.878906 -0.894531 9.320312 -0.492188 8.65625 -0.203125 C 8 0.078125 7.25 0.21875 6.40625 0.21875 C 5.5625 0.21875 4.804688 0.078125 4.140625 -0.203125 C 3.472656 -0.492188 2.910156 -0.894531 2.453125 -1.40625 C 2.003906 -1.925781 1.660156 -2.535156 1.421875 -3.234375 C 1.191406 -3.929688 1.078125 -4.695312 1.078125 -5.53125 Z M 3.96875 -5.53125 C 3.96875 -5.050781 4.007812 -4.601562 4.09375 -4.1875 C 4.1875 -3.78125 4.332031 -3.421875 4.53125 -3.109375 C 4.726562 -2.796875 4.976562 -2.550781 5.28125 -2.375 C 5.59375 -2.195312 5.96875 -2.109375 6.40625 -2.109375 C 6.832031 -2.109375 7.195312 -2.195312 7.5 -2.375 C 7.8125 -2.550781 8.0625 -2.796875 8.25 -3.109375 C 8.4375 -3.421875 8.578125 -3.78125 8.671875 -4.1875 C 8.765625 -4.601562 8.8125 -5.050781 8.8125 -5.53125 L 8.8125 -5.75 C 8.8125 -6.207031 8.765625 -6.640625 8.671875 -7.046875 C 8.578125 -7.453125 8.4375 -7.8125 8.25 -8.125 C 8.0625 -8.4375 7.8125 -8.679688 7.5 -8.859375 C 7.195312 -9.046875 6.828125 -9.140625 6.390625 -9.140625 C 5.960938 -9.140625 5.59375 -9.046875 5.28125 -8.859375 C 4.976562 -8.679688 4.726562 -8.4375 4.53125 -8.125 C 4.332031 -7.8125 4.1875 -7.453125 4.09375 -7.046875 C 4.007812 -6.640625 3.96875 -6.207031 3.96875 -5.75 Z M 3.96875 -5.53125 "/></g></g></g><g fill="#000000" fill-opacity="1"><g transform="translate(123.460066, 60.749998)"><g><path d="M 3.265625 -11.28125 L 3.359375 -9.90625 C 3.566406 -10.394531 3.859375 -10.78125 4.234375 -11.0625 C 4.617188 -11.34375 5.082031 -11.484375 5.625 -11.484375 C 6.539062 -11.484375 7.132812 -11.082031 7.40625 -10.28125 C 7.632812 -10.65625 7.921875 -10.945312 8.265625 -11.15625 C 8.609375 -11.375 9.019531 -11.484375 9.5 -11.484375 C 9.84375 -11.484375 10.160156 -11.421875 10.453125 -11.296875 C 10.753906 -11.171875 11.015625 -10.96875 11.234375 -10.6875 C 11.453125 -10.414062 11.617188 -10.0625 11.734375 -9.625 C 11.859375 -9.195312 11.921875 -8.671875 11.921875 -8.046875 L 11.921875 0 L 9.28125 0 L 9.28125 -8.0625 C 9.28125 -8.269531 9.257812 -8.441406 9.21875 -8.578125 C 9.175781 -8.722656 9.113281 -8.832031 9.03125 -8.90625 C 8.957031 -8.988281 8.867188 -9.046875 8.765625 -9.078125 C 8.671875 -9.109375 8.570312 -9.125 8.46875 -9.125 C 8.257812 -9.125 8.085938 -9.078125 7.953125 -8.984375 C 7.816406 -8.890625 7.707031 -8.765625 7.625 -8.609375 L 7.625 0 L 5.078125 0 L 5.078125 -8.0625 C 5.078125 -8.28125 5.054688 -8.457031 5.015625 -8.59375 C 4.972656 -8.738281 4.914062 -8.847656 4.84375 -8.921875 C 4.769531 -8.992188 4.679688 -9.046875 4.578125 -9.078125 C 4.484375 -9.109375 4.378906 -9.125 4.265625 -9.125 C 4.046875 -9.125 3.867188 -9.0625 3.734375 -8.9375 C 3.597656 -8.8125 3.492188 -8.644531 3.421875 -8.4375 L 3.421875 0 L 0.78125 0 L 0.78125 -11.28125 Z M 3.265625 -11.28125 "/></g></g></g><g fill="#000000" fill-opacity="1"><g transform="translate(136.266061, 60.749998)"><g><path d="M 11.59375 -5.53125 C 11.59375 -4.707031 11.5 -3.945312 11.3125 -3.25 C 11.125 -2.550781 10.84375 -1.945312 10.46875 -1.4375 C 10.09375 -0.925781 9.628906 -0.523438 9.078125 -0.234375 C 8.535156 0.0546875 7.910156 0.203125 7.203125 0.203125 C 6.597656 0.203125 6.066406 0.0976562 5.609375 -0.109375 C 5.148438 -0.316406 4.75 -0.609375 4.40625 -0.984375 L 4.40625 4.328125 L 1.515625 4.328125 L 1.515625 -11.28125 L 4.1875 -11.28125 L 4.296875 -10.171875 C 4.640625 -10.585938 5.046875 -10.910156 5.515625 -11.140625 C 5.992188 -11.367188 6.550781 -11.484375 7.1875 -11.484375 C 7.894531 -11.484375 8.523438 -11.34375 9.078125 -11.0625 C 9.628906 -10.789062 10.09375 -10.40625 10.46875 -9.90625 C 10.84375 -9.40625 11.125 -8.800781 11.3125 -8.09375 C 11.5 -7.382812 11.59375 -6.601562 11.59375 -5.75 Z M 8.703125 -5.75 C 8.703125 -6.226562 8.65625 -6.671875 8.5625 -7.078125 C 8.476562 -7.492188 8.34375 -7.851562 8.15625 -8.15625 C 7.976562 -8.457031 7.742188 -8.691406 7.453125 -8.859375 C 7.171875 -9.035156 6.820312 -9.125 6.40625 -9.125 C 5.90625 -9.125 5.488281 -9.023438 5.15625 -8.828125 C 4.832031 -8.628906 4.582031 -8.351562 4.40625 -8 L 4.40625 -3.28125 C 4.582031 -2.925781 4.832031 -2.640625 5.15625 -2.421875 C 5.488281 -2.210938 5.914062 -2.109375 6.4375 -2.109375 C 6.84375 -2.109375 7.1875 -2.195312 7.46875 -2.375 C 7.757812 -2.5625 7.992188 -2.8125 8.171875 -3.125 C 8.359375 -3.4375 8.492188 -3.796875 8.578125 -4.203125 C 8.660156 -4.617188 8.703125 -5.0625 8.703125 -5.53125 Z M 8.703125 -5.75 "/></g></g></g><g fill="#000000" fill-opacity="1"><g transform="translate(149.072056, 60.749998)"><g><path d="M 2.078125 -16.015625 L 8.375 -16.015625 L 8.375 -2.359375 L 11.609375 -2.359375 L 11.609375 0 L 2.078125 0 L 2.078125 -2.359375 L 5.453125 -2.359375 L 5.453125 -13.640625 L 2.078125 -13.640625 Z M 2.078125 -16.015625 "/></g></g></g><g fill="#000000" fill-opacity="1"><g transform="translate(161.878051, 60.749998)"><g><path d="M 6.9375 0.203125 C 6.070312 0.203125 5.285156 0.0625 4.578125 -0.21875 C 3.867188 -0.5 3.257812 -0.882812 2.75 -1.375 C 2.238281 -1.863281 1.847656 -2.441406 1.578125 -3.109375 C 1.304688 -3.773438 1.171875 -4.484375 1.171875 -5.234375 L 1.171875 -5.65625 C 1.171875 -6.519531 1.304688 -7.304688 1.578125 -8.015625 C 1.847656 -8.734375 2.222656 -9.347656 2.703125 -9.859375 C 3.191406 -10.367188 3.769531 -10.765625 4.4375 -11.046875 C 5.101562 -11.335938 5.832031 -11.484375 6.625 -11.484375 C 7.4375 -11.484375 8.160156 -11.347656 8.796875 -11.078125 C 9.429688 -10.816406 9.96875 -10.441406 10.40625 -9.953125 C 10.84375 -9.460938 11.175781 -8.875 11.40625 -8.1875 C 11.632812 -7.507812 11.75 -6.757812 11.75 -5.9375 L 11.75 -4.703125 L 4.109375 -4.703125 C 4.160156 -4.316406 4.269531 -3.960938 4.4375 -3.640625 C 4.613281 -3.328125 4.832031 -3.054688 5.09375 -2.828125 C 5.363281 -2.597656 5.664062 -2.421875 6 -2.296875 C 6.34375 -2.171875 6.71875 -2.109375 7.125 -2.109375 C 7.40625 -2.109375 7.6875 -2.132812 7.96875 -2.1875 C 8.25 -2.25 8.515625 -2.332031 8.765625 -2.4375 C 9.023438 -2.550781 9.265625 -2.6875 9.484375 -2.84375 C 9.710938 -3 9.910156 -3.1875 10.078125 -3.40625 L 11.53125 -1.84375 C 11.34375 -1.582031 11.101562 -1.328125 10.8125 -1.078125 C 10.53125 -0.835938 10.191406 -0.617188 9.796875 -0.421875 C 9.410156 -0.234375 8.976562 -0.0820312 8.5 0.03125 C 8.019531 0.144531 7.5 0.203125 6.9375 0.203125 Z M 6.59375 -9.140625 C 6.269531 -9.140625 5.972656 -9.082031 5.703125 -8.96875 C 5.429688 -8.851562 5.191406 -8.6875 4.984375 -8.46875 C 4.773438 -8.257812 4.601562 -8.003906 4.46875 -7.703125 C 4.332031 -7.398438 4.226562 -7.066406 4.15625 -6.703125 L 8.90625 -6.703125 L 8.90625 -6.9375 C 8.894531 -7.238281 8.835938 -7.523438 8.734375 -7.796875 C 8.628906 -8.066406 8.476562 -8.300781 8.28125 -8.5 C 8.09375 -8.695312 7.859375 -8.851562 7.578125 -8.96875 C 7.296875 -9.082031 6.96875 -9.140625 6.59375 -9.140625 Z M 6.59375 -9.140625 "/></g></g></g><g fill="#000000" fill-opacity="1"><g transform="translate(174.684046, 60.749998)"><g><path d="M 6.78125 -14.03125 L 6.78125 -11.28125 L 11 -11.28125 L 11 -9.140625 L 6.78125 -9.140625 L 6.78125 -4.296875 C 6.78125 -3.878906 6.828125 -3.535156 6.921875 -3.265625 C 7.015625 -2.992188 7.148438 -2.773438 7.328125 -2.609375 C 7.503906 -2.441406 7.710938 -2.320312 7.953125 -2.25 C 8.203125 -2.1875 8.476562 -2.15625 8.78125 -2.15625 C 9.007812 -2.15625 9.238281 -2.164062 9.46875 -2.1875 C 9.695312 -2.207031 9.914062 -2.234375 10.125 -2.265625 C 10.34375 -2.296875 10.539062 -2.328125 10.71875 -2.359375 C 10.90625 -2.398438 11.066406 -2.4375 11.203125 -2.46875 L 11.484375 -0.484375 C 11.285156 -0.359375 11.050781 -0.253906 10.78125 -0.171875 C 10.507812 -0.0859375 10.21875 -0.0195312 9.90625 0.03125 C 9.601562 0.09375 9.285156 0.140625 8.953125 0.171875 C 8.628906 0.203125 8.304688 0.21875 7.984375 0.21875 C 7.367188 0.21875 6.804688 0.140625 6.296875 -0.015625 C 5.796875 -0.179688 5.363281 -0.4375 5 -0.78125 C 4.644531 -1.125 4.367188 -1.5625 4.171875 -2.09375 C 3.984375 -2.625 3.890625 -3.265625 3.890625 -4.015625 L 3.890625 -9.140625 L 1.3125 -9.140625 L 1.3125 -11.28125 L 3.890625 -11.28125 L 3.890625 -14.03125 Z M 6.78125 -14.03125 "/></g></g></g><g fill="#000000" fill-opacity="1"><g transform="translate(187.490041, 60.749998)"><g><path d="M 6.9375 0.203125 C 6.070312 0.203125 5.285156 0.0625 4.578125 -0.21875 C 3.867188 -0.5 3.257812 -0.882812 2.75 -1.375 C 2.238281 -1.863281 1.847656 -2.441406 1.578125 -3.109375 C 1.304688 -3.773438 1.171875 -4.484375 1.171875 -5.234375 L 1.171875 -5.65625 C 1.171875 -6.519531 1.304688 -7.304688 1.578125 -8.015625 C 1.847656 -8.734375 2.222656 -9.347656 2.703125 -9.859375 C 3.191406 -10.367188 3.769531 -10.765625 4.4375 -11.046875 C 5.101562 -11.335938 5.832031 -11.484375 6.625 -11.484375 C 7.4375 -11.484375 8.160156 -11.347656 8.796875 -11.078125 C 9.429688 -10.816406 9.96875 -10.441406 10.40625 -9.953125 C 10.84375 -9.460938 11.175781 -8.875 11.40625 -8.1875 C 11.632812 -7.507812 11.75 -6.757812 11.75 -5.9375 L 11.75 -4.703125 L 4.109375 -4.703125 C 4.160156 -4.316406 4.269531 -3.960938 4.4375 -3.640625 C 4.613281 -3.328125 4.832031 -3.054688 5.09375 -2.828125 C 5.363281 -2.597656 5.664062 -2.421875 6 -2.296875 C 6.34375 -2.171875 6.71875 -2.109375 7.125 -2.109375 C 7.40625 -2.109375 7.6875 -2.132812 7.96875 -2.1875 C 8.25 -2.25 8.515625 -2.332031 8.765625 -2.4375 C 9.023438 -2.550781 9.265625 -2.6875 9.484375 -2.84375 C 9.710938 -3 9.910156 -3.1875 10.078125 -3.40625 L 11.53125 -1.84375 C 11.34375 -1.582031 11.101562 -1.328125 10.8125 -1.078125 C 10.53125 -0.835938 10.191406 -0.617188 9.796875 -0.421875 C 9.410156 -0.234375 8.976562 -0.0820312 8.5 0.03125 C 8.019531 0.144531 7.5 0.203125 6.9375 0.203125 Z M 6.59375 -9.140625 C 6.269531 -9.140625 5.972656 -9.082031 5.703125 -8.96875 C 5.429688 -8.851562 5.191406 -8.6875 4.984375 -8.46875 C 4.773438 -8.257812 4.601562 -8.003906 4.46875 -7.703125 C 4.332031 -7.398438 4.226562 -7.066406 4.15625 -6.703125 L 8.90625 -6.703125 L 8.90625 -6.9375 C 8.894531 -7.238281 8.835938 -7.523438 8.734375 -7.796875 C 8.628906 -8.066406 8.476562 -8.300781 8.28125 -8.5 C 8.09375 -8.695312 7.859375 -8.851562 7.578125 -8.96875 C 7.296875 -9.082031 6.96875 -9.140625 6.59375 -9.140625 Z M 6.59375 -9.140625 "/></g></g></g><g fill="#000000" fill-opacity="1"><g transform="translate(200.296036, 60.749998)"><g><path d="M 1.171875 -5.71875 C 1.171875 -6.570312 1.269531 -7.351562 1.46875 -8.0625 C 1.664062 -8.769531 1.953125 -9.378906 2.328125 -9.890625 C 2.710938 -10.398438 3.175781 -10.789062 3.71875 -11.0625 C 4.269531 -11.34375 4.894531 -11.484375 5.59375 -11.484375 C 6.1875 -11.484375 6.707031 -11.375 7.15625 -11.15625 C 7.601562 -10.945312 8 -10.648438 8.34375 -10.265625 L 8.34375 -16.015625 L 11.25 -16.015625 L 11.25 0 L 8.640625 0 L 8.5 -1.171875 C 8.144531 -0.734375 7.726562 -0.394531 7.25 -0.15625 C 6.769531 0.0820312 6.210938 0.203125 5.578125 0.203125 C 4.890625 0.203125 4.269531 0.0625 3.71875 -0.21875 C 3.175781 -0.507812 2.710938 -0.90625 2.328125 -1.40625 C 1.953125 -1.914062 1.664062 -2.519531 1.46875 -3.21875 C 1.269531 -3.914062 1.171875 -4.675781 1.171875 -5.5 Z M 4.0625 -5.5 C 4.0625 -5.03125 4.097656 -4.59375 4.171875 -4.1875 C 4.253906 -3.78125 4.382812 -3.425781 4.5625 -3.125 C 4.75 -2.820312 4.984375 -2.582031 5.265625 -2.40625 C 5.554688 -2.226562 5.90625 -2.140625 6.3125 -2.140625 C 6.8125 -2.140625 7.226562 -2.25 7.5625 -2.46875 C 7.894531 -2.6875 8.15625 -2.984375 8.34375 -3.359375 L 8.34375 -7.921875 C 8.15625 -8.304688 7.894531 -8.601562 7.5625 -8.8125 C 7.238281 -9.019531 6.832031 -9.125 6.34375 -9.125 C 5.925781 -9.125 5.570312 -9.035156 5.28125 -8.859375 C 5 -8.679688 4.765625 -8.4375 4.578125 -8.125 C 4.398438 -7.820312 4.269531 -7.460938 4.1875 -7.046875 C 4.101562 -6.640625 4.0625 -6.195312 4.0625 -5.71875 Z M 4.0625 -5.5 "/></g></g></g><g fill="#000000" fill-opacity="1"><g transform="translate(213.102031, 60.749998)"><g/></g></g><g fill="#000000" fill-opacity="1"><g transform="translate(225.910569, 60.749998)"><g><path d="M 12.046875 -13.53125 L 7.359375 -13.53125 L 7.359375 0 L 5.484375 0 L 5.484375 -13.53125 L 0.796875 -13.53125 L 0.796875 -15.171875 L 12.046875 -15.171875 Z M 12.046875 -13.53125 "/></g></g></g><g fill="#000000" fill-opacity="1"><g transform="translate(238.716564, 60.749998)"><g><path d="M 9.21875 0 C 9.144531 -0.144531 9.082031 -0.328125 9.03125 -0.546875 C 8.988281 -0.765625 8.957031 -0.992188 8.9375 -1.234375 C 8.75 -1.035156 8.535156 -0.847656 8.296875 -0.671875 C 8.054688 -0.503906 7.789062 -0.351562 7.5 -0.21875 C 7.207031 -0.0820312 6.898438 0.0195312 6.578125 0.09375 C 6.253906 0.164062 5.90625 0.203125 5.53125 0.203125 C 4.9375 0.203125 4.394531 0.117188 3.90625 -0.046875 C 3.425781 -0.222656 3.015625 -0.457031 2.671875 -0.75 C 2.335938 -1.050781 2.078125 -1.40625 1.890625 -1.8125 C 1.710938 -2.21875 1.625 -2.65625 1.625 -3.125 C 1.625 -3.738281 1.742188 -4.28125 1.984375 -4.75 C 2.234375 -5.21875 2.582031 -5.601562 3.03125 -5.90625 C 3.488281 -6.21875 4.035156 -6.453125 4.671875 -6.609375 C 5.304688 -6.765625 6.019531 -6.84375 6.8125 -6.84375 L 8.90625 -6.84375 L 8.90625 -7.71875 C 8.90625 -8.0625 8.84375 -8.367188 8.71875 -8.640625 C 8.59375 -8.910156 8.414062 -9.140625 8.1875 -9.328125 C 7.957031 -9.523438 7.675781 -9.675781 7.34375 -9.78125 C 7.019531 -9.882812 6.65625 -9.9375 6.25 -9.9375 C 5.863281 -9.9375 5.519531 -9.882812 5.21875 -9.78125 C 4.914062 -9.6875 4.660156 -9.554688 4.453125 -9.390625 C 4.242188 -9.234375 4.082031 -9.046875 3.96875 -8.828125 C 3.851562 -8.609375 3.796875 -8.382812 3.796875 -8.15625 L 1.859375 -8.15625 C 1.859375 -8.5625 1.960938 -8.960938 2.171875 -9.359375 C 2.378906 -9.753906 2.675781 -10.109375 3.0625 -10.421875 C 3.445312 -10.742188 3.914062 -11 4.46875 -11.1875 C 5.019531 -11.382812 5.644531 -11.484375 6.34375 -11.484375 C 6.988281 -11.484375 7.582031 -11.40625 8.125 -11.25 C 8.675781 -11.09375 9.148438 -10.851562 9.546875 -10.53125 C 9.953125 -10.21875 10.269531 -9.828125 10.5 -9.359375 C 10.726562 -8.890625 10.84375 -8.335938 10.84375 -7.703125 L 10.84375 -2.453125 C 10.84375 -2.078125 10.875 -1.679688 10.9375 -1.265625 C 11.007812 -0.847656 11.109375 -0.484375 11.234375 -0.171875 L 11.234375 0 Z M 5.8125 -1.46875 C 6.1875 -1.46875 6.535156 -1.515625 6.859375 -1.609375 C 7.191406 -1.710938 7.488281 -1.84375 7.75 -2 C 8.019531 -2.15625 8.253906 -2.335938 8.453125 -2.546875 C 8.648438 -2.753906 8.800781 -2.96875 8.90625 -3.1875 L 8.90625 -5.46875 L 7.125 -5.46875 C 6 -5.46875 5.117188 -5.300781 4.484375 -4.96875 C 3.859375 -4.632812 3.546875 -4.109375 3.546875 -3.390625 C 3.546875 -3.117188 3.59375 -2.863281 3.6875 -2.625 C 3.78125 -2.382812 3.921875 -2.179688 4.109375 -2.015625 C 4.296875 -1.847656 4.53125 -1.710938 4.8125 -1.609375 C 5.101562 -1.515625 5.4375 -1.46875 5.8125 -1.46875 Z M 5.8125 -1.46875 "/></g></g></g><g fill="#000000" fill-opacity="1"><g transform="translate(251.522559, 60.749998)"><g><path d="M 9.3125 -2.984375 C 9.3125 -3.210938 9.265625 -3.421875 9.171875 -3.609375 C 9.078125 -3.796875 8.921875 -3.960938 8.703125 -4.109375 C 8.492188 -4.265625 8.210938 -4.40625 7.859375 -4.53125 C 7.503906 -4.664062 7.0625 -4.785156 6.53125 -4.890625 C 5.882812 -5.015625 5.296875 -5.171875 4.765625 -5.359375 C 4.234375 -5.554688 3.773438 -5.785156 3.390625 -6.046875 C 3.015625 -6.304688 2.722656 -6.609375 2.515625 -6.953125 C 2.304688 -7.304688 2.203125 -7.71875 2.203125 -8.1875 C 2.203125 -8.644531 2.3125 -9.070312 2.53125 -9.46875 C 2.75 -9.863281 3.050781 -10.210938 3.4375 -10.515625 C 3.820312 -10.816406 4.285156 -11.050781 4.828125 -11.21875 C 5.367188 -11.394531 5.960938 -11.484375 6.609375 -11.484375 C 7.304688 -11.484375 7.929688 -11.390625 8.484375 -11.203125 C 9.035156 -11.023438 9.503906 -10.773438 9.890625 -10.453125 C 10.285156 -10.140625 10.585938 -9.769531 10.796875 -9.34375 C 11.015625 -8.914062 11.125 -8.457031 11.125 -7.96875 L 9.1875 -7.96875 C 9.1875 -8.207031 9.125 -8.441406 9 -8.671875 C 8.875 -8.910156 8.703125 -9.117188 8.484375 -9.296875 C 8.265625 -9.472656 7.992188 -9.617188 7.671875 -9.734375 C 7.359375 -9.847656 7.003906 -9.90625 6.609375 -9.90625 C 6.203125 -9.90625 5.84375 -9.859375 5.53125 -9.765625 C 5.21875 -9.671875 4.957031 -9.546875 4.75 -9.390625 C 4.550781 -9.242188 4.398438 -9.066406 4.296875 -8.859375 C 4.191406 -8.660156 4.140625 -8.457031 4.140625 -8.25 C 4.140625 -8.019531 4.179688 -7.816406 4.265625 -7.640625 C 4.347656 -7.472656 4.488281 -7.316406 4.6875 -7.171875 C 4.894531 -7.035156 5.171875 -6.910156 5.515625 -6.796875 C 5.859375 -6.691406 6.296875 -6.585938 6.828125 -6.484375 C 7.523438 -6.335938 8.144531 -6.164062 8.6875 -5.96875 C 9.238281 -5.78125 9.703125 -5.550781 10.078125 -5.28125 C 10.453125 -5.019531 10.738281 -4.710938 10.9375 -4.359375 C 11.132812 -4.003906 11.234375 -3.59375 11.234375 -3.125 C 11.234375 -2.625 11.117188 -2.164062 10.890625 -1.75 C 10.671875 -1.34375 10.359375 -0.992188 9.953125 -0.703125 C 9.546875 -0.410156 9.0625 -0.1875 8.5 -0.03125 C 7.9375 0.125 7.320312 0.203125 6.65625 0.203125 C 5.894531 0.203125 5.210938 0.101562 4.609375 -0.09375 C 4.015625 -0.300781 3.507812 -0.570312 3.09375 -0.90625 C 2.6875 -1.25 2.375 -1.640625 2.15625 -2.078125 C 1.9375 -2.523438 1.828125 -2.988281 1.828125 -3.46875 L 3.75 -3.46875 C 3.78125 -3.070312 3.882812 -2.738281 4.0625 -2.46875 C 4.25 -2.195312 4.476562 -1.976562 4.75 -1.8125 C 5.03125 -1.644531 5.335938 -1.523438 5.671875 -1.453125 C 6.003906 -1.390625 6.332031 -1.359375 6.65625 -1.359375 C 7.46875 -1.359375 8.109375 -1.503906 8.578125 -1.796875 C 9.054688 -2.097656 9.300781 -2.492188 9.3125 -2.984375 Z M 9.3125 -2.984375 "/></g></g></g><g fill="#000000" fill-opacity="1"><g transform="translate(264.328554, 60.749998)"><g><path d="M 5.1875 -5.265625 L 3.765625 -3.890625 L 3.765625 0 L 1.828125 0 L 1.828125 -16.015625 L 3.765625 -16.015625 L 3.765625 -6.21875 L 5.03125 -7.5625 L 8.734375 -11.28125 L 11.078125 -11.28125 L 6.515625 -6.578125 L 11.78125 0 L 9.328125 0 Z M 5.1875 -5.265625 "/></g></g></g><g fill="#000000" fill-opacity="1"><g transform="translate(277.134549, 60.749998)"><g><path d="M 9.3125 -2.984375 C 9.3125 -3.210938 9.265625 -3.421875 9.171875 -3.609375 C 9.078125 -3.796875 8.921875 -3.960938 8.703125 -4.109375 C 8.492188 -4.265625 8.210938 -4.40625 7.859375 -4.53125 C 7.503906 -4.664062 7.0625 -4.785156 6.53125 -4.890625 C 5.882812 -5.015625 5.296875 -5.171875 4.765625 -5.359375 C 4.234375 -5.554688 3.773438 -5.785156 3.390625 -6.046875 C 3.015625 -6.304688 2.722656 -6.609375 2.515625 -6.953125 C 2.304688 -7.304688 2.203125 -7.71875 2.203125 -8.1875 C 2.203125 -8.644531 2.3125 -9.070312 2.53125 -9.46875 C 2.75 -9.863281 3.050781 -10.210938 3.4375 -10.515625 C 3.820312 -10.816406 4.285156 -11.050781 4.828125 -11.21875 C 5.367188 -11.394531 5.960938 -11.484375 6.609375 -11.484375 C 7.304688 -11.484375 7.929688 -11.390625 8.484375 -11.203125 C 9.035156 -11.023438 9.503906 -10.773438 9.890625 -10.453125 C 10.285156 -10.140625 10.585938 -9.769531 10.796875 -9.34375 C 11.015625 -8.914062 11.125 -8.457031 11.125 -7.96875 L 9.1875 -7.96875 C 9.1875 -8.207031 9.125 -8.441406 9 -8.671875 C 8.875 -8.910156 8.703125 -9.117188 8.484375 -9.296875 C 8.265625 -9.472656 7.992188 -9.617188 7.671875 -9.734375 C 7.359375 -9.847656 7.003906 -9.90625 6.609375 -9.90625 C 6.203125 -9.90625 5.84375 -9.859375 5.53125 -9.765625 C 5.21875 -9.671875 4.957031 -9.546875 4.75 -9.390625 C 4.550781 -9.242188 4.398438 -9.066406 4.296875 -8.859375 C 4.191406 -8.660156 4.140625 -8.457031 4.140625 -8.25 C 4.140625 -8.019531 4.179688 -7.816406 4.265625 -7.640625 C 4.347656 -7.472656 4.488281 -7.316406 4.6875 -7.171875 C 4.894531 -7.035156 5.171875 -6.910156 5.515625 -6.796875 C 5.859375 -6.691406 6.296875 -6.585938 6.828125 -6.484375 C 7.523438 -6.335938 8.144531 -6.164062 8.6875 -5.96875 C 9.238281 -5.78125 9.703125 -5.550781 10.078125 -5.28125 C 10.453125 -5.019531 10.738281 -4.710938 10.9375 -4.359375 C 11.132812 -4.003906 11.234375 -3.59375 11.234375 -3.125 C 11.234375 -2.625 11.117188 -2.164062 10.890625 -1.75 C 10.671875 -1.34375 10.359375 -0.992188 9.953125 -0.703125 C 9.546875 -0.410156 9.0625 -0.1875 8.5 -0.03125 C 7.9375 0.125 7.320312 0.203125 6.65625 0.203125 C 5.894531 0.203125 5.210938 0.101562 4.609375 -0.09375 C 4.015625 -0.300781 3.507812 -0.570312 3.09375 -0.90625 C 2.6875 -1.25 2.375 -1.640625 2.15625 -2.078125 C 1.9375 -2.523438 1.828125 -2.988281 1.828125 -3.46875 L 3.75 -3.46875 C 3.78125 -3.070312 3.882812 -2.738281 4.0625 -2.46875 C 4.25 -2.195312 4.476562 -1.976562 4.75 -1.8125 C 5.03125 -1.644531 5.335938 -1.523438 5.671875 -1.453125 C 6.003906 -1.390625 6.332031 -1.359375 6.65625 -1.359375 C 7.46875 -1.359375 8.109375 -1.503906 8.578125 -1.796875 C 9.054688 -2.097656 9.300781 -2.492188 9.3125 -2.984375 Z M 9.3125 -2.984375 "/></g></g></g><g fill="#000000" fill-opacity="1"><g transform="translate(289.941815, 60.749998)"><g/></g></g><g fill="#000000" fill-opacity="1"><g transform="translate(302.74781, 60.749998)"><g/></g></g><g fill="#000000" fill-opacity="1"><g transform="translate(315.553805, 60.749998)"><g/></g></g><g fill="#000000" fill-opacity="1"><g transform="translate(328.3598, 60.749998)"><g/></g></g><path fill="#ef9645" d="M 338.90625 58.816406 C 338.273438 57.890625 338.625 56.550781 338.46875 55.074219 C 338.304688 52.664062 337.273438 50.328125 335.277344 48.457031 L 328.46875 42.09375 C 328.46875 42.09375 327.128906 40.839844 325.878906 42.1875 C 324.632812 43.539062 325.976562 44.792969 325.976562 44.792969 L 328.851562 47.480469 L 331.34375 49.8125 C 331.34375 49.8125 330.71875 50.488281 327.960938 47.90625 L 318.640625 39.195312 C 318.640625 39.195312 317.300781 37.941406 316.050781 39.289062 C 314.804688 40.636719 316.144531 41.890625 316.144531 41.890625 L 324.957031 50.132812 C 324.9375 50.113281 324.289062 50.765625 324.277344 50.753906 L 314.851562 41.941406 C 314.851562 41.941406 313.507812 40.683594 312.261719 42.035156 C 311.011719 43.382812 312.355469 44.636719 312.355469 44.636719 L 321.78125 53.457031 C 321.792969 53.464844 321.1875 54.15625 321.203125 54.171875 L 313.070312 46.566406 C 313.070312 46.566406 311.730469 45.3125 310.480469 46.660156 C 309.234375 48.011719 310.574219 49.265625 310.574219 49.265625 L 319.222656 57.351562 C 319.300781 57.425781 318.765625 58.183594 318.867188 58.273438 L 312.636719 52.449219 C 312.636719 52.449219 311.292969 51.195312 310.046875 52.542969 C 308.796875 53.894531 310.140625 55.148438 310.140625 55.148438 L 320.300781 64.648438 C 322 66.234375 323.742188 67.039062 325.839844 67.332031 C 326.269531 67.390625 326.816406 67.390625 327.039062 67.417969 C 327.75 67.507812 328.371094 67.761719 329.203125 68.277344 C 330.273438 68.9375 331.878906 69.210938 332.804688 68.21875 L 335.953125 64.832031 L 338.859375 61.703125 C 339.785156 60.710938 339.617188 59.855469 338.90625 58.816406 Z M 338.90625 58.816406 " fill-opacity="1" fill-rule="nonzero"/><g clip-path="url(#89cc55c43c)"><path fill="#fa743e" d="M 311.238281 68.605469 C 311.007812 68.605469 310.773438 68.515625 310.59375 68.335938 C 310.238281 67.976562 310.238281 67.398438 310.59375 67.039062 L 313.832031 63.785156 C 314.1875 63.425781 314.765625 63.425781 315.121094 63.785156 C 315.476562 64.144531 315.476562 64.722656 315.121094 65.082031 L 311.882812 68.335938 C 311.707031 68.515625 311.472656 68.605469 311.238281 68.605469 Z M 317.390625 69.449219 C 317.289062 69.449219 317.1875 69.433594 317.085938 69.398438 C 316.613281 69.230469 316.363281 68.707031 316.527344 68.230469 L 317.414062 65.6875 C 317.582031 65.210938 318.101562 64.960938 318.574219 65.125 C 319.050781 65.292969 319.300781 65.816406 319.132812 66.292969 L 318.25 68.835938 C 318.117188 69.210938 317.765625 69.449219 317.390625 69.449219 Z M 310.398438 62.421875 C 310.023438 62.421875 309.671875 62.183594 309.539062 61.808594 C 309.371094 61.332031 309.621094 60.808594 310.097656 60.640625 L 312.371094 59.832031 C 312.847656 59.667969 313.367188 59.914062 313.535156 60.390625 C 313.703125 60.867188 313.453125 61.390625 312.976562 61.5625 L 310.703125 62.367188 C 310.601562 62.40625 310.5 62.421875 310.398438 62.421875 Z M 337.257812 42.46875 C 337.023438 42.46875 336.792969 42.378906 336.613281 42.199219 C 336.257812 41.839844 336.257812 41.261719 336.613281 40.902344 L 339.851562 37.648438 C 340.207031 37.289062 340.785156 37.289062 341.140625 37.648438 C 341.496094 38.003906 341.496094 38.585938 341.140625 38.945312 L 337.902344 42.199219 C 337.726562 42.378906 337.492188 42.46875 337.257812 42.46875 Z M 333.460938 40.914062 C 333.363281 40.914062 333.261719 40.894531 333.160156 40.859375 C 332.6875 40.691406 332.433594 40.171875 332.601562 39.691406 L 333.484375 37.148438 C 333.652344 36.671875 334.171875 36.421875 334.648438 36.585938 C 335.121094 36.753906 335.371094 37.277344 335.207031 37.753906 L 334.324219 40.296875 C 334.191406 40.675781 333.839844 40.914062 333.460938 40.914062 Z M 339.0625 46.207031 C 338.6875 46.207031 338.335938 45.96875 338.203125 45.59375 C 338.035156 45.117188 338.285156 44.59375 338.757812 44.425781 L 341.03125 43.617188 C 341.507812 43.445312 342.027344 43.699219 342.195312 44.175781 C 342.363281 44.652344 342.113281 45.175781 341.640625 45.34375 L 339.367188 46.152344 C 339.265625 46.1875 339.164062 46.207031 339.0625 46.207031 Z M 339.0625 46.207031 " fill-opacity="1" fill-rule="nonzero"/></g><g clip-path="url(#8c842d112d)"><path fill="#ffdb5e" d="M 341.71875 58.332031 C 341.117188 57.386719 341.515625 56.0625 341.410156 54.578125 C 341.328125 52.164062 340.375 49.792969 338.441406 47.859375 L 331.851562 41.269531 C 331.851562 41.269531 330.554688 39.972656 329.257812 41.277344 C 327.96875 42.582031 329.265625 43.882812 329.265625 43.882812 L 334.464844 49.082031 C 334.464844 49.082031 333.816406 49.734375 331.144531 47.0625 C 328.472656 44.390625 322.125 38.039062 322.125 38.039062 C 322.125 38.039062 320.828125 36.738281 319.535156 38.046875 C 318.242188 39.351562 319.539062 40.648438 319.539062 40.648438 L 328.070312 49.183594 C 328.050781 49.164062 327.382812 49.792969 327.371094 49.78125 L 318.246094 40.652344 C 318.246094 40.652344 316.945312 39.351562 315.652344 40.660156 C 314.359375 41.964844 315.660156 43.265625 315.660156 43.265625 L 324.785156 52.394531 C 324.796875 52.40625 324.167969 53.074219 324.183594 53.09375 L 316.3125 45.21875 C 316.3125 45.21875 315.011719 43.917969 313.71875 45.222656 C 312.425781 46.53125 313.726562 47.832031 313.726562 47.832031 L 322.097656 56.203125 C 322.171875 56.28125 321.613281 57.019531 321.710938 57.117188 L 315.675781 51.082031 C 315.675781 51.082031 314.378906 49.785156 313.085938 51.089844 C 311.792969 52.394531 313.09375 53.695312 313.09375 53.695312 L 322.929688 63.535156 C 324.570312 65.175781 326.285156 66.039062 328.375 66.402344 C 328.800781 66.476562 329.347656 66.496094 329.570312 66.53125 C 330.273438 66.644531 330.886719 66.921875 331.703125 67.460938 C 332.753906 68.15625 334.351562 68.488281 335.304688 67.527344 L 338.566406 64.246094 L 341.578125 61.222656 C 342.535156 60.257812 342.398438 59.398438 341.71875 58.332031 Z M 341.71875 58.332031 " fill-opacity="1" fill-rule="nonzero"/></g></svg>